<?xml version="1.0" encoding="UTF-8" standalone="no"?>
<svg
   xmlns:dc="http://purl.org/dc/elements/1.1/"
   xmlns:cc="http://creativecommons.org/ns#"
   xmlns:rdf="http://www.w3.org/1999/02/22-rdf-syntax-ns#"
   xmlns:svg="http://www.w3.org/2000/svg"
   xmlns="http://www.w3.org/2000/svg"
   xmlns:sodipodi="http://sodipodi.sourceforge.net/DTD/sodipodi-0.dtd"
   xmlns:inkscape="http://www.inkscape.org/namespaces/inkscape"
   width="100%"
   height="100%"
   viewBox="0 0 128 128"
   version="1.1"
   xml:space="preserve"
   style="fill-rule:evenodd;clip-rule:evenodd;stroke-linejoin:round;stroke-miterlimit:1.41421;"
   id="svg5263"
   inkscape:version="0.91 r13725"
   sodipodi:docname="cool.svg"><metadata
     id="metadata5286"><rdf:RDF><cc:Work
         rdf:about=""><dc:format>image/svg+xml</dc:format><dc:type
           rdf:resource="http://purl.org/dc/dcmitype/StillImage" /></cc:Work></rdf:RDF></metadata><defs
     id="defs5284" /><sodipodi:namedview
     pagecolor="#ffffff"
     bordercolor="#666666"
     borderopacity="1"
     objecttolerance="10"
     gridtolerance="10"
     guidetolerance="10"
     inkscape:pageopacity="0"
     inkscape:pageshadow="2"
     inkscape:window-width="1920"
     inkscape:window-height="1017"
     id="namedview5282"
     showgrid="false"
     inkscape:zoom="1.84375"
     inkscape:cx="64"
     inkscape:cy="64"
     inkscape:window-x="-8"
     inkscape:window-y="-8"
     inkscape:window-maximized="1"
     inkscape:current-layer="svg5263" /><g
     transform="matrix(1,0,0,1,0,-160)"
     id="g5265"><g
       id="cool"
       transform="matrix(1,0,0,1,0,160)"><rect
         x="0"
         y="0"
         width="128"
         height="128"
         style="fill:none;"
         id="rect5268" /><path
         d="M64,9C33.615,9 9,33.615 9,64C9,94.385 33.615,119 64,119C94.384,119 119,94.385 119,64C119,33.615 94.384,9 64,9Z"
         style="fill:#a9aaac;fill-rule:nonzero;fill-opacity:1"
         id="path5270" /><g
         id="g5272"><path
           d="M59.246,52.88C59.246,56.584 56.246,59.584 52.542,59.584L8.704,59.584C5,59.583 2,56.584 2,52.88L2,43.817C2,40.113 5,37.113 8.704,37.113L52.542,37.113C56.246,37.113 59.246,40.113 59.246,43.817L59.246,52.88Z"
           style="fill:#333333;fill-rule:nonzero"
           id="path5274" /><path
           d="M126,52.88C126,56.584 123,59.584 119.294,59.584L75.259,59.584C71.562,59.584 68.561,56.584 68.561,52.88L68.561,43.817C68.561,40.113 71.562,37.113 75.259,37.113L119.294,37.113C123,37.113 126,40.113 126,43.817L126,52.88Z"
           style="fill:#333333;fill-rule:nonzero"
           id="path5276" /><rect
           x="42.197"
           y="42.48"
           width="39.388"
           height="8.381"
           style="fill:#333333"
           id="rect5278" /></g><path
         d="M88.57,73.214L88.883,73.242L89.193,73.29L89.5,73.357L89.802,73.444L90.098,73.549L90.386,73.673L90.667,73.814L90.938,73.973L91.198,74.149L91.447,74.34L91.684,74.547L91.907,74.768L92.115,75.003L92.309,75.251L92.486,75.51L92.647,75.779L92.791,76.059L92.917,76.346L93.024,76.642L93.113,76.943L93.183,77.249L93.233,77.559L93.264,77.872L93.275,78.186L93.266,78.5L93.238,78.813L93.19,79.123L93.123,79.43L93.036,79.732L92.931,80.028L92.807,80.316L92.666,80.597L92.507,80.868L92.331,81.128L92.14,81.377L91.933,81.614L91.76,81.799L91.576,81.994L91.391,82.188L91.205,82.38L91.018,82.571L90.83,82.761L90.641,82.949L90.451,83.135L90.26,83.32L90.068,83.503L89.876,83.685L89.682,83.866L89.488,84.045L89.293,84.222L89.097,84.398L88.9,84.573L88.702,84.746L88.504,84.917L88.304,85.087L88.104,85.256L87.903,85.423L87.701,85.588L87.499,85.752L87.295,85.914L87.091,86.075L86.886,86.235L86.68,86.393L86.474,86.549L86.267,86.704L86.059,86.857L85.85,87.009L85.641,87.16L85.431,87.308L85.22,87.455L85.008,87.601L84.796,87.745L84.583,87.888L84.369,88.029L84.155,88.169L83.94,88.307L83.724,88.443L83.508,88.578L83.291,88.712L83.073,88.844L82.855,88.974L82.637,89.103L82.417,89.231L82.197,89.356L81.976,89.481L81.755,89.603L81.533,89.725L81.311,89.844L81.088,89.962L80.864,90.079L80.64,90.194L80.415,90.307L80.19,90.419L79.964,90.53L79.738,90.638L79.512,90.746L79.284,90.851L79.056,90.956L78.828,91.058L78.599,91.159L78.37,91.259L78.141,91.357L77.91,91.453L77.68,91.548L77.449,91.641L77.217,91.733L76.985,91.823L76.753,91.912L76.52,91.999L76.287,92.085L76.053,92.168L75.819,92.251L75.585,92.332L75.35,92.411L75.115,92.489L74.88,92.565L74.644,92.64L74.407,92.713L74.171,92.784L73.934,92.854L73.697,92.922L73.459,92.989L73.222,93.054L72.983,93.118L72.745,93.18L72.506,93.241L72.267,93.3L72.028,93.357L71.788,93.413L71.548,93.467L71.308,93.52L71.068,93.571L70.827,93.621L70.586,93.669L70.346,93.715L70.104,93.76L69.863,93.804L69.621,93.846L69.379,93.886L69.137,93.924L68.895,93.961L68.653,93.997L68.41,94.031L68.167,94.063L67.925,94.094L67.682,94.123L67.438,94.151L67.195,94.177L66.952,94.202L66.708,94.225L66.465,94.246L66.221,94.266L65.977,94.284L65.733,94.301L65.489,94.316L65.246,94.329L65.001,94.341L64.757,94.352L64.513,94.361L64.269,94.368L64.025,94.374L63.78,94.378L63.536,94.38L63.292,94.381L63.048,94.381L62.803,94.379L62.559,94.375L62.314,94.37L62.07,94.363L61.826,94.354L61.582,94.344L61.338,94.333L61.094,94.32L60.85,94.305L60.606,94.289L60.362,94.271L60.118,94.251L59.874,94.23L59.631,94.208L59.388,94.184L59.144,94.158L58.901,94.131L58.658,94.102L58.415,94.072L58.172,94.04L57.929,94.006L57.687,93.971L57.445,93.934L57.203,93.896L56.961,93.856L56.719,93.815L56.477,93.772L56.236,93.727L55.995,93.681L55.754,93.633L55.513,93.584L55.272,93.533L55.032,93.481L54.792,93.427L54.553,93.372L54.313,93.314L54.074,93.256L53.835,93.196L53.596,93.134L53.358,93.07L53.12,93.005L52.882,92.939L52.645,92.871L52.407,92.801L52.171,92.73L51.934,92.657L51.698,92.583L51.462,92.507L51.227,92.43L50.992,92.351L50.758,92.27L50.523,92.188L50.289,92.104L50.056,92.019L49.823,91.932L49.59,91.844L49.358,91.754L49.126,91.662L48.895,91.569L48.664,91.474L48.434,91.378L48.204,91.28L47.974,91.181L47.745,91.08L47.516,90.978L47.288,90.874L47.061,90.768L46.834,90.661L46.607,90.552L46.381,90.442L46.156,90.33L45.931,90.217L45.706,90.102L45.482,89.985L45.259,89.867L45.036,89.748L44.814,89.627L44.593,89.504L44.372,89.38L44.151,89.254L43.931,89.127L43.712,88.998L43.494,88.867L43.276,88.735L43.058,88.602L42.842,88.467L42.626,88.33L42.41,88.192L42.196,88.053L41.982,87.911L41.769,87.769L41.556,87.624L41.344,87.478L41.133,87.331L40.922,87.182L40.712,87.032L40.503,86.88L40.295,86.726L40.087,86.571L39.88,86.415L39.674,86.257L39.469,86.097L39.264,85.936L39.061,85.773L38.858,85.609L38.656,85.444L38.454,85.276L38.254,85.108L38.054,84.938L37.855,84.766L37.657,84.593L37.459,84.418L37.263,84.242L37.068,84.064L36.873,83.884L36.679,83.704L36.486,83.521L36.294,83.338L36.103,83.152L35.913,82.966L35.723,82.777L35.535,82.587L35.347,82.396L35.16,82.203L34.975,82.009L34.79,81.813L34.617,81.628L34.41,81.391L34.219,81.142L34.043,80.882L33.884,80.611L33.743,80.33L33.619,80.042L33.514,79.746L33.427,79.444L33.36,79.137L33.312,78.827L33.284,78.514L33.275,78.2L33.286,77.886L33.317,77.573L33.367,77.263L33.437,76.957L33.526,76.656L33.633,76.361L33.759,76.073L33.903,75.793L34.064,75.524L34.241,75.265L34.435,75.017L34.643,74.782L34.866,74.561L35.103,74.354L35.352,74.163L35.612,73.987L35.883,73.828L36.164,73.687L36.452,73.563L36.748,73.458L37.05,73.371L37.357,73.304L37.667,73.256L37.98,73.228L38.294,73.219L38.608,73.23L38.921,73.261L39.231,73.311L39.537,73.381L39.838,73.47L40.133,73.577L40.421,73.703L40.701,73.847L40.97,74.008L41.229,74.185L41.477,74.379L41.712,74.587L41.933,74.81L42.084,74.973L42.225,75.122L42.367,75.271L42.51,75.418L42.653,75.564L42.796,75.708L42.94,75.852L43.085,75.994L43.231,76.135L43.377,76.274L43.523,76.413L43.67,76.55L43.818,76.686L43.966,76.82L44.115,76.954L44.264,77.086L44.414,77.217L44.564,77.347L44.715,77.476L44.866,77.603L45.018,77.729L45.171,77.854L45.324,77.978L45.477,78.1L45.631,78.221L45.786,78.341L45.941,78.46L46.096,78.578L46.252,78.694L46.408,78.81L46.565,78.923L46.723,79.036L46.88,79.148L47.039,79.258L47.197,79.368L47.356,79.475L47.516,79.582L47.676,79.688L47.837,79.792L47.998,79.896L48.159,79.998L48.321,80.098L48.483,80.198L48.645,80.296L48.808,80.394L48.972,80.49L49.136,80.585L49.3,80.678L49.464,80.771L49.629,80.862L49.795,80.952L49.96,81.041L50.126,81.129L50.293,81.216L50.46,81.301L50.627,81.385L50.794,81.468L50.962,81.55L51.13,81.631L51.299,81.71L51.468,81.789L51.637,81.866L51.806,81.942L51.976,82.017L52.146,82.09L52.317,82.163L52.487,82.234L52.658,82.304L52.83,82.373L53.001,82.441L53.173,82.507L53.345,82.573L53.518,82.637L53.691,82.7L53.864,82.762L54.037,82.823L54.21,82.882L54.384,82.941L54.558,82.998L54.732,83.054L54.907,83.109L55.081,83.163L55.256,83.216L55.431,83.267L55.607,83.317L55.783,83.366L55.958,83.414L56.134,83.461L56.31,83.507L56.487,83.551L56.663,83.595L56.84,83.637L57.017,83.678L57.194,83.717L57.371,83.756L57.549,83.794L57.726,83.83L57.904,83.865L58.082,83.899L58.26,83.932L58.438,83.964L58.617,83.994L58.795,84.024L58.973,84.052L59.152,84.079L59.331,84.105L59.51,84.129L59.689,84.153L59.868,84.175L60.047,84.197L60.226,84.217L60.406,84.236L60.585,84.254L60.765,84.27L60.944,84.286L61.124,84.3L61.304,84.313L61.484,84.325L61.663,84.336L61.843,84.346L62.023,84.354L62.203,84.361L62.383,84.368L62.563,84.373L62.743,84.377L62.923,84.379L63.103,84.381L63.283,84.381L63.463,84.381L63.643,84.379L63.823,84.376L64.003,84.371L64.183,84.366L64.363,84.36L64.543,84.352L64.723,84.343L64.903,84.333L65.083,84.322L65.262,84.31L65.442,84.296L65.622,84.282L65.801,84.266L65.981,84.249L66.16,84.231L66.34,84.211L66.519,84.191L66.698,84.17L66.877,84.147L67.056,84.123L67.235,84.098L67.414,84.072L67.592,84.044L67.771,84.016L67.949,83.986L68.128,83.955L68.306,83.923L68.484,83.89L68.662,83.856L68.839,83.821L69.017,83.784L69.194,83.746L69.371,83.707L69.548,83.667L69.725,83.626L69.902,83.583L70.079,83.54L70.255,83.495L70.431,83.449L70.607,83.402L70.783,83.354L70.958,83.305L71.134,83.254L71.309,83.202L71.484,83.15L71.658,83.096L71.833,83.04L72.007,82.984L72.181,82.927L72.354,82.868L72.528,82.808L72.701,82.747L72.874,82.685L73.047,82.622L73.219,82.557L73.391,82.492L73.563,82.425L73.734,82.357L73.906,82.288L74.076,82.217L74.247,82.146L74.418,82.073L74.588,81.999L74.757,81.924L74.927,81.848L75.096,81.771L75.264,81.692L75.433,81.613L75.601,81.532L75.769,81.45L75.936,81.367L76.103,81.282L76.27,81.197L76.436,81.11L76.602,81.022L76.767,80.933L76.933,80.843L77.098,80.751L77.262,80.659L77.426,80.565L77.589,80.47L77.753,80.374L77.916,80.277L78.078,80.178L78.24,80.079L78.402,79.978L78.563,79.876L78.723,79.772L78.884,79.668L79.044,79.562L79.203,79.456L79.362,79.347L79.52,79.238L79.679,79.128L79.836,79.016L79.993,78.904L80.15,78.79L80.306,78.674L80.462,78.558L80.617,78.441L80.772,78.322L80.926,78.202L81.08,78.081L81.233,77.958L81.386,77.835L81.538,77.71L81.69,77.584L81.841,77.457L81.991,77.328L82.141,77.199L82.291,77.068L82.44,76.936L82.588,76.802L82.736,76.668L82.884,76.532L83.03,76.395L83.177,76.257L83.322,76.118L83.467,75.977L83.612,75.835L83.756,75.692L83.899,75.548L84.042,75.402L84.184,75.256L84.325,75.108L84.466,74.958L84.617,74.796L84.838,74.573L85.073,74.365L85.321,74.171L85.58,73.994L85.849,73.833L86.129,73.689L86.416,73.563L86.712,73.456L87.013,73.367L87.319,73.297L87.629,73.247L87.942,73.216L88.256,73.205L88.57,73.214Z"
         style="fill:#333333"
         id="path5280" /></g></g></svg>