<?xml version="1.0" encoding="UTF-8" standalone="no"?>
<svg
   xmlns:dc="http://purl.org/dc/elements/1.1/"
   xmlns:cc="http://creativecommons.org/ns#"
   xmlns:rdf="http://www.w3.org/1999/02/22-rdf-syntax-ns#"
   xmlns:svg="http://www.w3.org/2000/svg"
   xmlns="http://www.w3.org/2000/svg"
   xmlns:sodipodi="http://sodipodi.sourceforge.net/DTD/sodipodi-0.dtd"
   xmlns:inkscape="http://www.inkscape.org/namespaces/inkscape"
   width="100%"
   height="100%"
   viewBox="0 0 128 128"
   version="1.1"
   xml:space="preserve"
   style="fill-rule:evenodd;clip-rule:evenodd;stroke-linejoin:round;stroke-miterlimit:1.41421;"
   id="svg6391"
   inkscape:version="0.91 r13725"
   sodipodi:docname="sad.svg"><metadata
     id="metadata6416"><rdf:RDF><cc:Work
         rdf:about=""><dc:format>image/svg+xml</dc:format><dc:type
           rdf:resource="http://purl.org/dc/dcmitype/StillImage" /></cc:Work></rdf:RDF></metadata><defs
     id="defs6414" /><sodipodi:namedview
     pagecolor="#ffffff"
     bordercolor="#666666"
     borderopacity="1"
     objecttolerance="10"
     gridtolerance="10"
     guidetolerance="10"
     inkscape:pageopacity="0"
     inkscape:pageshadow="2"
     inkscape:window-width="1920"
     inkscape:window-height="1017"
     id="namedview6412"
     showgrid="false"
     inkscape:zoom="3.6875"
     inkscape:cx="35.5481"
     inkscape:cy="77.294182"
     inkscape:window-x="-8"
     inkscape:window-y="-8"
     inkscape:window-maximized="1"
     inkscape:current-layer="svg6391" /><g
     transform="matrix(1,0,0,1,0,-480)"
     id="g6393"><g
       id="sad"
       transform="matrix(1,0,0,1.37634,0,294.194)"><rect
         x="0"
         y="135"
         width="128"
         height="93"
         style="fill:none;"
         id="rect6396" /><g
         transform="matrix(1,0,0,0.726562,0,135)"
         id="g6398"><path
           d="M64,9C33.615,9 9,33.615 9,64C9,94.385 33.615,119 64,119C94.384,119 119,94.385 119,64C119,33.615 94.384,9 64,9Z"
           style="fill:#a9aaac;fill-rule:nonzero;fill-opacity:1"
           id="path6400" /></g><g
         transform="matrix(1,0,0,0.726562,0,135)"
         id="g6402"
         style="fill:#333333"><circle
           cx="81.765"
           cy="50.694"
           r="7.5"
           style="fill:#333333"
           id="circle6404" /><circle
           cx="46.235"
           cy="50.694"
           r="7.5"
           style="fill:#333333"
           id="circle6406" /></g><g
         transform="matrix(1,0,0,0.726562,0,135)"
         id="g6408"
         style="fill:#333333"><path
           d="M63.502,70.082L63.747,70.084L63.991,70.088L64.236,70.093L64.48,70.1L64.724,70.109L64.968,70.119L65.212,70.13L65.456,70.143L65.7,70.158L65.944,70.174L66.188,70.192L66.432,70.212L66.675,70.233L66.919,70.255L67.163,70.279L67.405,70.305L67.649,70.332L67.892,70.361L68.135,70.391L68.378,70.423L68.621,70.457L68.863,70.492L69.105,70.529L69.348,70.567L69.59,70.607L69.831,70.648L70.073,70.691L70.314,70.736L70.555,70.782L70.796,70.83L71.037,70.879L71.278,70.93L71.518,70.982L71.758,71.036L71.997,71.091L72.237,71.148L72.476,71.207L72.715,71.267L72.954,71.329L73.192,71.393L73.43,71.458L73.668,71.524L73.905,71.592L74.143,71.662L74.379,71.733L74.616,71.806L74.852,71.88L75.087,71.956L75.323,72.033L75.558,72.112L75.792,72.193L76.027,72.275L76.261,72.359L76.494,72.444L76.727,72.531L76.96,72.619L77.192,72.709L77.424,72.801L77.655,72.894L77.886,72.989L78.116,73.085L78.346,73.183L78.576,73.282L78.805,73.383L79.033,73.485L79.262,73.589L79.489,73.695L79.716,73.802L79.943,73.911L80.169,74.021L80.394,74.133L80.619,74.246L80.844,74.361L81.068,74.478L81.291,74.596L81.514,74.715L81.736,74.836L81.957,74.959L82.178,75.083L82.399,75.209L82.619,75.336L82.838,75.465L83.056,75.596L83.274,75.728L83.492,75.861L83.708,75.996L83.924,76.133L84.139,76.271L84.354,76.41L84.568,76.552L84.781,76.694L84.994,76.839L85.206,76.984L85.418,77.132L85.628,77.281L85.838,77.431L86.047,77.583L86.255,77.737L86.463,77.892L86.669,78.048L86.876,78.206L87.081,78.366L87.285,78.527L87.489,78.69L87.692,78.854L87.894,79.019L88.096,79.187L88.296,79.355L88.496,79.526L88.695,79.697L88.893,79.87L89.091,80.045L89.287,80.222L89.482,80.399L89.677,80.578L89.871,80.759L90.064,80.942L90.256,81.125L90.447,81.311L90.637,81.497L90.827,81.686L91.015,81.876L91.203,82.067L91.39,82.26L91.575,82.454L91.76,82.649L91.933,82.835L92.14,83.072L92.331,83.32L92.507,83.581L92.666,83.852L92.807,84.132L92.931,84.421L93.036,84.717L93.123,85.019L93.19,85.326L93.238,85.636L93.266,85.949L93.275,86.263L93.264,86.577L93.233,86.89L93.183,87.2L93.113,87.506L93.024,87.807L92.917,88.102L92.791,88.39L92.647,88.669L92.486,88.939L92.309,89.198L92.115,89.446L91.907,89.681L91.684,89.902L91.447,90.109L91.199,90.3L90.938,90.476L90.667,90.635L90.387,90.776L90.098,90.9L89.802,91.005L89.5,91.092L89.193,91.159L88.883,91.207L88.57,91.235L88.256,91.244L87.942,91.233L87.629,91.202L87.319,91.152L87.013,91.082L86.712,90.993L86.417,90.886L86.129,90.76L85.85,90.616L85.58,90.455L85.321,90.278L85.073,90.084L84.838,89.876L84.617,89.653L84.466,89.49L84.324,89.341L84.183,89.192L84.04,89.045L83.897,88.899L83.754,88.755L83.61,88.611L83.465,88.469L83.319,88.328L83.173,88.189L83.027,88.05L82.88,87.913L82.732,87.777L82.584,87.642L82.435,87.509L82.286,87.377L82.136,87.246L81.986,87.116L81.835,86.987L81.684,86.86L81.532,86.734L81.379,86.609L81.226,86.485L81.073,86.363L80.919,86.242L80.764,86.122L80.61,86.003L80.454,85.885L80.298,85.769L80.142,85.654L79.985,85.54L79.827,85.427L79.669,85.315L79.511,85.205L79.353,85.096L79.194,84.988L79.034,84.881L78.874,84.775L78.713,84.671L78.552,84.567L78.391,84.465L78.229,84.365L78.067,84.265L77.905,84.167L77.742,84.069L77.578,83.973L77.414,83.878L77.25,83.785L77.086,83.692L76.921,83.601L76.755,83.511L76.59,83.422L76.424,83.334L76.257,83.247L76.09,83.162L75.923,83.078L75.756,82.995L75.588,82.913L75.42,82.832L75.251,82.753L75.082,82.674L74.913,82.597L74.743,82.521L74.574,82.446L74.404,82.373L74.234,82.3L74.063,82.229L73.891,82.159L73.72,82.09L73.549,82.022L73.377,81.956L73.204,81.89L73.032,81.826L72.859,81.763L72.686,81.701L72.514,81.64L72.34,81.58L72.166,81.522L71.992,81.465L71.817,81.409L71.643,81.354L71.469,81.3L71.293,81.247L71.119,81.196L70.943,81.146L70.767,81.097L70.592,81.049L70.416,81.002L70.24,80.956L70.063,80.912L69.887,80.868L69.71,80.826L69.533,80.785L69.356,80.745L69.178,80.707L69.002,80.669L68.824,80.633L68.646,80.598L68.468,80.564L68.29,80.531L68.112,80.499L67.933,80.469L67.755,80.439L67.577,80.411L67.398,80.384L67.219,80.358L67.04,80.334L66.861,80.31L66.682,80.288L66.503,80.266L66.324,80.246L66.144,80.227L65.965,80.209L65.785,80.193L65.605,80.177L65.426,80.163L65.247,80.15L65.066,80.138L64.887,80.127L64.707,80.117L64.527,80.109L64.347,80.102L64.167,80.095L63.987,80.09L63.807,80.086L63.627,80.084L63.447,80.082L63.267,80.082L63.087,80.082L62.907,80.084L62.727,80.087L62.547,80.092L62.367,80.097L62.187,80.103L62.007,80.111L61.827,80.12L61.647,80.13L61.467,80.141L61.288,80.153L61.108,80.167L60.928,80.181L60.749,80.197L60.569,80.214L60.39,80.232L60.211,80.251L60.031,80.272L59.852,80.293L59.673,80.316L59.494,80.34L59.315,80.365L59.137,80.391L58.958,80.419L58.779,80.447L58.601,80.477L58.422,80.508L58.244,80.54L58.066,80.573L57.889,80.607L57.711,80.643L57.533,80.679L57.356,80.717L57.178,80.756L57.001,80.796L56.825,80.837L56.648,80.879L56.472,80.923L56.295,80.968L56.119,81.014L55.943,81.061L55.768,81.109L55.592,81.158L55.416,81.209L55.241,81.261L55.066,81.313L54.892,81.367L54.718,81.423L54.543,81.479L54.369,81.536L54.195,81.595L54.022,81.655L53.849,81.716L53.676,81.778L53.503,81.841L53.331,81.906L53.159,81.971L52.987,82.038L52.816,82.106L52.644,82.176L52.473,82.246L52.303,82.317L52.133,82.39L51.962,82.464L51.793,82.539L51.624,82.615L51.454,82.692L51.286,82.771L51.117,82.85L50.949,82.931L50.781,83.013L50.614,83.096L50.447,83.181L50.28,83.266L50.114,83.353L49.948,83.441L49.783,83.53L49.617,83.62L49.452,83.712L49.288,83.804L49.124,83.898L48.961,83.993L48.797,84.089L48.634,84.186L48.472,84.285L48.31,84.384L48.149,84.485L47.987,84.587L47.826,84.691L47.666,84.795L47.506,84.901L47.347,85.008L47.188,85.115L47.03,85.225L46.872,85.335L46.714,85.447L46.557,85.559L46.4,85.673L46.244,85.788L46.088,85.905L45.933,86.023L45.778,86.141L45.624,86.261L45.47,86.382L45.317,86.505L45.164,86.628L45.012,86.753L44.86,86.879L44.709,87.006L44.559,87.135L44.409,87.264L44.259,87.395L44.11,87.527L43.962,87.66L43.814,87.795L43.666,87.931L43.519,88.068L43.373,88.206L43.228,88.345L43.083,88.486L42.938,88.628L42.794,88.771L42.651,88.915L42.508,89.061L42.366,89.207L42.225,89.355L42.084,89.504L41.933,89.667L41.712,89.89L41.477,90.098L41.229,90.292L40.97,90.469L40.701,90.63L40.421,90.774L40.134,90.9L39.838,91.007L39.537,91.096L39.231,91.166L38.921,91.216L38.608,91.247L38.294,91.258L37.98,91.249L37.667,91.221L37.357,91.173L37.05,91.106L36.748,91.019L36.452,90.914L36.164,90.79L35.883,90.649L35.612,90.49L35.352,90.314L35.103,90.123L34.866,89.916L34.643,89.695L34.435,89.46L34.241,89.213L34.064,88.953L33.903,88.684L33.759,88.404L33.633,88.117L33.526,87.821L33.437,87.52L33.367,87.214L33.317,86.904L33.286,86.591L33.275,86.277L33.284,85.963L33.312,85.65L33.36,85.34L33.427,85.033L33.514,84.731L33.619,84.435L33.743,84.147L33.884,83.866L34.043,83.595L34.219,83.335L34.41,83.086L34.617,82.849L34.789,82.664L34.974,82.469L35.159,82.275L35.345,82.083L35.532,81.892L35.721,81.702L35.91,81.514L36.099,81.328L36.29,81.143L36.482,80.96L36.674,80.778L36.868,80.597L37.062,80.418L37.257,80.241L37.453,80.065L37.65,79.89L37.848,79.717L38.047,79.546L38.246,79.376L38.446,79.207L38.647,79.04L38.849,78.875L39.051,78.711L39.255,78.549L39.459,78.388L39.664,78.228L39.87,78.07L40.076,77.914L40.283,77.759L40.491,77.606L40.7,77.454L40.909,77.304L41.119,77.155L41.33,77.008L41.542,76.862L41.754,76.717L41.967,76.575L42.181,76.434L42.395,76.294L42.61,76.156L42.826,76.02L43.042,75.885L43.259,75.751L43.477,75.619L43.694,75.489L43.913,75.36L44.133,75.232L44.353,75.107L44.574,74.982L44.795,74.86L45.017,74.739L45.239,74.619L45.462,74.501L45.686,74.384L45.91,74.269L46.135,74.156L46.36,74.044L46.586,73.933L46.812,73.825L47.038,73.717L47.266,73.612L47.493,73.508L47.722,73.405L47.951,73.304L48.18,73.204L48.409,73.106L48.64,73.01L48.87,72.915L49.101,72.822L49.333,72.73L49.565,72.64L49.797,72.551L50.03,72.464L50.263,72.378L50.497,72.295L50.731,72.212L50.965,72.131L51.2,72.052L51.435,71.974L51.67,71.898L51.906,71.823L52.143,71.75L52.379,71.679L52.616,71.609L52.853,71.541L53.09,71.474L53.328,71.409L53.567,71.345L53.805,71.283L54.044,71.222L54.283,71.163L54.522,71.106L54.762,71.05L55.002,70.995L55.242,70.943L55.482,70.892L55.723,70.842L55.963,70.794L56.204,70.748L56.446,70.703L56.687,70.659L56.929,70.618L57.171,70.577L57.413,70.539L57.655,70.502L57.897,70.466L58.14,70.432L58.383,70.4L58.626,70.369L58.869,70.34L59.111,70.312L59.355,70.286L59.598,70.261L59.841,70.238L60.085,70.217L60.329,70.197L60.573,70.179L60.817,70.162L61.06,70.147L61.304,70.134L61.549,70.122L61.793,70.111L62.037,70.102L62.281,70.095L62.525,70.089L62.77,70.085L63.014,70.083L63.258,70.082L63.502,70.082Z"
           style="fill:#333333"
           id="path6410" /></g></g></g></svg>