<?xml version="1.0" encoding="UTF-8" standalone="no"?>
<svg
   xmlns:dc="http://purl.org/dc/elements/1.1/"
   xmlns:cc="http://creativecommons.org/ns#"
   xmlns:rdf="http://www.w3.org/1999/02/22-rdf-syntax-ns#"
   xmlns:svg="http://www.w3.org/2000/svg"
   xmlns="http://www.w3.org/2000/svg"
   xmlns:sodipodi="http://sodipodi.sourceforge.net/DTD/sodipodi-0.dtd"
   xmlns:inkscape="http://www.inkscape.org/namespaces/inkscape"
   width="100%"
   height="100%"
   viewBox="0 0 128 128"
   version="1.1"
   xml:space="preserve"
   style="fill-rule:evenodd;clip-rule:evenodd;stroke-linejoin:round;stroke-miterlimit:1.41421;"
   id="svg6958"
   inkscape:version="0.91 r13725"
   sodipodi:docname="scream.svg"><metadata
     id="metadata6983"><rdf:RDF><cc:Work
         rdf:about=""><dc:format>image/svg+xml</dc:format><dc:type
           rdf:resource="http://purl.org/dc/dcmitype/StillImage" /></cc:Work></rdf:RDF></metadata><defs
     id="defs6981" /><sodipodi:namedview
     pagecolor="#ffffff"
     bordercolor="#666666"
     borderopacity="1"
     objecttolerance="10"
     gridtolerance="10"
     guidetolerance="10"
     inkscape:pageopacity="0"
     inkscape:pageshadow="2"
     inkscape:window-width="1920"
     inkscape:window-height="1017"
     id="namedview6979"
     showgrid="false"
     inkscape:zoom="1.84375"
     inkscape:cx="64"
     inkscape:cy="64"
     inkscape:window-x="-8"
     inkscape:window-y="-8"
     inkscape:window-maximized="1"
     inkscape:current-layer="svg6958" /><g
     transform="matrix(1,0,0,1,0,-640)"
     id="g6960"><g
       id="scream"
       transform="matrix(1,0,0,1.37634,0,454.194)"><rect
         x="0"
         y="135"
         width="128"
         height="93"
         style="fill:none;"
         id="rect6963" /><g
         transform="matrix(1,0,0,0.726562,0,135)"
         id="g6965"><path
           d="M64,9C33.615,9 9,33.615 9,64C9,94.385 33.615,119 64,119C94.384,119 119,94.385 119,64C119,33.615 94.384,9 64,9Z"
           style="fill:#a9aaac;fill-rule:nonzero;fill-opacity:1"
           id="path6967" /></g><g
         transform="matrix(1,0,0,0.726562,0,135)"
         id="g6969"
         style="fill:#333333"><ellipse
           cx="81.765"
           cy="45.98"
           rx="7.5"
           ry="12.214"
           style="fill:#333333"
           id="ellipse6971" /><ellipse
           cx="46.235"
           cy="45.98"
           rx="7.5"
           ry="12.214"
           style="fill:#333333"
           id="ellipse6973" /></g><g
         transform="matrix(1,0,0,0.726562,0,135)"
         id="g6975"
         style="fill:#333333"><ellipse
           cx="64"
           cy="84.289"
           rx="14.714"
           ry="18"
           style="fill:#333333"
           id="ellipse6977" /></g></g></g></svg>