<?xml version="1.0" encoding="UTF-8" standalone="no"?>
<svg
   xmlns:dc="http://purl.org/dc/elements/1.1/"
   xmlns:cc="http://creativecommons.org/ns#"
   xmlns:rdf="http://www.w3.org/1999/02/22-rdf-syntax-ns#"
   xmlns:svg="http://www.w3.org/2000/svg"
   xmlns="http://www.w3.org/2000/svg"
   xmlns:sodipodi="http://sodipodi.sourceforge.net/DTD/sodipodi-0.dtd"
   xmlns:inkscape="http://www.inkscape.org/namespaces/inkscape"
   width="100%"
   height="100%"
   viewBox="0 0 128 128"
   version="1.1"
   xml:space="preserve"
   style="fill-rule:evenodd;clip-rule:evenodd;stroke-linejoin:round;stroke-miterlimit:1.41421;"
   id="svg9775"
   inkscape:version="0.91 r13725"
   sodipodi:docname="twinkle.svg"><metadata
     id="metadata9790"><rdf:RDF><cc:Work
         rdf:about=""><dc:format>image/svg+xml</dc:format><dc:type
           rdf:resource="http://purl.org/dc/dcmitype/StillImage" /></cc:Work></rdf:RDF></metadata><defs
     id="defs9788" /><sodipodi:namedview
     pagecolor="#ffffff"
     bordercolor="#666666"
     borderopacity="1"
     objecttolerance="10"
     gridtolerance="10"
     guidetolerance="10"
     inkscape:pageopacity="0"
     inkscape:pageshadow="2"
     inkscape:window-width="1920"
     inkscape:window-height="1017"
     id="namedview9786"
     showgrid="false"
     inkscape:zoom="1.84375"
     inkscape:cx="64"
     inkscape:cy="64"
     inkscape:window-x="-8"
     inkscape:window-y="-8"
     inkscape:window-maximized="1"
     inkscape:current-layer="svg9775" /><rect
     id="twinkle"
     x="0"
     y="0"
     width="128"
     height="128"
     style="fill:none;" /><path
     d="M64,9c-30.385,0 -55,24.615 -55,55c0,30.385 24.615,55 55,55c30.384,0 55,-24.615 55,-55c0,-30.385 -24.616,-55 -55,-55Z"
     style="fill:#a9aaac;fill-rule:nonzero;fill-opacity:1"
     id="path9778" /><path
     d="M45.539,43.698l0.221,0.003l0.22,0.005l0.218,0.008l0.22,0.01l0.219,0.012l0.218,0.014l0.219,0.017l0.219,0.019l0.218,0.021l0.217,0.024l0.216,0.025l0.219,0.028l0.216,0.031l0.216,0.032l0.216,0.035l0.215,0.037l0.215,0.039l0.213,0.041l0.217,0.045l0.212,0.046l0.212,0.048l0.213,0.05l0.211,0.053l0.212,0.055l0.211,0.058l0.209,0.059l0.211,0.062l0.208,0.065l0.207,0.066l0.207,0.068l0.207,0.072l0.206,0.073l0.206,0.076l0.203,0.078l0.204,0.081l0.202,0.082l0.201,0.085l0.202,0.088l0.199,0.09l0.199,0.092l0.199,0.096l0.197,0.097l0.194,0.099l0.195,0.102l0.194,0.105l0.193,0.107l0.192,0.11l0.189,0.112l0.188,0.114l0.189,0.118l0.187,0.12l0.185,0.122l0.183,0.125l0.182,0.128l0.181,0.13l0.179,0.133l0.179,0.136l0.176,0.139l0.173,0.139l0.173,0.144l0.172,0.148l0.169,0.148l0.167,0.152l0.166,0.155l0.163,0.157l0.161,0.16l0.161,0.164l0.157,0.165l0.155,0.169l0.153,0.171l0.15,0.174l0.148,0.178l0.145,0.179l0.144,0.182l0.14,0.186l0.138,0.188l0.135,0.191l0.132,0.193l0.105,0.16l0.102,0.162l0.097,0.166l0.089,0.169l0.083,0.173l0.077,0.175l0.069,0.179l0.063,0.181l0.056,0.183l0.048,0.185l0.042,0.187l0.034,0.189l0.027,0.189l0.02,0.191l0.013,0.191l0.005,0.191l-0.002,0.192l-0.01,0.191l-0.017,0.191l-0.024,0.19l-0.031,0.189l-0.039,0.188l-0.045,0.186l-0.053,0.184l-0.06,0.182l-0.067,0.179l-0.073,0.177l-0.081,0.174l-0.087,0.171l-0.093,0.167l-0.1,0.163l-0.106,0.16l-0.112,0.156l-0.117,0.151l-0.124,0.146l-0.129,0.141l-0.134,0.137l-0.14,0.131l-0.144,0.126l-0.149,0.12l-0.154,0.115l-0.158,0.108l-0.162,0.102l-0.166,0.096l-0.169,0.09l-0.173,0.083l-0.175,0.077l-0.179,0.069l-0.181,0.063l-0.183,0.056l-0.185,0.048l-0.187,0.042l-0.189,0.034l-0.189,0.027l-0.191,0.02l-0.191,0.013l-0.191,0.005l-0.192,-0.002l-0.191,-0.01l-0.191,-0.017l-0.19,-0.024l-0.189,-0.031l-0.188,-0.039l-0.186,-0.045l-0.184,-0.053l-0.182,-0.06l-0.179,-0.067l-0.177,-0.073l-0.174,-0.081l-0.171,-0.087l-0.167,-0.093l-0.164,-0.1l-0.159,-0.106l-0.156,-0.112l-0.151,-0.118l-0.146,-0.123l-0.142,-0.129l-0.136,-0.134l-0.131,-0.14l-0.126,-0.144l-0.12,-0.15l-0.115,-0.153l-0.108,-0.158l-0.061,-0.092l-0.038,-0.056l-0.039,-0.056l-0.041,-0.056l-0.042,-0.055l-0.043,-0.055l-0.046,-0.056l-0.046,-0.055l-0.047,-0.055l-0.049,-0.055l-0.051,-0.055l-0.052,-0.055l-0.052,-0.053l-0.055,-0.055l-0.057,-0.054l-0.057,-0.054l-0.06,-0.054l-0.061,-0.054l-0.061,-0.052l-0.063,-0.053l-0.068,-0.054l-0.066,-0.052l-0.067,-0.052l-0.07,-0.051l-0.071,-0.052l-0.073,-0.051l-0.074,-0.05l-0.076,-0.05l-0.076,-0.049l-0.078,-0.049l-0.08,-0.049l-0.082,-0.048l-0.082,-0.047l-0.084,-0.046l-0.085,-0.046l-0.086,-0.045l-0.089,-0.046l-0.089,-0.044l-0.089,-0.042l-0.092,-0.043l-0.093,-0.042l-0.092,-0.04l-0.096,-0.041l-0.097,-0.039l-0.096,-0.038l-0.099,-0.038l-0.099,-0.037l-0.1,-0.035l-0.101,-0.035l-0.102,-0.034l-0.104,-0.033l-0.104,-0.032l-0.103,-0.031l-0.106,-0.03l-0.107,-0.029l-0.106,-0.028l-0.108,-0.027l-0.108,-0.025l-0.11,-0.025l-0.111,-0.024l-0.108,-0.022l-0.112,-0.022l-0.112,-0.021l-0.111,-0.019l-0.113,-0.018l-0.113,-0.017l-0.113,-0.016l-0.112,-0.014l-0.114,-0.014l-0.115,-0.012l-0.115,-0.011l-0.114,-0.01l-0.114,-0.009l-0.116,-0.007l-0.115,-0.007l-0.115,-0.005l-0.116,-0.004l-0.115,-0.003l-0.114,-0.001l-0.115,-0.001l-0.115,0.001l-0.116,0.002l-0.115,0.003l-0.114,0.005l-0.115,0.005l-0.113,0.007l-0.115,0.008l-0.113,0.01l-0.113,0.01l-0.114,0.012l-0.11,0.012l-0.112,0.015l-0.113,0.015l-0.112,0.016l-0.109,0.018l-0.11,0.019l-0.11,0.02l-0.107,0.02l-0.109,0.023l-0.107,0.023l-0.106,0.024l-0.107,0.026l-0.106,0.027l-0.105,0.028l-0.101,0.028l-0.103,0.03l-0.104,0.032l-0.101,0.032l-0.099,0.033l-0.098,0.034l-0.099,0.035l-0.1,0.037l-0.095,0.037l-0.095,0.038l-0.094,0.039l-0.093,0.04l-0.093,0.042l-0.091,0.042l-0.091,0.043l-0.089,0.044l-0.088,0.045l-0.087,0.046l-0.086,0.047l-0.085,0.048l-0.083,0.048l-0.082,0.049l-0.082,0.05l-0.111,0.071l-0.164,0.1l-0.167,0.093l-0.17,0.087l-0.174,0.08l-0.177,0.074l-0.18,0.067l-0.182,0.06l-0.184,0.052l-0.186,0.046l-0.187,0.039l-0.189,0.031l-0.19,0.024l-0.191,0.017l-0.192,0.01l-0.191,0.002l-0.192,-0.005l-0.191,-0.013l-0.19,-0.02l-0.19,-0.027l-0.188,-0.034l-0.187,-0.042l-0.186,-0.048l-0.183,-0.056l-0.181,-0.063l-0.178,-0.069l-0.176,-0.077l-0.173,-0.083l-0.169,-0.089l-0.166,-0.096l-0.162,-0.103l-0.157,-0.108l-0.154,-0.114l-0.149,-0.121l-0.145,-0.125l-0.139,-0.132l-0.135,-0.136l-0.129,-0.142l-0.123,-0.146l-0.118,-0.151l-0.112,-0.155l-0.106,-0.16l-0.1,-0.164l-0.093,-0.167l-0.087,-0.17l-0.08,-0.174l-0.074,-0.177l-0.067,-0.18l-0.06,-0.182l-0.052,-0.184l-0.046,-0.186l-0.039,-0.187l-0.031,-0.189l-0.024,-0.19l-0.017,-0.191l-0.01,-0.192l-0.002,-0.191l0.005,-0.192l0.013,-0.191l0.02,-0.19l0.027,-0.19l0.034,-0.188l0.042,-0.187l0.048,-0.186l0.056,-0.183l0.063,-0.181l0.069,-0.178l0.077,-0.176l0.083,-0.173l0.089,-0.169l0.096,-0.166l0.103,-0.162l0.108,-0.157l0.114,-0.154l0.121,-0.149l0.125,-0.145l0.132,-0.139l0.136,-0.135l0.142,-0.129l0.146,-0.123l0.151,-0.118l0.155,-0.112l0.16,-0.106l0.168,-0.107l0.199,-0.123l0.201,-0.12l0.203,-0.118l0.202,-0.114l0.204,-0.111l0.205,-0.108l0.206,-0.105l0.208,-0.102l0.208,-0.099l0.209,-0.097l0.209,-0.093l0.211,-0.091l0.211,-0.088l0.213,-0.085l0.214,-0.083l0.211,-0.078l0.213,-0.077l0.216,-0.074l0.217,-0.072l0.215,-0.068l0.215,-0.066l0.216,-0.063l0.219,-0.061l0.218,-0.058l0.216,-0.055l0.217,-0.052l0.22,-0.051l0.219,-0.047l0.218,-0.045l0.221,-0.043l0.219,-0.04l0.219,-0.037l0.221,-0.035l0.22,-0.033l0.219,-0.03l0.22,-0.027l0.222,-0.026l0.219,-0.022l0.221,-0.021l0.221,-0.018l0.22,-0.015l0.221,-0.014l0.22,-0.011l0.222,-0.008l0.219,-0.006l0.22,-0.004l0.22,-0.002l0.22,0.001Z"
     style="fill:#333333"
     id="path9780" /><circle
     cx="81.765"
     cy="50.694"
     r="7.5"
     style="fill:#333333"
     id="circle9782" /><path
     d="M88.57,73.214l0.313,0.028l0.311,0.048l0.306,0.067l0.302,0.087l0.296,0.105l0.289,0.124l0.28,0.141l0.271,0.159l0.261,0.176l0.249,0.192l0.236,0.206l0.223,0.222l0.209,0.234l0.193,0.248l0.178,0.259l0.16,0.27l0.144,0.279l0.126,0.288l0.107,0.295l0.089,0.301l0.07,0.307l0.05,0.31l0.031,0.312l0.011,0.314l-0.009,0.314l-0.028,0.313l-0.048,0.311l-0.067,0.306l-0.087,0.302l-0.105,0.296l-0.124,0.289l-0.141,0.28l-0.159,0.271l-0.176,0.261l-0.192,0.249l-0.206,0.236l-0.172,0.185l-0.184,0.195l-0.186,0.194l-0.186,0.192l-0.188,0.192l-0.187,0.189l-0.189,0.187l-0.191,0.187l-0.19,0.185l-0.192,0.184l-0.192,0.181l-0.194,0.181l-0.194,0.179l-0.195,0.177l-0.196,0.176l-0.197,0.175l-0.198,0.172l-0.198,0.172l-0.2,0.17l-0.201,0.169l-0.2,0.167l-0.202,0.165l-0.203,0.164l-0.203,0.162l-0.204,0.161l-0.205,0.16l-0.205,0.158l-0.206,0.156l-0.208,0.155l-0.208,0.153l-0.208,0.152l-0.21,0.15l-0.211,0.15l-0.21,0.147l-0.212,0.145l-0.213,0.145l-0.212,0.142l-0.213,0.141l-0.215,0.14l-0.215,0.138l-0.216,0.137l-0.216,0.134l-0.216,0.134l-0.219,0.132l-0.217,0.13l-0.22,0.13l-0.219,0.127l-0.22,0.125l-0.221,0.125l-0.221,0.122l-0.222,0.122l-0.222,0.119l-0.223,0.118l-0.224,0.117l-0.224,0.115l-0.225,0.114l-0.225,0.111l-0.225,0.11l-0.227,0.11l-0.228,0.107l-0.226,0.106l-0.227,0.104l-0.229,0.103l-0.229,0.1l-0.228,0.1l-0.231,0.098l-0.229,0.096l-0.23,0.095l-0.232,0.093l-0.233,0.092l-0.231,0.09l-0.232,0.089l-0.233,0.087l-0.233,0.085l-0.233,0.084l-0.235,0.083l-0.235,0.081l-0.234,0.079l-0.235,0.078l-0.234,0.076l-0.237,0.075l-0.237,0.073l-0.236,0.071l-0.236,0.07l-0.237,0.068l-0.238,0.067l-0.239,0.066l-0.238,0.063l-0.239,0.063l-0.238,0.06l-0.238,0.059l-0.241,0.057l-0.239,0.056l-0.24,0.055l-0.24,0.052l-0.239,0.051l-0.242,0.05l-0.242,0.048l-0.24,0.046l-0.24,0.045l-0.241,0.043l-0.243,0.043l-0.243,0.04l-0.241,0.038l-0.241,0.037l-0.244,0.036l-0.243,0.034l-0.24,0.032l-0.244,0.031l-0.244,0.029l-0.242,0.028l-0.243,0.026l-0.244,0.025l-0.245,0.023l-0.243,0.021l-0.242,0.02l-0.243,0.018l-0.245,0.017l-0.245,0.015l-0.243,0.013l-0.244,0.012l-0.245,0.011l-0.245,0.009l-0.243,0.007l-0.244,0.006l-0.245,0.004l-0.244,0.002l-0.243,0.001l-0.245,0l-0.246,-0.002l-0.243,-0.004l-0.244,-0.005l-0.245,-0.007l-0.245,-0.009l-0.243,-0.01l-0.244,-0.011l-0.245,-0.013l-0.243,-0.015l-0.243,-0.016l-0.245,-0.018l-0.245,-0.02l-0.242,-0.021l-0.243,-0.022l-0.245,-0.024l-0.244,-0.026l-0.242,-0.027l-0.242,-0.029l-0.244,-0.03l-0.242,-0.032l-0.244,-0.034l-0.243,-0.035l-0.24,-0.037l-0.243,-0.038l-0.243,-0.04l-0.241,-0.041l-0.241,-0.043l-0.242,-0.045l-0.242,-0.046l-0.24,-0.048l-0.24,-0.049l-0.242,-0.051l-0.241,-0.052l-0.239,-0.054l-0.239,-0.055l-0.239,-0.057l-0.24,-0.059l-0.24,-0.06l-0.239,-0.063l-0.238,-0.063l-0.237,-0.064l-0.237,-0.067l-0.238,-0.068l-0.238,-0.07l-0.236,-0.071l-0.237,-0.073l-0.236,-0.074l-0.235,-0.076l-0.236,-0.077l-0.236,-0.08l-0.234,-0.08l-0.233,-0.082l-0.235,-0.084l-0.232,-0.085l-0.234,-0.087l-0.234,-0.089l-0.231,-0.089l-0.231,-0.092l-0.232,-0.093l-0.232,-0.095l-0.228,-0.095l-0.231,-0.098l-0.23,-0.1l-0.228,-0.101l-0.23,-0.103l-0.229,-0.104l-0.226,-0.105l-0.227,-0.107l-0.227,-0.109l-0.225,-0.11l-0.225,-0.111l-0.226,-0.114l-0.225,-0.115l-0.225,-0.117l-0.222,-0.118l-0.222,-0.119l-0.223,-0.122l-0.221,-0.122l-0.22,-0.124l-0.221,-0.126l-0.221,-0.127l-0.22,-0.13l-0.218,-0.13l-0.217,-0.131l-0.218,-0.134l-0.216,-0.135l-0.215,-0.136l-0.216,-0.139l-0.215,-0.14l-0.215,-0.141l-0.213,-0.143l-0.212,-0.143l-0.212,-0.147l-0.211,-0.147l-0.211,-0.149l-0.21,-0.151l-0.209,-0.151l-0.208,-0.153l-0.208,-0.156l-0.207,-0.157l-0.205,-0.156l-0.205,-0.16l-0.206,-0.162l-0.203,-0.162l-0.203,-0.165l-0.203,-0.166l-0.201,-0.167l-0.201,-0.169l-0.199,-0.169l-0.199,-0.172l-0.199,-0.174l-0.197,-0.175l-0.196,-0.175l-0.195,-0.178l-0.195,-0.179l-0.194,-0.182l-0.193,-0.181l-0.192,-0.185l-0.191,-0.185l-0.191,-0.187l-0.189,-0.188l-0.188,-0.19l-0.188,-0.191l-0.186,-0.192l-0.187,-0.195l-0.184,-0.196l-0.172,-0.184l-0.207,-0.236l-0.191,-0.249l-0.176,-0.26l-0.159,-0.271l-0.141,-0.281l-0.124,-0.288l-0.106,-0.296l-0.086,-0.302l-0.068,-0.307l-0.048,-0.31l-0.028,-0.313l-0.009,-0.314l0.011,-0.314l0.031,-0.313l0.05,-0.31l0.069,-0.306l0.089,-0.301l0.107,-0.296l0.126,-0.287l0.144,-0.28l0.161,-0.27l0.177,-0.259l0.193,-0.247l0.209,-0.235l0.223,-0.222l0.236,-0.206l0.249,-0.192l0.26,-0.176l0.271,-0.159l0.281,-0.141l0.288,-0.124l0.296,-0.106l0.302,-0.086l0.307,-0.068l0.31,-0.048l0.313,-0.028l0.314,-0.009l0.314,0.011l0.313,0.031l0.31,0.05l0.306,0.069l0.301,0.089l0.296,0.108l0.288,0.125l0.279,0.144l0.27,0.161l0.259,0.177l0.247,0.194l0.235,0.208l0.222,0.223l0.152,0.164l0.142,0.15l0.141,0.147l0.142,0.147l0.144,0.147l0.144,0.145l0.144,0.143l0.144,0.141l0.146,0.142l0.145,0.139l0.147,0.139l0.147,0.137l0.147,0.135l0.149,0.135l0.149,0.134l0.15,0.133l0.148,0.13l0.151,0.13l0.151,0.129l0.151,0.127l0.153,0.126l0.152,0.125l0.152,0.123l0.154,0.123l0.154,0.121l0.154,0.12l0.156,0.12l0.155,0.117l0.156,0.116l0.157,0.116l0.157,0.114l0.157,0.113l0.157,0.111l0.159,0.11l0.158,0.109l0.16,0.109l0.16,0.107l0.159,0.105l0.16,0.104l0.161,0.103l0.162,0.102l0.162,0.102l0.161,0.099l0.164,0.099l0.163,0.097l0.163,0.096l0.163,0.095l0.164,0.093l0.165,0.093l0.166,0.091l0.164,0.09l0.167,0.089l0.166,0.089l0.166,0.086l0.166,0.085l0.167,0.084l0.168,0.083l0.168,0.082l0.168,0.081l0.169,0.079l0.17,0.079l0.168,0.077l0.169,0.076l0.17,0.075l0.17,0.073l0.169,0.072l0.173,0.072l0.171,0.07l0.17,0.069l0.172,0.068l0.173,0.067l0.172,0.065l0.171,0.064l0.174,0.063l0.172,0.062l0.174,0.061l0.174,0.06l0.173,0.058l0.173,0.057l0.175,0.056l0.175,0.055l0.174,0.054l0.176,0.053l0.174,0.051l0.175,0.05l0.176,0.049l0.177,0.048l0.177,0.048l0.175,0.045l0.175,0.044l0.176,0.043l0.178,0.043l0.177,0.041l0.178,0.04l0.177,0.038l0.176,0.037l0.178,0.037l0.179,0.035l0.177,0.034l0.177,0.033l0.179,0.032l0.179,0.03l0.178,0.03l0.177,0.028l0.182,0.027l0.177,0.026l0.178,0.024l0.18,0.024l0.178,0.022l0.18,0.022l0.18,0.02l0.179,0.019l0.178,0.017l0.181,0.017l0.18,0.016l0.179,0.014l0.178,0.013l0.181,0.012l0.181,0.011l0.179,0.01l0.18,0.008l0.181,0.008l0.179,0.006l0.179,0.005l0.181,0.004l0.181,0.002l0.179,0.002l0.179,0l0.181,0l0.181,-0.002l0.179,-0.003l0.18,-0.005l0.181,-0.005l0.179,-0.006l0.179,-0.008l0.181,-0.009l0.181,-0.01l0.178,-0.011l0.179,-0.012l0.181,-0.014l0.18,-0.015l0.18,-0.015l0.179,-0.017l0.178,-0.018l0.18,-0.019l0.181,-0.021l0.178,-0.021l0.178,-0.023l0.181,-0.024l0.178,-0.025l0.178,-0.026l0.179,-0.028l0.18,-0.028l0.177,-0.03l0.177,-0.03l0.179,-0.033l0.179,-0.033l0.179,-0.034l0.176,-0.035l0.177,-0.037l0.178,-0.038l0.178,-0.039l0.176,-0.04l0.178,-0.041l0.176,-0.042l0.177,-0.044l0.177,-0.045l0.175,-0.046l0.177,-0.047l0.174,-0.048l0.175,-0.049l0.176,-0.051l0.176,-0.052l0.175,-0.053l0.174,-0.053l0.174,-0.055l0.174,-0.057l0.175,-0.058l0.174,-0.058l0.173,-0.06l0.172,-0.061l0.174,-0.062l0.173,-0.064l0.171,-0.064l0.173,-0.066l0.173,-0.067l0.17,-0.067l0.171,-0.069l0.171,-0.071l0.171,-0.071l0.17,-0.073l0.171,-0.074l0.17,-0.075l0.168,-0.076l0.17,-0.077l0.169,-0.079l0.168,-0.079l0.167,-0.081l0.169,-0.082l0.167,-0.084l0.167,-0.083l0.167,-0.086l0.165,-0.087l0.167,-0.088l0.166,-0.089l0.164,-0.09l0.166,-0.092l0.163,-0.092l0.165,-0.094l0.164,-0.095l0.163,-0.096l0.163,-0.097l0.162,-0.098l0.162,-0.101l0.162,-0.101l0.161,-0.101l0.161,-0.104l0.159,-0.104l0.161,-0.106l0.16,-0.107l0.158,-0.107l0.159,-0.11l0.158,-0.11l0.157,-0.112l0.157,-0.112l0.157,-0.114l0.156,-0.116l0.155,-0.116l0.156,-0.117l0.155,-0.119l0.154,-0.12l0.154,-0.121l0.154,-0.123l0.152,-0.123l0.152,-0.125l0.152,-0.127l0.151,-0.126l0.15,-0.128l0.15,-0.13l0.15,-0.131l0.149,-0.132l0.148,-0.133l0.149,-0.135l0.146,-0.135l0.148,-0.138l0.146,-0.138l0.145,-0.139l0.146,-0.141l0.143,-0.141l0.145,-0.144l0.143,-0.144l0.142,-0.145l0.143,-0.147l0.141,-0.148l0.141,-0.15l0.151,-0.162l0.222,-0.223l0.234,-0.209l0.248,-0.193l0.259,-0.178l0.27,-0.16l0.279,-0.144l0.288,-0.126l0.295,-0.107l0.301,-0.089l0.307,-0.07l0.31,-0.05l0.312,-0.031l0.314,-0.011l0.314,0.009Z"
     style="fill:#333333"
     id="path9784" /></svg>