<?xml version="1.0" encoding="UTF-8" standalone="no"?>
<svg
   xmlns:dc="http://purl.org/dc/elements/1.1/"
   xmlns:cc="http://creativecommons.org/ns#"
   xmlns:rdf="http://www.w3.org/1999/02/22-rdf-syntax-ns#"
   xmlns:svg="http://www.w3.org/2000/svg"
   xmlns="http://www.w3.org/2000/svg"
   xmlns:sodipodi="http://sodipodi.sourceforge.net/DTD/sodipodi-0.dtd"
   xmlns:inkscape="http://www.inkscape.org/namespaces/inkscape"
   width="100%"
   height="100%"
   viewBox="0 0 128 128"
   version="1.1"
   xml:space="preserve"
   style="fill-rule:evenodd;clip-rule:evenodd;stroke-linejoin:round;stroke-miterlimit:1.41421;"
   id="svg3361"
   inkscape:version="0.92.2 (5c3e80d, 2017-08-06)"
   sodipodi:docname="3d_sound_me.svg"><metadata
     id="metadata3383"><rdf:RDF><cc:Work
         rdf:about=""><dc:format>image/svg+xml</dc:format><dc:type
           rdf:resource="http://purl.org/dc/dcmitype/StillImage" /></cc:Work></rdf:RDF></metadata><defs
     id="defs3381" /><sodipodi:namedview
     pagecolor="#ffffff"
     bordercolor="#666666"
     borderopacity="1"
     objecttolerance="10"
     gridtolerance="10"
     guidetolerance="10"
     inkscape:pageopacity="0"
     inkscape:pageshadow="2"
     inkscape:window-width="1920"
     inkscape:window-height="1017"
     id="namedview3379"
     showgrid="false"
     inkscape:zoom="5.2149125"
     inkscape:cx="-33.387311"
     inkscape:cy="71.714335"
     inkscape:window-x="-8"
     inkscape:window-y="-8"
     inkscape:window-maximized="1"
     inkscape:current-layer="Ebene_4_Kopie" /><g
     transform="translate(0,-1)"
     id="g3363"><g
       id="_3d_sound_me"
       transform="translate(0,1)"
       inkscape:label="_3d_sound_me"><rect
         x="0"
         y="0"
         width="128"
         height="128"
         style="fill:none"
         id="rect3366" /><g
         id="Ebene_4_Kopie"><path
           d="M 58.789,104.282 V 76.155 c 0,-3.466 1.797,-6.683 4.746,-8.505 0.16,-0.099 0.322,-0.193 0.486,-0.282 l 1.027,-0.58 c -0.034,-0.017 -0.069,-0.029 -0.103,-0.046 -1.795,-0.906 -7.521,-5.125 -6.706,-6.005 4.153,-4.499 5.755,-5.678 7.833,-10.778 l 0.654,-1.614 1.461,-0.762 c 1.223,-0.636 2.853,-3.06 3.729,-7.052 0.503,-2.279 0.608,-4.581 0.286,-6.314 -0.236,-1.239 -0.613,-1.896 -0.895,-2.093 L 69.604,30.91 69.34,28.699 C 68.022,17.027 61.342,9 49.424,9 37.497,9 30.819,17.023 29.484,28.687 l -0.257,2.226 -1.728,1.211 c -0.277,0.196 -0.659,0.847 -0.892,2.092 -0.32,1.736 -0.219,4.038 0.285,6.317 0.888,4 2.512,6.423 3.733,7.053 l 1.477,0.759 0.663,1.623 c 2.073,5.1 3.845,6.45 7.825,10.766 1.067,1.157 -4.901,5.096 -6.701,6.007 -1.369,0.687 -2.756,1.076 -4.219,1.491 C 25.6,69.371 20.986,70.671 15.383,79.204 11.176,85.627 9.241,107.667 9,119 h 65.124 l -10.392,-6.091 c -3.062,-1.795 -4.943,-5.078 -4.943,-8.627 z"
           style="fill:#7289da;fill-opacity:1;fill-rule:nonzero"
           id="path3369"
           inkscape:connector-curvature="0" /><g
           id="g3371"><path
             d="M 68.794,76.166 93.891,90.828 V 119 L 68.794,104.351 Z"
             style="fill:#a9aaac;fill-opacity:1;fill-rule:nonzero"
             id="path3373"
             inkscape:connector-curvature="0" /><path
             d="M 119,76.166 93.891,90.828 V 119 L 119,104.351 Z"
             style="fill:#808080;fill-rule:nonzero"
             id="path3375"
             inkscape:connector-curvature="0" /><path
             d="M 119,76.17 93.889,61.99 68.794,76.157 93.918,90.845 Z"
             style="fill:#999999;fill-rule:nonzero"
             id="path3377"
             inkscape:connector-curvature="0" /></g></g></g></g></svg>