<?xml version="1.0" encoding="UTF-8" standalone="no"?>
<svg
   xmlns:dc="http://purl.org/dc/elements/1.1/"
   xmlns:cc="http://creativecommons.org/ns#"
   xmlns:rdf="http://www.w3.org/1999/02/22-rdf-syntax-ns#"
   xmlns:svg="http://www.w3.org/2000/svg"
   xmlns="http://www.w3.org/2000/svg"
   xmlns:sodipodi="http://sodipodi.sourceforge.net/DTD/sodipodi-0.dtd"
   xmlns:inkscape="http://www.inkscape.org/namespaces/inkscape"
   width="100%"
   height="100%"
   viewBox="0 0 128 128"
   version="1.1"
   xml:space="preserve"
   style="fill-rule:evenodd;clip-rule:evenodd;stroke-linejoin:round;stroke-miterlimit:1.41421;"
   id="svg3423"
   inkscape:version="0.92.2 (5c3e80d, 2017-08-06)"
   sodipodi:docname="about.svg"><metadata
     id="metadata3444"><rdf:RDF><cc:Work
         rdf:about=""><dc:format>image/svg+xml</dc:format><dc:type
           rdf:resource="http://purl.org/dc/dcmitype/StillImage" /></cc:Work></rdf:RDF></metadata><defs
     id="defs3442" /><sodipodi:namedview
     pagecolor="#ffffff"
     bordercolor="#666666"
     borderopacity="1"
     objecttolerance="10"
     gridtolerance="10"
     guidetolerance="10"
     inkscape:pageopacity="0"
     inkscape:pageshadow="2"
     inkscape:window-width="1920"
     inkscape:window-height="1017"
     id="namedview3440"
     showgrid="false"
     inkscape:zoom="4"
     inkscape:cx="1.268415"
     inkscape:cy="66.384649"
     inkscape:window-x="-8"
     inkscape:window-y="-8"
     inkscape:window-maximized="1"
     inkscape:current-layer="g3430" /><g
     transform="matrix(1,0,0,1,0,-481)"
     id="g3425"><g
       id="about"
       transform="matrix(1,0,0,1.09402,0,43.3932)"><rect
         x="0"
         y="400"
         width="128"
         height="117"
         style="fill:none;"
         id="rect3428" /><g
         transform="matrix(1,0,0,0.914062,0,400)"
         id="g3430"><path
           style="fill:#7289da;fill-rule:nonzero;fill-opacity:1"
           d="M 24 9.0019531 C 15.716 9.0019531 9 15.717936 9 24.001953 L 9 104.00195 C 9 112.28597 15.716 119.00195 24 119.00195 L 104 119.00195 C 112.284 119.00195 119 112.28597 119 104.00195 L 119 24.001953 C 119 15.717936 112.284 9.0019531 104 9.0019531 L 24 9.0019531 z M 57.646484 21.220703 L 70.353516 21.220703 C 71.935516 21.220703 73.274281 21.773482 74.363281 22.896484 C 75.450281 24.012487 76 25.37781 76 27.007812 L 76 39.423828 C 76 41.054832 75.450281 42.432201 74.363281 43.533203 C 73.274281 44.660206 71.935516 45.220703 70.353516 45.220703 L 57.646484 45.220703 C 56.064484 45.220703 54.721766 44.641002 53.634766 43.5 C 52.546766 42.350998 52 41.000831 52 39.423828 L 52 27.007812 C 52 25.37781 52.546766 24.012487 53.634766 22.896484 C 54.721766 21.772482 56.064484 21.220703 57.646484 21.220703 z M 57.646484 56.501953 L 70.353516 56.501953 C 71.935516 56.501953 73.274281 57.035045 74.363281 58.123047 C 75.450281 59.203049 76 60.525512 76 62.103516 L 76 102.89062 C 76 104.46863 75.450281 105.80119 74.363281 106.86719 C 73.274281 107.95819 71.935516 108.50195 70.353516 108.50195 L 57.646484 108.50195 C 56.064484 108.50195 54.721766 107.94089 53.634766 106.83789 C 52.546766 105.72589 52 104.41463 52 102.89062 L 52 62.103516 C 52 60.525512 52.546766 59.203049 53.634766 58.123047 C 54.721766 57.035045 56.064484 56.501953 57.646484 56.501953 z "
           transform="matrix(1,0,0,0.99999789,0,-0.0012)"
           id="path3432" /></g><g
         transform="matrix(1,0,0,0.914062,0,400)"
         id="g3434" /></g></g></svg>