<?xml version="1.0" encoding="UTF-8" standalone="no"?>
<svg
   xmlns:dc="http://purl.org/dc/elements/1.1/"
   xmlns:cc="http://creativecommons.org/ns#"
   xmlns:rdf="http://www.w3.org/1999/02/22-rdf-syntax-ns#"
   xmlns:svg="http://www.w3.org/2000/svg"
   xmlns="http://www.w3.org/2000/svg"
   xmlns:sodipodi="http://sodipodi.sourceforge.net/DTD/sodipodi-0.dtd"
   xmlns:inkscape="http://www.inkscape.org/namespaces/inkscape"
   width="100%"
   height="100%"
   viewBox="0 0 128 128"
   version="1.1"
   xml:space="preserve"
   style="fill-rule:evenodd;clip-rule:evenodd;stroke-linejoin:round;stroke-miterlimit:1.41421;"
   id="svg15332"
   inkscape:version="0.92.2 (5c3e80d, 2017-08-06)"
   sodipodi:docname="arrow_up.svg"><metadata
     id="metadata15355"><rdf:RDF><cc:Work
         rdf:about=""><dc:format>image/svg+xml</dc:format><dc:type
           rdf:resource="http://purl.org/dc/dcmitype/StillImage" /><dc:title></dc:title></cc:Work></rdf:RDF></metadata><defs
     id="defs15353" /><sodipodi:namedview
     pagecolor="#ffffff"
     bordercolor="#666666"
     borderopacity="1"
     objecttolerance="10"
     gridtolerance="10"
     guidetolerance="10"
     inkscape:pageopacity="0"
     inkscape:pageshadow="2"
     inkscape:window-width="1920"
     inkscape:window-height="1017"
     id="namedview15351"
     showgrid="false"
     inkscape:zoom="2.8284271"
     inkscape:cx="129.04013"
     inkscape:cy="98.562352"
     inkscape:window-x="-8"
     inkscape:window-y="-8"
     inkscape:window-maximized="1"
     inkscape:current-layer="message_info"
     inkscape:object-paths="true"
     inkscape:snap-bbox="true"
     inkscape:bbox-nodes="false"
     inkscape:snap-global="true"
     inkscape:snap-nodes="true"
     inkscape:snap-others="false"
     inkscape:bbox-paths="true"
     inkscape:snap-intersection-paths="true"
     inkscape:snap-smooth-nodes="true"
     inkscape:object-nodes="true" /><g
     transform="matrix(1,0,0,1,-2688,-800)"
     id="g15334"><g
       id="message_info"
       transform="matrix(1,0,0,1.09402,2688,362.393)"><rect
         x="0"
         y="400"
         width="128"
         height="117"
         style="fill:none;"
         id="rect15337" /><g
         transform="matrix(1.3225685,0,0,1.2089096,-20.644381,362.61633)"
         id="g15339"><path
           d="M 64.003,32 C 37.768,32 16.5,53.268 16.5,79.499 16.5,105.733 37.768,127 64.003,127 90.233,127 111.5,105.733 111.5,79.499 111.5,53.268 90.233,32 64.003,32 Z"
           style="fill:#7289da;fill-opacity:1;fill-rule:nonzero"
           id="path15341"
           inkscape:connector-curvature="0" /></g><g
         transform="matrix(1.3225685,0,0,1.2089096,-20.644381,339.56343)"
         id="g15343" /><g
         transform="matrix(1.0791963,0,0,0.98645228,-5.0685603,460.62654)"
         id="g15347"
         style="fill:#00ff00"><path
           style="fill:#00ff00;fill-rule:nonzero;stroke-width:1.32256997"
           d="M 56.972656 16.076172 C 56.9137 16.076172 56.85708 16.082437 56.798828 16.083984 C 56.752124 16.083844 56.707285 16.07913 56.660156 16.080078 C 55.132042 16.096913 53.800577 16.674032 52.669922 17.804688 L 21.507812 48.966797 C 20.418306 50.056304 19.851449 51.377507 19.804688 52.935547 C 19.759797 54.484234 20.285056 55.814353 21.386719 56.916016 L 31.322266 66.849609 C 32.419251 67.946596 33.733414 68.478626 35.279297 68.458984 C 36.798058 68.440279 38.138189 67.871577 39.275391 66.734375 L 42.384766 63.628906 L 51.435547 54.578125 L 51.435547 111.47266 C 51.435547 113.01345 51.970427 114.34766 53.039062 115.48242 C 54.102408 116.60925 55.41467 117.17773 56.972656 117.17773 L 71.021484 117.17773 C 72.572857 117.17773 73.877816 116.62457 74.957031 115.51758 C 76.017731 114.43042 76.564453 113.0809 76.564453 111.47266 L 76.566406 61.439453 L 76.566406 21.763672 C 76.566406 20.164684 76.019684 18.816423 74.958984 17.722656 C 73.878447 16.615664 72.57481 16.076172 71.023438 16.076172 L 56.972656 16.076172 z "
           transform="matrix(0.92661548,0,0,0.92661357,4.6966064,-61.460098)"
           id="path15349" /><path
           style="fill:#ffffff;fill-rule:nonzero;stroke-width:1.32256997"
           d="M 56.972656 16.076172 C 56.9137 16.076172 56.85708 16.082437 56.798828 16.083984 C 56.752124 16.083844 56.707285 16.07913 56.660156 16.080078 C 55.132042 16.096913 53.800577 16.674032 52.669922 17.804688 L 21.507812 48.966797 C 20.418309 50.056304 19.851446 51.377507 19.804688 52.935547 C 19.759797 54.484234 20.285056 55.814353 21.386719 56.916016 L 31.322266 66.849609 C 32.419251 67.946596 33.733414 68.478626 35.279297 68.458984 C 36.798058 68.440279 38.138189 67.871577 39.275391 66.734375 L 42.384766 63.628906 L 51.433594 54.580078 L 51.433594 61.439453 L 51.435547 111.47266 C 51.435547 111.66525 51.444225 111.85486 51.460938 112.04102 C 51.576037 113.40146 52.109615 114.56094 53.042969 115.51758 C 53.815792 116.31029 54.706815 116.81411 55.71875 117.03906 C 55.940365 117.08883 56.166767 117.12823 56.400391 117.15039 C 56.56119 117.16554 56.726068 117.17158 56.892578 117.17383 C 56.91968 117.17418 56.945403 117.17773 56.972656 117.17773 C 56.974644 117.17774 56.976527 117.17773 56.978516 117.17773 L 71.021484 117.17773 C 71.050707 117.17773 71.078374 117.17422 71.107422 117.17383 C 71.273932 117.17158 71.43881 117.16554 71.599609 117.15039 C 71.782679 117.13302 71.962975 117.10854 72.138672 117.07422 C 72.187133 117.06484 72.233342 117.04971 72.28125 117.03906 C 73.293185 116.81411 74.184208 116.31029 74.957031 115.51758 C 75.890385 114.56094 76.423963 113.40146 76.539062 112.04102 C 76.555775 111.85486 76.564453 111.66525 76.564453 111.47266 L 76.566406 61.439453 L 76.566406 54.580078 L 85.615234 63.628906 L 88.724609 66.734375 C 89.861811 67.871577 91.201942 68.440284 92.720703 68.458984 C 94.266586 68.478626 95.580749 67.946596 96.677734 66.849609 L 106.61328 56.916016 C 107.71494 55.814353 108.2402 54.484234 108.19531 52.935547 C 108.14855 51.377507 107.58169 50.056304 106.49219 48.966797 L 75.330078 17.804688 C 74.199423 16.674032 72.867958 16.096918 71.339844 16.080078 C 71.292712 16.079078 71.247872 16.083844 71.201172 16.083984 C 71.142798 16.082381 71.086435 16.076207 71.027344 16.076172 L 71.023438 16.076172 L 56.972656 16.076172 z "
           transform="matrix(0.92661548,0,0,0.92661357,4.6966064,-61.460098)"
           id="path11313" /></g><g
         id="g11310"
         transform="matrix(1.0791963,0,0,0.98645228,-14.594735,458.94188)"
         style="fill:#ff0000" /><g
         style="fill:#00ff00"
         id="g11319"
         transform="matrix(-1.0791963,0,0,0.98645228,138.54121,464.96918)" /><g
         style="fill:#ff0000"
         id="g11325"
         transform="matrix(-1.0791963,0,0,0.98645228,133.06856,460.62655)" /></g></g></svg>