<?xml version="1.0" encoding="UTF-8" standalone="no"?>
<svg
   xmlns:dc="http://purl.org/dc/elements/1.1/"
   xmlns:cc="http://creativecommons.org/ns#"
   xmlns:rdf="http://www.w3.org/1999/02/22-rdf-syntax-ns#"
   xmlns:svg="http://www.w3.org/2000/svg"
   xmlns="http://www.w3.org/2000/svg"
   xmlns:sodipodi="http://sodipodi.sourceforge.net/DTD/sodipodi-0.dtd"
   xmlns:inkscape="http://www.inkscape.org/namespaces/inkscape"
   width="100%"
   height="100%"
   viewBox="0 0 128 128"
   version="1.1"
   xml:space="preserve"
   style="fill-rule:evenodd;clip-rule:evenodd;stroke-linejoin:round;stroke-miterlimit:1.41421;"
   id="svg11029"
   inkscape:version="0.92.2 (5c3e80d, 2017-08-06)"
   sodipodi:docname="bookmark_add_folder.svg"><metadata
     id="metadata11052"><rdf:RDF><cc:Work
         rdf:about=""><dc:format>image/svg+xml</dc:format><dc:type
           rdf:resource="http://purl.org/dc/dcmitype/StillImage" /></cc:Work></rdf:RDF></metadata><defs
     id="defs11050" /><sodipodi:namedview
     pagecolor="#ffffff"
     bordercolor="#666666"
     borderopacity="1"
     objecttolerance="10"
     gridtolerance="10"
     guidetolerance="10"
     inkscape:pageopacity="0"
     inkscape:pageshadow="2"
     inkscape:window-width="1920"
     inkscape:window-height="1017"
     id="namedview11048"
     showgrid="false"
     inkscape:zoom="1.84375"
     inkscape:cx="-54.508475"
     inkscape:cy="64"
     inkscape:window-x="-8"
     inkscape:window-y="-8"
     inkscape:window-maximized="1"
     inkscape:current-layer="g11036" /><g
     transform="matrix(1,0,0,1,-384,-480)"
     id="g11031"><g
       id="bookmark_add_folder"
       transform="matrix(1,0,0,1.37634,384,294.194)"><rect
         x="0"
         y="135"
         width="128"
         height="93"
         style="fill:none;"
         id="rect11034" /><g
         transform="matrix(1,0,0,0.726562,0,132.347)"
         id="g11036"><path
           d="M78.92,30.914L64.859,30.914L64.859,24.898C64.859,20.152 61.012,16.304 56.265,16.304L17.594,16.304C12.848,16.305 9,20.152 9,24.898L9,103.1C9,107.846 12.848,111.694 17.594,111.694L78.92,111.694L78.92,30.914Z"
           style="fill:#7289da;fill-rule:nonzero;fill-opacity:1"
           id="path11038" /></g><g
         transform="matrix(1,0,0,0.726562,0,132.347)"
         id="g11040"><path
           d="M110.406,30.914L88.922,30.914L88.922,119L96.313,111.695L103.963,104.134L111.528,111.613L119,119L119,103.102L119,45.523L119,44.664L119,39.508C119,34.762 115.153,30.914 110.406,30.914Z"
           style="fill:#cccccc;fill-rule:nonzero"
           id="path11042" /></g><g
         transform="matrix(1,0,0,0.726562,0,132.347)"
         id="g11044"><path
           d="M63.688,77.193L49.626,77.193L49.626,91.254C49.626,92.041 49.351,92.715 48.812,93.254C48.273,93.793 47.605,94.067 46.815,94.067L41.19,94.067C40.399,94.067 39.729,93.782 39.189,93.234C38.649,92.683 38.374,92.022 38.374,91.255L38.374,77.193L24.314,77.193C23.523,77.193 22.852,76.906 22.313,76.355C21.774,75.806 21.5,75.148 21.5,74.38L21.5,68.756C21.5,67.965 21.774,67.296 22.313,66.754C22.852,66.218 23.523,65.94 24.314,65.94L38.375,65.94L38.375,51.88C38.375,51.089 38.65,50.418 39.19,49.879C39.73,49.341 40.4,49.066 41.191,49.066L46.815,49.066C47.605,49.066 48.273,49.34 48.812,49.879C49.351,50.418 49.626,51.089 49.626,51.88L49.626,65.94L63.688,65.94C64.475,65.94 65.149,66.218 65.688,66.754C66.227,67.296 66.501,67.965 66.501,68.756L66.501,74.38C66.501,75.148 66.228,75.806 65.688,76.355C65.148,76.906 64.475,77.193 63.688,77.193Z"
           style="fill:#e6e6e6;fill-rule:nonzero"
           id="path11046" /></g></g></g></svg>