<?xml version="1.0" encoding="UTF-8" standalone="no"?>
<svg
   xmlns:dc="http://purl.org/dc/elements/1.1/"
   xmlns:cc="http://creativecommons.org/ns#"
   xmlns:rdf="http://www.w3.org/1999/02/22-rdf-syntax-ns#"
   xmlns:svg="http://www.w3.org/2000/svg"
   xmlns="http://www.w3.org/2000/svg"
   xmlns:sodipodi="http://sodipodi.sourceforge.net/DTD/sodipodi-0.dtd"
   xmlns:inkscape="http://www.inkscape.org/namespaces/inkscape"
   width="100%"
   height="100%"
   viewBox="0 0 128 128"
   version="1.1"
   xml:space="preserve"
   style="fill-rule:evenodd;clip-rule:evenodd;stroke-linejoin:round;stroke-miterlimit:1.41421;"
   id="svg12738"
   inkscape:version="0.92.2 (5c3e80d, 2017-08-06)"
   sodipodi:docname="bookmark_remove.svg"><metadata
     id="metadata12755"><rdf:RDF><cc:Work
         rdf:about=""><dc:format>image/svg+xml</dc:format><dc:type
           rdf:resource="http://purl.org/dc/dcmitype/StillImage" /></cc:Work></rdf:RDF></metadata><defs
     id="defs12753" /><sodipodi:namedview
     pagecolor="#ffffff"
     bordercolor="#666666"
     borderopacity="1"
     objecttolerance="10"
     gridtolerance="10"
     guidetolerance="10"
     inkscape:pageopacity="0"
     inkscape:pageshadow="2"
     inkscape:window-width="1920"
     inkscape:window-height="1017"
     id="namedview12751"
     showgrid="false"
     inkscape:zoom="1.84375"
     inkscape:cx="-54.508475"
     inkscape:cy="64"
     inkscape:window-x="-8"
     inkscape:window-y="-8"
     inkscape:window-maximized="1"
     inkscape:current-layer="svg12738" /><rect
     id="bookmark_remove"
     x="0"
     y="0"
     width="128"
     height="128"
     style="fill:none;" /><path
     d="M39.078,119l-15.037,-14.865l-15.041,14.865l0,-110l30.078,0l0,110Z"
     style="fill:#7289da;fill-rule:nonzero;fill-opacity:1"
     id="path12741" /><g
     id="g12743"><path
       d="M102.042,65.092l12.528,0c1.532,0 3.021,0.252 4.43,0.714l0,-56.806l-30.078,0l0,56.092l13.12,0Z"
       style="fill:#cccccc;fill-rule:nonzero"
       id="path12745" /><path
       d="M65.093,65.092l13.946,0l0,-56.092l-30.078,0l0,56.566c1.162,-0.303 2.367,-0.475 3.603,-0.475l12.529,0l0,0.001Z"
       style="fill:#b3b3b3;fill-rule:nonzero"
       id="path12747" /></g><path
     d="M114.57,92.427l-62.006,0c-1.246,0 -2.295,-0.439 -3.15,-1.318c-0.854,-0.876 -1.28,-1.908 -1.28,-3.11l0,-8.857c0,-1.246 0.426,-2.295 1.28,-3.15c0.854,-0.854 1.904,-1.283 3.15,-1.283l62.006,0c1.242,0 2.295,0.43 3.146,1.283c0.857,0.855 1.283,1.904 1.283,3.15l0,8.857c0,1.202 -0.426,2.234 -1.283,3.11c-0.851,0.878 -1.903,1.318 -3.146,1.318Z"
     style="fill:#c90709;fill-rule:nonzero;"
     id="path12749" /></svg>