<?xml version="1.0" encoding="UTF-8" standalone="no"?>
<svg
   xmlns:dc="http://purl.org/dc/elements/1.1/"
   xmlns:cc="http://creativecommons.org/ns#"
   xmlns:rdf="http://www.w3.org/1999/02/22-rdf-syntax-ns#"
   xmlns:svg="http://www.w3.org/2000/svg"
   xmlns="http://www.w3.org/2000/svg"
   xmlns:sodipodi="http://sodipodi.sourceforge.net/DTD/sodipodi-0.dtd"
   xmlns:inkscape="http://www.inkscape.org/namespaces/inkscape"
   width="100%"
   height="100%"
   viewBox="0 0 128 128"
   version="1.1"
   xml:space="preserve"
   style="fill-rule:evenodd;clip-rule:evenodd;stroke-linejoin:round;stroke-miterlimit:1.41421;"
   id="svg14965"
   inkscape:version="0.92.2 (5c3e80d, 2017-08-06)"
   sodipodi:docname="capture.svg"><metadata
     id="metadata14978"><rdf:RDF><cc:Work
         rdf:about=""><dc:format>image/svg+xml</dc:format><dc:type
           rdf:resource="http://purl.org/dc/dcmitype/StillImage" /></cc:Work></rdf:RDF></metadata><defs
     id="defs14976" /><sodipodi:namedview
     pagecolor="#ffffff"
     bordercolor="#666666"
     borderopacity="1"
     objecttolerance="10"
     gridtolerance="10"
     guidetolerance="10"
     inkscape:pageopacity="0"
     inkscape:pageshadow="2"
     inkscape:window-width="1920"
     inkscape:window-height="1017"
     id="namedview14974"
     showgrid="false"
     inkscape:zoom="2.6074563"
     inkscape:cx="-196.68508"
     inkscape:cy="80.175058"
     inkscape:window-x="-8"
     inkscape:window-y="-8"
     inkscape:window-maximized="1"
     inkscape:current-layer="svg14965" /><rect
     id="capture"
     x="0"
     y="0"
     width="128"
     height="128"
     style="fill:none;" /><path
     d="M13.654,114.345c6.199,6.202 16.242,6.207 22.451,0.015l-22.466,-22.464c-6.191,6.206 -6.185,16.249 0.015,22.449Z"
     style="fill:#a9aaac;fill-rule:nonzero;fill-opacity:1"
     id="path14968" /><path
     d="M52.557,52.975l-3.305,3.306l-29.534,29.534l22.466,22.466l29.533,-29.533l3.308,-3.306c-4.953,-1.932 -9.593,-4.885 -13.588,-8.881c-3.994,-3.993 -6.948,-8.635 -8.88,-13.586Z"
     style="fill:#a9aaac;fill-rule:nonzero;fill-opacity:1"
     id="path14970" /><path
     d="M110.371,17.63c-11.509,-11.507 -30.234,-11.506 -41.743,0.001c-11.505,11.507 -11.505,30.231 0,41.738c11.509,11.507 30.232,11.507 41.741,0.001c11.507,-11.508 11.507,-30.234 0.002,-41.74Z"
     style="fill:#7289da;fill-rule:nonzero;fill-opacity:1"
     id="path14972" /></svg>