<?xml version="1.0" encoding="UTF-8" standalone="no"?>
<svg
   xmlns:dc="http://purl.org/dc/elements/1.1/"
   xmlns:cc="http://creativecommons.org/ns#"
   xmlns:rdf="http://www.w3.org/1999/02/22-rdf-syntax-ns#"
   xmlns:svg="http://www.w3.org/2000/svg"
   xmlns="http://www.w3.org/2000/svg"
   xmlns:sodipodi="http://sodipodi.sourceforge.net/DTD/sodipodi-0.dtd"
   xmlns:inkscape="http://www.inkscape.org/namespaces/inkscape"
   width="100%"
   height="100%"
   viewBox="0 0 128 128"
   version="1.1"
   xml:space="preserve"
   style="fill-rule:evenodd;clip-rule:evenodd;stroke-linejoin:round;stroke-miterlimit:1.41421;"
   id="svg6388"
   inkscape:version="0.92.2 (5c3e80d, 2017-08-06)"
   sodipodi:docname="channel_create_sub.svg"><metadata
     id="metadata6411"><rdf:RDF><cc:Work
         rdf:about=""><dc:format>image/svg+xml</dc:format><dc:type
           rdf:resource="http://purl.org/dc/dcmitype/StillImage" /></cc:Work></rdf:RDF></metadata><defs
     id="defs6409" /><sodipodi:namedview
     pagecolor="#ffffff"
     bordercolor="#666666"
     borderopacity="1"
     objecttolerance="10"
     gridtolerance="10"
     guidetolerance="10"
     inkscape:pageopacity="0"
     inkscape:pageshadow="2"
     inkscape:window-width="1920"
     inkscape:window-height="1017"
     id="namedview6407"
     showgrid="false"
     inkscape:zoom="1.84375"
     inkscape:cx="-54.508475"
     inkscape:cy="64"
     inkscape:window-x="-8"
     inkscape:window-y="-8"
     inkscape:window-maximized="1"
     inkscape:current-layer="g6399" /><g
     transform="matrix(1,0,0,1,-768,-320)"
     id="g6390"><g
       id="channel_create_sub"
       transform="matrix(1,0,0,1,768,320)"><rect
         x="0"
         y="0"
         width="128"
         height="128"
         style="fill:none;"
         id="rect6393" /><g
         transform="matrix(1,0,0,1,-0.0005,-2.9685)"
         id="g6395"><path
           d="M58.592,56.983L22.362,56.983C14.982,56.983 9,62.966 9,70.344L9,87.686C9,95.069 14.982,101.049 22.361,101.049L42.129,101.049C43.293,104.117 44.486,110.369 38.179,115.926C49.707,113.785 55.123,104.76 56.895,101.049L58.592,101.049C65.972,101.049 71.955,95.069 71.955,87.686L71.955,70.344C71.955,62.966 65.972,56.983 58.592,56.983Z"
           style="fill:rgb(28,160,55);fill-rule:nonzero;"
           id="path6397" /></g><g
         transform="matrix(1,0,0,1,-0.0005,-2.9685)"
         id="g6399"><path
           d="M100.473,18.011L50.238,18.011C40.008,18.011 31.713,26.306 31.713,36.536L31.713,48.389L58.592,48.389C70.699,48.389 80.549,58.239 80.549,70.344L80.549,87.686C80.549,91.487 79.561,95.055 77.854,98.176C89.977,93.705 95.974,83.6 98.12,79.108L100.474,79.108C110.704,79.108 119.001,70.815 119.001,60.581L119.001,36.537C119,26.306 110.703,18.011 100.473,18.011Z"
           style="fill:#7289da;fill-rule:nonzero;fill-opacity:1"
           id="path6401" /></g><g
         transform="matrix(1,0,0,1,-0.0005,-2.9685)"
         id="g6403"><path
           d="M55.133,83.151L44.66,83.151L44.66,93.625C44.66,94.214 44.458,94.711 44.055,95.114C43.651,95.518 43.155,95.719 42.566,95.719L38.377,95.719C37.788,95.719 37.291,95.512 36.888,95.097C36.484,94.683 36.283,94.192 36.283,93.624L36.283,83.151L25.807,83.151C25.218,83.151 24.721,82.944 24.318,82.529C23.914,82.115 23.713,81.624 23.713,81.056L23.713,76.867C23.713,76.278 23.915,75.782 24.318,75.378C24.721,74.975 25.218,74.773 25.807,74.773L36.281,74.773L36.281,64.299C36.281,63.71 36.483,63.214 36.886,62.81C37.289,62.407 37.786,62.205 38.375,62.205L42.564,62.205C43.153,62.205 43.649,62.407 44.053,62.81C44.456,63.214 44.658,63.71 44.658,64.299L44.658,74.773L55.132,74.773C55.721,74.773 56.217,74.975 56.621,75.378C57.024,75.782 57.226,76.278 57.226,76.867L57.226,81.056C57.226,81.623 57.024,82.115 56.621,82.529C56.219,82.944 55.723,83.151 55.133,83.151Z"
           style="fill:white;fill-rule:nonzero;"
           id="path6405" /></g></g></g></svg>