<?xml version="1.0" encoding="UTF-8" standalone="no"?>
<svg
   xmlns:dc="http://purl.org/dc/elements/1.1/"
   xmlns:cc="http://creativecommons.org/ns#"
   xmlns:rdf="http://www.w3.org/1999/02/22-rdf-syntax-ns#"
   xmlns:svg="http://www.w3.org/2000/svg"
   xmlns="http://www.w3.org/2000/svg"
   xmlns:sodipodi="http://sodipodi.sourceforge.net/DTD/sodipodi-0.dtd"
   xmlns:inkscape="http://www.inkscape.org/namespaces/inkscape"
   width="100%"
   height="100%"
   viewBox="0 0 128 128"
   version="1.1"
   xml:space="preserve"
   style="fill-rule:evenodd;clip-rule:evenodd;stroke-linejoin:round;stroke-miterlimit:1.41421;"
   id="svg15520"
   inkscape:version="0.92.2 (5c3e80d, 2017-08-06)"
   sodipodi:docname="change_nickname.svg"><metadata
     id="metadata15531"><rdf:RDF><cc:Work
         rdf:about=""><dc:format>image/svg+xml</dc:format><dc:type
           rdf:resource="http://purl.org/dc/dcmitype/StillImage" /></cc:Work></rdf:RDF></metadata><defs
     id="defs15529" /><sodipodi:namedview
     pagecolor="#ffffff"
     bordercolor="#666666"
     borderopacity="1"
     objecttolerance="10"
     gridtolerance="10"
     guidetolerance="10"
     inkscape:pageopacity="0"
     inkscape:pageshadow="2"
     inkscape:window-width="1920"
     inkscape:window-height="1017"
     id="namedview15527"
     showgrid="false"
     inkscape:zoom="3.6875"
     inkscape:cx="-15.650023"
     inkscape:cy="57.723364"
     inkscape:window-x="-8"
     inkscape:window-y="-8"
     inkscape:window-maximized="1"
     inkscape:current-layer="svg15520" /><rect
     id="change_nickname"
     x="0"
     y="0"
     width="128"
     height="128"
     style="fill:none;" /><path
     d="M28.561,76.477l-19.561,42.523l42.526,-19.562c-2.865,-4.529 -6.25,-8.823 -10.195,-12.769c-3.945,-3.945 -8.239,-7.328 -12.77,-10.192Z"
     style="fill:#7289da;fill-rule:nonzero;fill-opacity:1"
     id="path15523" /><path
     d="M119,29.492c0.002,-2.379 -0.833,-4.377 -2.502,-5.996l-11.987,-12.006c-1.625,-1.657 -3.613,-2.487 -6.008,-2.49c-2.395,0.002 -4.417,0.809 -6.073,2.42l-57.398,57.392c3.578,2.345 7.015,4.989 10.273,7.939c1.033,0.936 2.052,1.899 3.049,2.897c0.998,0.998 1.963,2.017 2.902,3.053c2.948,3.256 5.591,6.691 7.935,10.268l57.403,-57.397c1.597,-1.66 2.408,-3.69 2.406,-6.08Z"
     style="fill:#7289da;fill-rule:nonzero;fill-opacity:1"
     id="path15525" /></svg>