<?xml version="1.0" encoding="UTF-8" standalone="no"?>
<svg
   xmlns:dc="http://purl.org/dc/elements/1.1/"
   xmlns:cc="http://creativecommons.org/ns#"
   xmlns:rdf="http://www.w3.org/1999/02/22-rdf-syntax-ns#"
   xmlns:svg="http://www.w3.org/2000/svg"
   xmlns="http://www.w3.org/2000/svg"
   xmlns:sodipodi="http://sodipodi.sourceforge.net/DTD/sodipodi-0.dtd"
   xmlns:inkscape="http://www.inkscape.org/namespaces/inkscape"
   width="100%"
   height="100%"
   viewBox="0 0 128 128"
   version="1.1"
   xml:space="preserve"
   style="fill-rule:evenodd;clip-rule:evenodd;stroke-linejoin:round;stroke-miterlimit:1.41421;"
   id="svg8075"
   inkscape:version="0.92.2 (5c3e80d, 2017-08-06)"
   sodipodi:docname="channel_edit.svg"><metadata
     id="metadata8115"><rdf:RDF><cc:Work
         rdf:about=""><dc:format>image/svg+xml</dc:format><dc:type
           rdf:resource="http://purl.org/dc/dcmitype/StillImage" /></cc:Work></rdf:RDF></metadata><sodipodi:namedview
     pagecolor="#ffffff"
     bordercolor="#666666"
     borderopacity="1"
     objecttolerance="10"
     gridtolerance="10"
     guidetolerance="10"
     inkscape:pageopacity="0"
     inkscape:pageshadow="2"
     inkscape:window-width="1920"
     inkscape:window-height="1017"
     id="namedview8113"
     showgrid="false"
     inkscape:zoom="5.2149125"
     inkscape:cx="84.687246"
     inkscape:cy="57.09946"
     inkscape:window-x="-8"
     inkscape:window-y="-8"
     inkscape:window-maximized="1"
     inkscape:current-layer="svg8075" /><rect
     id="channel_edit"
     x="0"
     y="0"
     width="128"
     height="128"
     style="display:none;fill:none" /><path
     d="M 95.651,12.505 H 32.347 C 19.454,12.505 9,22.959 9,35.853 V 66.152 C 9,79.049 19.454,89.5 32.347,89.5 h 34.539 c 2.035,5.361 4.119,16.285 -6.902,25.995 C 80.129,111.754 89.59,95.983 92.686,89.5 h 2.966 C 108.545,89.5 119,79.049 119,66.152 V 35.853 C 119,22.959 108.545,12.505 95.651,12.505 Z"
     style="display:inline;fill:#7289da;fill-opacity:1;fill-rule:nonzero"
     id="path8096"
     inkscape:connector-curvature="0" /><g
     id="g8098"
     style="display:inline;fill:#f2f2f2"><path
       d="M 67.923,44.871 C 71.362,38.206 70.828,30.533 65.299,25.044 61.446,21.224 46.774,21.78 46.774,21.78 l -1.182,3.564 10.515,3.67 c 0,0 8.798,5.571 0.125,14.182 -8.676,8.607 -13.701,-0.71 -13.701,-0.71 l -3.769,-10.367 -3.54,1.123 c 0,0 -1.375,14.867 2.731,18.942 5.526,5.486 13.265,6.016 19.978,2.596 z"
       style="fill:#f2f2f2;fill-rule:nonzero"
       id="path8100"
       inkscape:connector-curvature="0" /><path
       d="m 91.738,68.483 c 1.683,1.679 1.682,4.403 0,6.085 l -4.056,4.056 c -1.679,1.682 -4.404,1.682 -6.085,0 L 54.542,51.568 c -1.68,-1.681 -1.68,-4.405 0,-6.086 l 4.056,-4.055 c 1.68,-1.68 4.405,-1.681 6.085,0 z"
       style="fill:#f2f2f2;fill-rule:nonzero"
       id="path8102"
       inkscape:connector-curvature="0" /></g><defs
     id="defs8104"><linearGradient
       id="_Linear1"
       x1="0"
       y1="0"
       x2="1"
       y2="0"
       gradientUnits="userSpaceOnUse"
       gradientTransform="matrix(6.29416e-15,-102.791,102.791,6.29416e-15,64.0005,115.495)"><stop
         offset="0"
         style="stop-color:#426080;stop-opacity:1"
         id="stop8107" /><stop
         offset="0.3"
         style="stop-color:#426080;stop-opacity:1"
         id="stop8109" /><stop
         offset="1"
         style="stop-color:#819cbd;stop-opacity:1"
         id="stop8111" /></linearGradient></defs></svg>