<?xml version="1.0" encoding="UTF-8" standalone="no"?>
<svg
   xmlns:dc="http://purl.org/dc/elements/1.1/"
   xmlns:cc="http://creativecommons.org/ns#"
   xmlns:rdf="http://www.w3.org/1999/02/22-rdf-syntax-ns#"
   xmlns:svg="http://www.w3.org/2000/svg"
   xmlns="http://www.w3.org/2000/svg"
   xmlns:sodipodi="http://sodipodi.sourceforge.net/DTD/sodipodi-0.dtd"
   xmlns:inkscape="http://www.inkscape.org/namespaces/inkscape"
   width="100%"
   height="100%"
   viewBox="0 0 128 128"
   version="1.1"
   xml:space="preserve"
   style="fill-rule:evenodd;clip-rule:evenodd;stroke-linejoin:round;stroke-miterlimit:1.41421;"
   id="svg10315"
   inkscape:version="0.92.2 (5c3e80d, 2017-08-06)"
   sodipodi:docname="channel_groups.svg"><metadata
     id="metadata10326"><rdf:RDF><cc:Work
         rdf:about=""><dc:format>image/svg+xml</dc:format><dc:type
           rdf:resource="http://purl.org/dc/dcmitype/StillImage" /></cc:Work></rdf:RDF></metadata><defs
     id="defs10324" /><sodipodi:namedview
     pagecolor="#ffffff"
     bordercolor="#666666"
     borderopacity="1"
     objecttolerance="10"
     gridtolerance="10"
     guidetolerance="10"
     inkscape:pageopacity="0"
     inkscape:pageshadow="2"
     inkscape:window-width="1920"
     inkscape:window-height="1017"
     id="namedview10322"
     showgrid="false"
     inkscape:zoom="1.84375"
     inkscape:cx="-54.508475"
     inkscape:cy="64"
     inkscape:window-x="-8"
     inkscape:window-y="-8"
     inkscape:window-maximized="1"
     inkscape:current-layer="svg10315" /><rect
     id="channel_groups"
     x="0"
     y="0"
     width="128"
     height="128"
     style="fill:none;" /><path
     d="M100.715,9.001l-49.56,0c-9.834,0 -17.827,7.775 -18.235,17.507l45.931,0c15.507,0 28.119,12.611 28.119,28.114l0,13.535c7.012,-2.558 12.03,-9.268 12.03,-17.162l0,-23.714c0,-10.093 -8.189,-18.28 -18.285,-18.28Z"
     style="fill:#a9aaac;fill-rule:nonzero;fill-opacity:1"
     id="path10318" /><path
     d="M78.852,35.972l-51.033,0c-10.394,0 -18.819,8.429 -18.819,18.823l0,24.419c0,10.401 8.425,18.829 18.819,18.829l27.845,0c1.64,4.319 3.328,13.121 -5.56,20.957c16.241,-3.017 23.873,-15.722 26.367,-20.957l2.381,0c10.396,0 18.829,-8.428 18.829,-18.829l0,-24.419c0,-10.394 -8.433,-18.823 -18.829,-18.823Z"
     style="fill:#7289da;fill-rule:nonzero;fill-opacity:1"
     id="path10320" /></svg>