<?xml version="1.0" encoding="UTF-8" standalone="no"?>
<svg
   xmlns:dc="http://purl.org/dc/elements/1.1/"
   xmlns:cc="http://creativecommons.org/ns#"
   xmlns:rdf="http://www.w3.org/1999/02/22-rdf-syntax-ns#"
   xmlns:svg="http://www.w3.org/2000/svg"
   xmlns="http://www.w3.org/2000/svg"
   xmlns:sodipodi="http://sodipodi.sourceforge.net/DTD/sodipodi-0.dtd"
   xmlns:inkscape="http://www.inkscape.org/namespaces/inkscape"
   width="100%"
   height="100%"
   viewBox="0 0 128 128"
   version="1.1"
   xml:space="preserve"
   style="fill-rule:evenodd;clip-rule:evenodd;stroke-linejoin:round;stroke-miterlimit:1.41421;"
   id="svg16073"
   inkscape:version="0.92.2 (5c3e80d, 2017-08-06)"
   sodipodi:docname="changelog.svg"><metadata
     id="metadata16090"><rdf:RDF><cc:Work
         rdf:about=""><dc:format>image/svg+xml</dc:format><dc:type
           rdf:resource="http://purl.org/dc/dcmitype/StillImage" /></cc:Work></rdf:RDF></metadata><defs
     id="defs16088" /><sodipodi:namedview
     pagecolor="#ffffff"
     bordercolor="#666666"
     borderopacity="1"
     objecttolerance="10"
     gridtolerance="10"
     guidetolerance="10"
     inkscape:pageopacity="0"
     inkscape:pageshadow="2"
     inkscape:window-width="1920"
     inkscape:window-height="1017"
     id="namedview16086"
     showgrid="false"
     inkscape:zoom="2.6074563"
     inkscape:cx="-1.5262725"
     inkscape:cy="72.750352"
     inkscape:window-x="-8"
     inkscape:window-y="-8"
     inkscape:window-maximized="1"
     inkscape:current-layer="svg16073" /><rect
     id="changelog"
     x="0"
     y="0"
     width="128"
     height="128"
     style="fill:none;" /><path
     d="M98.068,22.408c4.011,0 7.274,3.264 7.274,7.276l0,72.612c0,4.012 -3.264,7.275 -7.274,7.275l-68.134,0c-4.013,0 -7.276,-3.264 -7.276,-7.275l0,-72.612c0,-6.679 3.265,-7.276 7.276,-7.276l68.134,0m0,-9.429l-68.134,0c-9.227,0 -16.705,7.479 -16.705,16.705l0,72.612c0,9.225 7.479,16.704 16.705,16.704l68.135,0c9.225,0 16.703,-7.479 16.703,-16.704l0,-72.612c-0.001,-9.226 -7.479,-16.705 -16.704,-16.705Z"
     style="fill:#a9aaac;fill-rule:nonzero;fill-opacity:1"
     id="path16076" /><path
     d="M86.176,24.839c0,1.12 -0.906,2.027 -2.027,2.027l-40.297,0c-1.12,0 -2.027,-0.908 -2.027,-2.027l0,-13.812c0,-1.12 0.907,-2.027 2.027,-2.027l40.297,0c1.121,0 2.027,0.908 2.027,2.027l0,13.812Z"
     style="fill:#7289da;fill-rule:nonzero;fill-opacity:1"
     id="path16078" /><path
     d="M93.085,48.25l-58.171,0c-2.761,0 -5,-2.239 -5,-5c0,-2.761 2.239,-5 5,-5l58.17,0c2.763,0 5.001,2.239 5.001,5c-0.001,2.761 -2.239,5 -5.001,5Z"
     style="fill:#a9aaac;fill-rule:nonzero;fill-opacity:1"
     id="path16080" /><path
     d="M93.085,97.25l-58.171,0c-2.761,0 -5,-2.238 -5,-5c0,-2.762 2.239,-5 5,-5l58.17,0c2.763,0 5.001,2.238 5.001,5c-0.001,2.762 -2.239,5 -5.001,5Z"
     style="fill:#a9aaac;fill-rule:nonzero;fill-opacity:1"
     id="path16082" /><path
     d="M93.085,72.75l-58.171,0c-2.761,0 -5,-2.238 -5,-5c0,-2.762 2.239,-5 5,-5l58.17,0c2.763,0 5.001,2.238 5.001,5c-0.001,2.762 -2.239,5 -5.001,5Z"
     style="fill:#a9aaac;fill-rule:nonzero;fill-opacity:1"
     id="path16084" /></svg>