<?xml version="1.0" encoding="UTF-8" standalone="no"?>
<svg
   xmlns:dc="http://purl.org/dc/elements/1.1/"
   xmlns:cc="http://creativecommons.org/ns#"
   xmlns:rdf="http://www.w3.org/1999/02/22-rdf-syntax-ns#"
   xmlns:svg="http://www.w3.org/2000/svg"
   xmlns="http://www.w3.org/2000/svg"
   xmlns:sodipodi="http://sodipodi.sourceforge.net/DTD/sodipodi-0.dtd"
   xmlns:inkscape="http://www.inkscape.org/namespaces/inkscape"
   width="100%"
   height="100%"
   viewBox="0 0 128 128"
   version="1.1"
   xml:space="preserve"
   style="fill-rule:evenodd;clip-rule:evenodd;stroke-linejoin:round;stroke-miterlimit:1.41421;"
   id="svg5258"
   inkscape:version="0.92.2 (5c3e80d, 2017-08-06)"
   sodipodi:docname="channel_commander.svg"><metadata
     id="metadata5285"><rdf:RDF><cc:Work
         rdf:about=""><dc:format>image/svg+xml</dc:format><dc:type
           rdf:resource="http://purl.org/dc/dcmitype/StillImage" /></cc:Work></rdf:RDF></metadata><defs
     id="defs5283" /><sodipodi:namedview
     pagecolor="#ffffff"
     bordercolor="#666666"
     borderopacity="1"
     objecttolerance="10"
     gridtolerance="10"
     guidetolerance="10"
     inkscape:pageopacity="0"
     inkscape:pageshadow="2"
     inkscape:window-width="1920"
     inkscape:window-height="1017"
     id="namedview5281"
     showgrid="false"
     inkscape:zoom="1.84375"
     inkscape:cx="-54.508475"
     inkscape:cy="64"
     inkscape:window-x="-8"
     inkscape:window-y="-8"
     inkscape:window-maximized="1"
     inkscape:current-layer="g5265" /><g
     transform="matrix(1,0,0,1,-768,-160)"
     id="g5260"><g
       id="channel_commander"
       transform="matrix(1,0,0,1,768,160)"><rect
         x="0"
         y="0"
         width="128"
         height="128"
         style="fill:none;"
         id="rect5263" /><g
         transform="matrix(1,0,0,1,0,-0.921)"
         id="g5265"><path
           d="M95.651,13.426L32.347,13.426C19.454,13.426 9,23.88 9,36.774L9,67.073C9,79.97 19.454,90.421 32.347,90.421L66.886,90.421C68.92,95.782 71.005,106.707 59.984,116.416C80.129,112.675 89.591,96.903 92.687,90.421L95.652,90.421C108.545,90.421 119,79.97 119,67.073L119,36.774C119,23.88 108.545,13.426 95.651,13.426Z"
           style="fill:#7289da;fill-rule:nonzero;fill-opacity:1"
           id="path5267" /></g><g
         transform="matrix(1,0,0,1,0,-0.921)"
         id="g5269"><path
           d="M60.829,29.26L73.922,51.76L60.829,74.26L74.73,74.26L87.829,51.76L74.73,29.26L60.829,29.26Z"
           style="fill:rgb(242,230,23);fill-rule:nonzero;"
           id="path5271" /></g><g
         transform="matrix(1,0,0,1,0,-0.921)"
         id="g5273"><path
           d="M84.415,74.26L97.508,51.76L84.415,29.26L98.315,29.26L111.414,51.76L98.315,74.26L84.415,74.26Z"
           style="fill:rgb(242,230,23);fill-rule:nonzero;"
           id="path5275" /></g><g
         transform="matrix(1,0,0,1,0,-0.921)"
         id="g5277"><path
           d="M40,29.26L47.311,44.072L63.657,46.448L51.829,57.978L54.623,74.26L40,66.572L25.378,74.26L28.171,57.978L16.343,46.448L32.689,44.072L40,29.26Z"
           style="fill:rgb(242,230,23);fill-rule:nonzero;"
           id="path5279" /></g></g></g></svg>