<?xml version="1.0" encoding="UTF-8" standalone="no"?>
<svg
   xmlns:dc="http://purl.org/dc/elements/1.1/"
   xmlns:cc="http://creativecommons.org/ns#"
   xmlns:rdf="http://www.w3.org/1999/02/22-rdf-syntax-ns#"
   xmlns:svg="http://www.w3.org/2000/svg"
   xmlns="http://www.w3.org/2000/svg"
   xmlns:sodipodi="http://sodipodi.sourceforge.net/DTD/sodipodi-0.dtd"
   xmlns:inkscape="http://www.inkscape.org/namespaces/inkscape"
   width="100%"
   height="100%"
   viewBox="0 0 128 128"
   version="1.1"
   xml:space="preserve"
   style="fill-rule:evenodd;clip-rule:evenodd;stroke-linejoin:round;stroke-miterlimit:1.41421;"
   id="svg16632"
   inkscape:version="0.91 r13725"
   sodipodi:docname="channel_chat.svg"><metadata
     id="metadata16643"><rdf:RDF><cc:Work
         rdf:about=""><dc:format>image/svg+xml</dc:format><dc:type
           rdf:resource="http://purl.org/dc/dcmitype/StillImage" /></cc:Work></rdf:RDF></metadata><defs
     id="defs16641" /><sodipodi:namedview
     pagecolor="#ffffff"
     bordercolor="#666666"
     borderopacity="1"
     objecttolerance="10"
     gridtolerance="10"
     guidetolerance="10"
     inkscape:pageopacity="0"
     inkscape:pageshadow="2"
     inkscape:window-width="1920"
     inkscape:window-height="1017"
     id="namedview16639"
     showgrid="false"
     inkscape:zoom="1.84375"
     inkscape:cx="-31.186441"
     inkscape:cy="64"
     inkscape:window-x="-8"
     inkscape:window-y="-8"
     inkscape:window-maximized="1"
     inkscape:current-layer="svg16632" /><rect
     id="channel_chat"
     x="0"
     y="0"
     width="128"
     height="128"
     style="fill:none;" /><path
     d="M95.65,12.505l-63.303,0c-12.893,0 -23.347,10.454 -23.347,23.348l0,30.299c0,12.896 10.454,23.348 23.347,23.348l34.54,0c2.033,5.361 4.117,16.285 -6.903,25.995c20.145,-3.741 29.606,-19.512 32.702,-25.995l2.967,0c12.892,0 23.347,-10.45 23.347,-23.349l0,-30.298c0,-12.894 -10.455,-23.348 -23.35,-23.348Z"
     style="fill:#7289da;fill-rule:nonzero;fill-opacity:1"
     id="path16635" /><path
     d="M78.24,78.579l-4.289,-12.688l-20.466,0l-4.288,12.688l-10.197,0l19.266,-55l11.184,0l19.551,55l-10.761,0Zm-11.951,-36.84c-0.332,-1.128 -0.646,-2.287 -0.951,-3.47c-0.307,-1.18 -0.602,-2.297 -0.877,-3.347c-0.285,-1.052 -0.492,-1.942 -0.638,-2.68l-0.138,0c-0.187,0.737 -0.422,1.627 -0.698,2.68c-0.286,1.05 -0.6,2.167 -0.954,3.347c-0.354,1.184 -0.689,2.342 -1.022,3.47c-0.325,1.131 -0.63,2.115 -0.915,2.949l-4.073,12.854l15.255,0l-4.072,-12.854c-0.286,-0.834 -0.591,-1.818 -0.917,-2.949Z"
     style="fill:#fff;fill-rule:nonzero;"
     id="path16637" /></svg>