<?xml version="1.0" encoding="UTF-8" standalone="no"?>
<svg
   xmlns:dc="http://purl.org/dc/elements/1.1/"
   xmlns:cc="http://creativecommons.org/ns#"
   xmlns:rdf="http://www.w3.org/1999/02/22-rdf-syntax-ns#"
   xmlns:svg="http://www.w3.org/2000/svg"
   xmlns="http://www.w3.org/2000/svg"
   xmlns:sodipodi="http://sodipodi.sourceforge.net/DTD/sodipodi-0.dtd"
   xmlns:inkscape="http://www.inkscape.org/namespaces/inkscape"
   width="100%"
   height="100%"
   viewBox="0 0 128 128"
   version="1.1"
   xml:space="preserve"
   style="fill-rule:evenodd;clip-rule:evenodd;stroke-linejoin:round;stroke-miterlimit:1.41421;"
   id="svg17557"
   inkscape:version="0.91 r13725"
   sodipodi:docname="check_update.svg"><metadata
     id="metadata17576"><rdf:RDF><cc:Work
         rdf:about=""><dc:format>image/svg+xml</dc:format><dc:type
           rdf:resource="http://purl.org/dc/dcmitype/StillImage" /></cc:Work></rdf:RDF></metadata><defs
     id="defs17574" /><sodipodi:namedview
     pagecolor="#ffffff"
     bordercolor="#666666"
     borderopacity="1"
     objecttolerance="10"
     gridtolerance="10"
     guidetolerance="10"
     inkscape:pageopacity="0"
     inkscape:pageshadow="2"
     inkscape:window-width="1920"
     inkscape:window-height="1017"
     id="namedview17572"
     showgrid="false"
     inkscape:zoom="1.84375"
     inkscape:cx="-31.186441"
     inkscape:cy="64"
     inkscape:window-x="-8"
     inkscape:window-y="-8"
     inkscape:window-maximized="1"
     inkscape:current-layer="svg17557" /><g
     transform="matrix(1,0,0,1,-1152,-800)"
     id="g17559"><g
       id="check_update"
       transform="matrix(1,0,0,1.09402,1152,362.393)"><rect
         x="0"
         y="400"
         width="128"
         height="117"
         style="fill:none;"
         id="rect17562" /><g
         transform="matrix(1,0,0,0.914062,0,400)"
         id="g17564"><path
           d="M44.497,90.575L12.536,122.536L5.464,115.464L37.425,83.503L44.497,90.575Z"
           style="fill:#a9aaac;fill-opacity:1"
           id="path17566" /></g><g
         transform="matrix(1,0,0,0.914062,0,400)"
         id="g17568"><path
           d="M125.035,20.377L83.035,9.295L93.124,50.291L100.939,38.25C103.23,41.572 104.014,46.926 104.014,50.524C104.014,65.137 92.126,77.026 77.514,77.026C62.902,77.026 51.014,65.137 51.014,50.524C51.014,36.12 61.568,24.373 75.894,24.041L72.632,9.323C52.043,11.749 36.015,29.295 36.015,50.525C36.015,73.409 54.632,92.027 77.515,92.027C100.398,92.027 119.015,73.409 119.015,50.525C119.015,42.87 116.873,34.349 112.911,27.865L125.035,20.377Z"
           style="fill:#7289da;fill-rule:nonzero;fill-opacity:1"
           id="path17570" /></g></g></g></svg>