<?xml version="1.0" encoding="UTF-8" standalone="no"?>
<svg
   xmlns:dc="http://purl.org/dc/elements/1.1/"
   xmlns:cc="http://creativecommons.org/ns#"
   xmlns:rdf="http://www.w3.org/1999/02/22-rdf-syntax-ns#"
   xmlns:svg="http://www.w3.org/2000/svg"
   xmlns="http://www.w3.org/2000/svg"
   xmlns:sodipodi="http://sodipodi.sourceforge.net/DTD/sodipodi-0.dtd"
   xmlns:inkscape="http://www.inkscape.org/namespaces/inkscape"
   width="100%"
   height="100%"
   viewBox="0 0 128 128"
   version="1.1"
   xml:space="preserve"
   style="fill-rule:evenodd;clip-rule:evenodd;stroke-linejoin:round;stroke-miterlimit:1.41421;"
   id="svg18118"
   inkscape:version="0.92.2 (5c3e80d, 2017-08-06)"
   sodipodi:docname="clear.svg"><metadata
     id="metadata18129"><rdf:RDF><cc:Work
         rdf:about=""><dc:format>image/svg+xml</dc:format><dc:type
           rdf:resource="http://purl.org/dc/dcmitype/StillImage" /></cc:Work></rdf:RDF></metadata><defs
     id="defs18127" /><sodipodi:namedview
     pagecolor="#ffffff"
     bordercolor="#666666"
     borderopacity="1"
     objecttolerance="10"
     gridtolerance="10"
     guidetolerance="10"
     inkscape:pageopacity="0"
     inkscape:pageshadow="2"
     inkscape:window-width="1920"
     inkscape:window-height="1017"
     id="namedview18125"
     showgrid="false"
     inkscape:zoom="1.84375"
     inkscape:cx="-54.508475"
     inkscape:cy="64"
     inkscape:window-x="-8"
     inkscape:window-y="-8"
     inkscape:window-maximized="1"
     inkscape:current-layer="svg18118" /><rect
     id="clear"
     x="0"
     y="0"
     width="128"
     height="128"
     style="fill:none;" /><path
     d="M102.149,113.314l-4.349,-37.645c-0.123,-1.083 -0.609,-2.085 -1.383,-2.857l-26.129,-26.134l-23.608,23.606l47.29,47.287c0.003,0.003 0.008,0.007 0.012,0.011c1.882,1.891 4.943,1.891 6.825,0c1.167,-1.16 1.607,-2.765 1.342,-4.268Z"
     style="fill:#a9aaac;fill-rule:nonzero;fill-opacity:1"
     id="path18121" /><path
     d="M25.852,14.683l4.346,37.64c0.126,1.083 0.614,2.09 1.387,2.862l9.843,9.845l23.608,-23.604l-31.004,-31.002c-0.003,-0.001 -0.008,-0.006 -0.011,-0.009c-1.886,-1.886 -4.943,-1.886 -6.83,0c-1.16,1.159 -1.608,2.765 -1.339,4.268Z"
     style="fill:#7289da;fill-rule:nonzero;fill-opacity:1"
     id="path18123" /></svg>