<?xml version="1.0" encoding="UTF-8" standalone="no"?>
<svg
   xmlns:dc="http://purl.org/dc/elements/1.1/"
   xmlns:cc="http://creativecommons.org/ns#"
   xmlns:rdf="http://www.w3.org/1999/02/22-rdf-syntax-ns#"
   xmlns:svg="http://www.w3.org/2000/svg"
   xmlns="http://www.w3.org/2000/svg"
   xmlns:sodipodi="http://sodipodi.sourceforge.net/DTD/sodipodi-0.dtd"
   xmlns:inkscape="http://www.inkscape.org/namespaces/inkscape"
   width="100%"
   height="100%"
   viewBox="0 0 128 128"
   version="1.1"
   xml:space="preserve"
   style="fill-rule:evenodd;clip-rule:evenodd;stroke-linejoin:round;stroke-miterlimit:1.41421;"
   id="svg813"
   sodipodi:docname="client_show.svg"
   inkscape:version="0.92.2 (5c3e80d, 2017-08-06)"><metadata
     id="metadata819"><rdf:RDF><cc:Work
         rdf:about=""><dc:format>image/svg+xml</dc:format><dc:type
           rdf:resource="http://purl.org/dc/dcmitype/StillImage" /></cc:Work></rdf:RDF></metadata><defs
     id="defs817" /><sodipodi:namedview
     pagecolor="#ffffff"
     bordercolor="#666666"
     borderopacity="1"
     objecttolerance="10"
     gridtolerance="10"
     guidetolerance="10"
     inkscape:pageopacity="0"
     inkscape:pageshadow="2"
     inkscape:window-width="1920"
     inkscape:window-height="1017"
     id="namedview815"
     showgrid="false"
     inkscape:zoom="3.6875"
     inkscape:cx="169.00088"
     inkscape:cy="34.78515"
     inkscape:window-x="-8"
     inkscape:window-y="-8"
     inkscape:window-maximized="1"
     inkscape:current-layer="svg813" /><rect
     id="client_show"
     x="0"
     y="0"
     width="128"
     height="128"
     style="fill:none;" /><g
     transform="matrix(0.11955715,0,0,0.11955715,-672.70957,7.566756)"
     id="g4572"
     style="clip-rule:evenodd;fill:#2580c3;fill-opacity:1;fill-rule:evenodd;stroke-width:34.85086823;stroke-linejoin:round;stroke-miterlimit:1.41420996"><path
       d="m 5685.33,493.155 c 0.9,-14.878 -1.33,-32.262 1.49,-49.556 4.74,-29.078 20.18,-50.278 46.35,-63.485 6.43,-3.273 10.4,-6.637 11.85,-14.674 11.4,-62.447 36.48,-119.204 73.53,-170.633 4.24,-5.915 7.65,-9.957 2.19,-17.633 -6.95,-9.752 -1.99,-18.715 5.24,-26.82 52.24,-58.541 115.14,-101.91 189.96,-125.006 178.44,-55.086 335.75,-17.406 470.11,112.882 12.39,12.033 28.96,24.134 13.11,45.266 -2.64,3.522 2.04,6.592 4.07,9.369 38.51,52.491 63.96,110.647 75.29,174.787 1.24,7.089 5.67,9.324 10.84,11.943 32.26,16.368 48.11,43.392 48.24,78.815 0.14,32.035 3.3,64.275 -2.03,96.108 -7.68,45.807 -54.3,77.73 -99.45,68.406 -13.68,-2.844 -17.29,-13.365 -17.22,-26.233 0.22,-52.559 1.28,-105.139 0.02,-157.652 C 6515.53,297.8 6451.75,191.42 6328.26,123.533 6121.62,9.906 5856.55,135.86 5811.08,367.472 c -7.93,40.276 -6.55,80.71 -6.1,121.28 0.41,37.748 -0.04,75.519 -0.97,113.267 -0.31,13.229 -8.1,20.702 -22.26,21.357 -57.59,2.687 -96.31,-33.888 -96.42,-91.48 -0.03,-12.101 0,-24.202 0,-38.741 z"
       style="fill:#2580c3;fill-opacity:1;fill-rule:nonzero;stroke-width:16.41631317"
       id="path4546"
       inkscape:connector-curvature="0" /><path
       d="m 6268.95,688.789 c 24.09,3.183 48.11,7.067 72.38,8.466 32.58,1.896 57.21,-8.556 75.45,-28.175 22.87,-24.654 33.37,-53.304 31.61,-85.452 -1.81,-32.307 -30.14,-51.407 -68.54,-44.769 -34.27,5.938 -64.64,19.302 -95.39,31.584 -27.18,10.859 -52.67,23.909 -72.63,42.444 -28.06,26.053 -12.14,60.573 32.67,71.409 8.01,1.942 16.3,3.025 24.45,4.493 z"
       style="fill:#2580c3;fill-opacity:1;fill-rule:nonzero;stroke-width:16.41631317"
       id="path4548"
       inkscape:connector-curvature="0" /><path
       d="m 6135.16,621.464 v -0.023 c -2.53,-7.676 -6.82,-14.652 -11.94,-21.222 -17.72,-27.611 -42.35,-52.535 -67.28,-73.419 -13.09,-11.378 -27.02,-21.718 -41.43,-31.448 -32.08,-22.125 -57.21,-34.994 -57.21,-34.994 l -0.09,0.045 c -38.13,-19.077 -72.92,-0.429 -82.11,43.099 -10.29,48.81 -2.05,95.588 24.45,138.19 18.25,29.327 46.42,43.234 80.13,46.395 21.08,1.964 42.26,3.115 63.39,4.628 17.21,0.406 34.36,1.603 51.07,-4.064 22.04,-7.473 39.04,-20.928 42.83,-44.633 1.31,-8.196 0.45,-15.646 -1.81,-22.554 z"
       style="fill:#2580c3;fill-opacity:1;fill-rule:nonzero;stroke-width:16.41631317"
       id="path4550"
       inkscape:connector-curvature="0" /><path
       d="m 6543.5,733.967 c -0.38,-19.123 -8.85,-50.143 -21.42,-60.031 -5.4,-4.244 -13.34,-1.851 -15.42,4.696 -2.66,8.443 -7.04,20.544 -13.73,34.768 h 0.03 c -14.91,35.219 -36.78,64.049 -62.34,87.709 -33.39,30.885 -73.08,52.897 -111.89,68.542 0,0.023 -0.02,0.023 -0.02,0.023 -9.66,3.883 -19.24,7.405 -28.67,10.543 -0.07,0.023 -0.16,0.045 -0.23,0.068 -6.27,2.099 -12.46,4.041 -18.53,5.824 -0.05,0 -0.09,0.023 -0.14,0.023 -2.93,0.881 -5.85,1.693 -8.74,2.484 -0.15,0.045 -0.31,0.09 -0.47,0.135 -5.87,1.626 -11.6,3.093 -17.18,4.447 -0.25,0.068 -0.45,0.114 -0.7,0.159 -2.57,0.632 -5.1,1.219 -7.61,1.783 -0.23,0.068 -0.45,0.113 -0.65,0.158 -5.33,1.197 -10.5,2.303 -15.47,3.296 -0.34,0.068 -0.68,0.113 -1.02,0.181 -2.18,0.429 -4.35,0.858 -6.45,1.242 -0.27,0.045 -0.54,0.113 -0.81,0.158 -4.7,0.858 -9.17,1.625 -13.41,2.303 -0.37,0.068 -0.73,0.112 -1.09,0.18 -1.85,0.294 -3.66,0.565 -5.39,0.835 -0.23,0.023 -0.48,0.068 -0.7,0.091 -2.01,0.316 -3.98,0.587 -5.87,0.858 h -0.03 c -1.8,0.248 -3.56,0.474 -5.23,0.677 -0.3,0.045 -0.57,0.068 -0.84,0.113 -1.63,0.203 -3.21,0.406 -4.72,0.564 l -0.02,0.023 c -12.51,1.445 -20.3,1.896 -21.52,1.964 -0.11,0 -0.18,0 -0.18,0 v 0.023 c -162.48,17 41.25,52.625 194.48,25.646 l -0.03,0.023 c 0.37,-0.068 0.68,-0.136 1.04,-0.203 3.62,-0.632 7.18,-1.309 10.73,-2.032 3.16,-0.61 6.25,-1.287 9.3,-1.964 2.39,-0.542 4.74,-1.084 7.09,-1.648 1.44,-0.362 2.93,-0.7 4.35,-1.061 20.41,-5.193 39.15,-11.785 55.11,-19.98 94.8,-45.876 103.99,-122.5 103.99,-122.5 3.14,-14.54 4.79,-31.043 4.4,-50.12 z"
       style="fill:#2580c3;fill-opacity:1;fill-rule:nonzero;stroke-width:16.41631317"
       id="path4552"
       inkscape:connector-curvature="0" /></g></svg>