<?xml version="1.0" encoding="UTF-8" standalone="no"?><!DOCTYPE svg PUBLIC "-//W3C//DTD SVG 1.1//EN" "http://www.w3.org/Graphics/SVG/1.1/DTD/svg11.dtd"><svg width="100%" height="100%" viewBox="0 0 128 128" version="1.1" xmlns="http://www.w3.org/2000/svg" xmlns:xlink="http://www.w3.org/1999/xlink" xml:space="preserve" style="fill-rule:evenodd;clip-rule:evenodd;stroke-linejoin:round;stroke-miterlimit:1.41421;"><rect id="client_show" x="0" y="0" width="128" height="128" style="fill:none;"/><path d="M55.516,10.331c-16.247,0 -24.188,2.921 -26.971,4.174c-2.782,1.249 -4.169,2.503 -4.726,5.141c-0.458,2.187 -3.588,17.65 -4.652,22.917c-5.674,2.364 -9.667,7.968 -9.667,14.503c0,8.682 7.035,15.715 15.711,15.715c8.675,0 15.713,-7.033 15.713,-15.715c0,-5.667 -3.009,-10.637 -7.51,-13.398l0,-29.163c0,0 5.141,-1.778 18.212,-1.778c19.66,0 58.944,13.923 58.944,51.223c0,35.646 -38.511,49.96 -60.892,49.96c-16.681,0 -23.076,-3.613 -23.076,-3.613l-2.783,1.534c0,0 10.707,5.838 29.888,5.838c30.719,0 64.792,-19.936 64.792,-53.719c0.001,-34.429 -36.43,-53.619 -62.983,-53.619Z" style="fill:#426080;fill-rule:nonzero;"/><path d="M58.482,49.376c0.395,2.486 -2.742,3.846 -2.742,5.714c0,1.6 6.802,11.247 8.7,14.284c1.79,2.88 0.608,4.109 -2.883,4.954c-3.492,0.846 -3.075,2.486 -3.075,3.823c0,1.337 1.34,2.517 1.34,3.443c0,0.914 -2.317,2.043 -2.317,2.868c0,0.824 1.676,1.67 1.676,2.334c0,0.665 -2.132,1.539 -2.273,3.204c-0.149,1.806 2.915,5.346 -0.283,9.236c-3.2,3.888 -17.374,1.047 -17.374,1.047c0,0 12.375,-11.816 12.375,-29.746c0,-17.94 -13.902,-26.976 -13.902,-26.976c0,0 0,-20.305 0,-24.19c7.668,0.002 18.479,15.727 20.758,30.005Z" style="fill:#426080;fill-rule:nonzero;"/><path d="M60.533,100.582c0,0 2.124,-3.035 1.592,-5.155c-0.532,-2.124 -1.265,-4.68 -0.755,-5.507c0.517,-0.82 1.965,-0.915 1.965,-2.698c0,-1.782 -1.114,-1.836 -1.114,-2.218c0,-0.394 1.788,-1.591 1.788,-3.088c0,-1.497 -1.258,-2.176 -1.258,-3.768c0,-1.593 1.645,-1.689 2.999,-2.071c1.348,-0.394 4.052,-1.265 4.052,-3.957c0,-2.708 -9.606,-14.769 -9.606,-16.266c0,-1.497 2.91,-2.82 2.459,-6.322c-0.72,-5.643 -6.783,-24.252 -19.296,-31.557c21.759,-2.792 58.59,11.992 58.59,41.308c-0.002,29.306 -30.248,39.821 -41.416,41.299Z" style="fill:#cdd7e5;fill-rule:nonzero;"/><path d="M62.703,85.51c-0.152,-0.166 -0.471,-0.308 -0.471,-0.451c0,-0.143 0.047,-0.248 0.216,-0.436c7.182,-3.208 13.397,-9.818 13.397,-18.271c0,-8.45 -7.128,-15.787 -13.508,-18.591c-1.148,-5.329 -4.877,-15.794 -11.55,-23.472c10.898,-1.214 38.494,9.987 38.494,29.945c0,21.789 -21.997,30.087 -26.578,31.276Z" style="fill:#819cbd;fill-rule:nonzero;"/><path d="M33.37,58.577c0,5.886 -4.776,10.67 -10.667,10.67c-5.888,0 -10.67,-4.784 -10.67,-10.67c0,-5.891 4.783,-10.673 10.67,-10.673c5.891,-0.001 10.667,4.782 10.667,10.673Z" style="fill:#1ca037;fill-rule:nonzero;"/></svg>