<?xml version="1.0" encoding="UTF-8" standalone="no"?>
<svg
   xmlns:dc="http://purl.org/dc/elements/1.1/"
   xmlns:cc="http://creativecommons.org/ns#"
   xmlns:rdf="http://www.w3.org/1999/02/22-rdf-syntax-ns#"
   xmlns:svg="http://www.w3.org/2000/svg"
   xmlns="http://www.w3.org/2000/svg"
   xmlns:sodipodi="http://sodipodi.sourceforge.net/DTD/sodipodi-0.dtd"
   xmlns:inkscape="http://www.inkscape.org/namespaces/inkscape"
   width="100%"
   height="100%"
   viewBox="0 0 128 128"
   version="1.1"
   xml:space="preserve"
   style="fill-rule:evenodd;clip-rule:evenodd;stroke-linejoin:round;stroke-miterlimit:1.41421;"
   id="svg20339"
   inkscape:version="0.91 r13725"
   sodipodi:docname="complaint_list.svg"><metadata
     id="metadata20364"><rdf:RDF><cc:Work
         rdf:about=""><dc:format>image/svg+xml</dc:format><dc:type
           rdf:resource="http://purl.org/dc/dcmitype/StillImage" /></cc:Work></rdf:RDF></metadata><defs
     id="defs20362" /><sodipodi:namedview
     pagecolor="#ffffff"
     bordercolor="#666666"
     borderopacity="1"
     objecttolerance="10"
     gridtolerance="10"
     guidetolerance="10"
     inkscape:pageopacity="0"
     inkscape:pageshadow="2"
     inkscape:window-width="1920"
     inkscape:window-height="1017"
     id="namedview20360"
     showgrid="false"
     inkscape:zoom="5.2149125"
     inkscape:cx="74.494338"
     inkscape:cy="75.60634"
     inkscape:window-x="-8"
     inkscape:window-y="-8"
     inkscape:window-maximized="1"
     inkscape:current-layer="svg20339" /><rect
     id="complaint_list"
     x="0"
     y="0"
     width="128"
     height="128"
     style="fill:none;" /><path
     d="M121.113,113.942l-34.161,-59.147c-0.92,-1.589 -2.622,-2.576 -4.462,-2.576c-1.839,0 -3.541,0.987 -4.461,2.576l-34.34,59.474c-0.919,1.603 -0.919,3.563 0,5.151c0.919,1.606 2.623,2.584 4.461,2.584l68.679,0c0.007,-0.001 0.014,-0.001 0.019,0c2.846,0 5.151,-2.306 5.151,-5.151c0.001,-1.075 -0.333,-2.074 -0.886,-2.911Z"
     style="fill:#c90709;fill-rule:nonzero;"
     id="path20342" /><g
     id="g20344"><path
       d="M33.801,112.004l-12.801,0c-2.762,0 -5,-2.238 -5,-5l0,-86.008c0,-2.761 2.238,-5 5,-5l72.475,0c2.762,0 5,2.239 5,5c0,0 0,19.105 0,33.755l10,17.313l0,-51.068c0,-8.271 -6.729,-15 -15,-15l-72.475,0c-8.271,0 -15,6.729 -15,15l0,86.008c0,8.271 6.729,15 15,15l12.914,0c-1.16,-3.215 -1.204,-6.748 -0.113,-10Z"
       style="fill:#a9aaac;fill-rule:nonzero;fill-opacity:1"
       id="path20346" /><path
       d="M86.894,33.002c-0.907,-0.923 -2.166,-1.498 -3.563,-1.498l-0.029,0l-50.65,0l-4.49,0c-2.761,0 -5,2.239 -5,5c0,1.357 0.545,2.585 1.424,3.486l-0.016,0.016c0.907,0.923 2.166,1.498 3.563,1.498l55.169,0c2.761,0 5,-2.239 5,-5c0,-1.357 -0.546,-2.585 -1.424,-3.486l0.016,-0.016Z"
       style="fill:#a9aaac;fill-rule:nonzero;fill-opacity:1"
       id="path20348" /><path
       d="M23.161,64.004c0,2.762 2.239,5 5,5l30.117,0l5.774,-10l-35.891,0c-2.761,0 -5,2.239 -5,5Z"
       style="fill:#a9aaac;fill-rule:nonzero;fill-opacity:1"
       id="path20350" /><path
       d="M23.161,91.504c0,2.762 2.239,5 5,5l14.238,0l5.774,-10l-20.012,0c-2.761,0 -5,2.238 -5,5Z"
       style="fill:#a9aaac;fill-rule:nonzero;fill-opacity:1"
       id="path20352" /></g><g
     id="g20354"><path
       d="M76.452,72.957c0,-0.802 0.276,-1.479 0.824,-2.021c0.549,-0.554 1.225,-0.83 2.021,-0.83l6.403,0c0.798,0 1.475,0.285 2.022,0.846c0.549,0.565 0.824,1.229 0.824,2.005l0,20.72c0,0.802 -0.275,1.474 -0.824,2.021c-0.548,0.553 -1.225,0.824 -2.022,0.824l-6.403,0c-0.797,0 -1.473,-0.271 -2.021,-0.824c-0.548,-0.548 -0.824,-1.22 -0.824,-2.021l0,-20.72Z"
       style="fill:#fff;fill-rule:nonzero;"
       id="path20356" /><path
       d="M76.452,104.956c0,-0.802 0.276,-1.479 0.824,-2.021c0.549,-0.554 1.225,-0.83 2.021,-0.83l6.403,0c0.798,0 1.475,0.285 2.022,0.847c0.549,0.564 0.824,1.229 0.824,2.004l0,6.104c0,0.802 -0.275,1.473 -0.824,2.021c-0.548,0.553 -1.225,0.824 -2.022,0.824l-6.403,0c-0.797,0 -1.473,-0.271 -2.021,-0.824c-0.548,-0.549 -0.824,-1.22 -0.824,-2.021l0,-6.104Z"
       style="fill:#fff;fill-rule:nonzero;"
       id="path20358" /></g></svg>