<?xml version="1.0" encoding="UTF-8" standalone="no"?>
<svg
   xmlns:dc="http://purl.org/dc/elements/1.1/"
   xmlns:cc="http://creativecommons.org/ns#"
   xmlns:rdf="http://www.w3.org/1999/02/22-rdf-syntax-ns#"
   xmlns:svg="http://www.w3.org/2000/svg"
   xmlns="http://www.w3.org/2000/svg"
   xmlns:sodipodi="http://sodipodi.sourceforge.net/DTD/sodipodi-0.dtd"
   xmlns:inkscape="http://www.inkscape.org/namespaces/inkscape"
   width="100%"
   height="100%"
   viewBox="0 0 128 128"
   version="1.1"
   xml:space="preserve"
   style="fill-rule:evenodd;clip-rule:evenodd;stroke-linejoin:round;stroke-miterlimit:1.41421;"
   id="svg21464"
   inkscape:version="0.92.2 (5c3e80d, 2017-08-06)"
   sodipodi:docname="connect.svg"><metadata
     id="metadata21489"><rdf:RDF><cc:Work
         rdf:about=""><dc:format>image/svg+xml</dc:format><dc:type
           rdf:resource="http://purl.org/dc/dcmitype/StillImage" /></cc:Work></rdf:RDF></metadata><defs
     id="defs21487" /><sodipodi:namedview
     pagecolor="#ffffff"
     bordercolor="#666666"
     borderopacity="1"
     objecttolerance="10"
     gridtolerance="10"
     guidetolerance="10"
     inkscape:pageopacity="0"
     inkscape:pageshadow="2"
     inkscape:window-width="1920"
     inkscape:window-height="1017"
     id="namedview21485"
     showgrid="false"
     inkscape:zoom="1.84375"
     inkscape:cx="-149.69492"
     inkscape:cy="64"
     inkscape:window-x="-8"
     inkscape:window-y="-8"
     inkscape:window-maximized="1"
     inkscape:current-layer="svg21464" /><rect
     id="connect"
     x="0"
     y="0"
     width="128"
     height="128"
     style="fill:none;" /><rect
     x="59.71"
     y="93.574"
     width="8.594"
     height="27.736"
     style="fill:#e6e6e6"
     id="rect21467" /><rect
     x="5.993"
     y="113.422"
     width="116.014"
     height="8.549"
     style="fill:#e6e6e6;fill-opacity:1"
     id="rect21469" /><path
     d="M34.053,76.215l-28.046,0l0,12.244c0,5.041 4.058,9.127 9.062,9.127l18.984,0l0,-13.055l0,-8.316Z"
     style="fill:#7289da;fill-rule:nonzero;fill-opacity:1"
     id="path21471" /><path
     d="M44.917,97.586l68.026,0c5.005,0 9.063,-4.086 9.063,-9.127l0,-19.431c0,-5.041 -4.059,-9.127 -9.063,-9.127l-28.92,0l-33.031,31.831l-6.075,5.854Z"
     style="fill:#7289da;fill-rule:nonzero;fill-opacity:1"
     id="path21473" /><path
     d="M82.856,89.459l26.113,0c1.199,0 2.163,-0.97 2.163,-2.179l0,-17.074c0,-1.207 -0.964,-2.178 -2.163,-2.178l-26.113,0c-1.199,0 -2.161,0.971 -2.161,2.178l0,17.074c0,1.209 0.961,2.179 2.161,2.179Z"
     style="fill:#fff;fill-rule:nonzero;"
     id="path21475" /><path
     d="M34.053,19.084l0,-13.055l-18.984,0c-5.004,0 -9.062,4.086 -9.062,9.128l0,12.251l28.046,0l0,-8.324Z"
     style="fill:#7289da;fill-rule:nonzero;fill-opacity:1"
     id="path21477" /><path
     d="M122.007,34.587l0,-19.43c0,-5.042 -4.059,-9.128 -9.063,-9.128l-68.025,0l6.074,5.855l33.023,31.831l28.928,0c5.004,0 9.063,-4.087 9.063,-9.128Z"
     style="fill:#7289da;fill-rule:nonzero;fill-opacity:1"
     id="path21479" /><path
     d="M108.969,14.157l-26.113,0c-1.195,0 -2.161,0.976 -2.161,2.178l0,17.075c0,1.202 0.966,2.177 2.161,2.177l26.113,0c1.197,0 2.163,-0.975 2.163,-2.177l0,-17.075c0,-1.202 -0.966,-2.178 -2.163,-2.178Z"
     style="fill:#fff;fill-rule:nonzero;"
     id="path21481" /><path
     d="M78.007,51.811l-33.954,-32.727l0,18.324l-38.046,0l0,28.807l38.046,0l0,18.316l33.954,-32.72Z"
     style="fill:#1ca037;fill-rule:nonzero;"
     id="path21483" /></svg>