<?xml version="1.0" encoding="UTF-8" standalone="no"?>
<svg
   xmlns:dc="http://purl.org/dc/elements/1.1/"
   xmlns:cc="http://creativecommons.org/ns#"
   xmlns:rdf="http://www.w3.org/1999/02/22-rdf-syntax-ns#"
   xmlns:svg="http://www.w3.org/2000/svg"
   xmlns="http://www.w3.org/2000/svg"
   xmlns:sodipodi="http://sodipodi.sourceforge.net/DTD/sodipodi-0.dtd"
   xmlns:inkscape="http://www.inkscape.org/namespaces/inkscape"
   width="100%"
   height="100%"
   viewBox="0 0 128 128"
   version="1.1"
   xml:space="preserve"
   style="fill-rule:evenodd;clip-rule:evenodd;stroke-linejoin:round;stroke-miterlimit:1.41421;"
   id="svg6950"
   inkscape:version="0.92.2 (5c3e80d, 2017-08-06)"
   sodipodi:docname="disconnect.svg"><metadata
     id="metadata6977"><rdf:RDF><cc:Work
         rdf:about=""><dc:format>image/svg+xml</dc:format><dc:type
           rdf:resource="http://purl.org/dc/dcmitype/StillImage" /></cc:Work></rdf:RDF></metadata><defs
     id="defs6975" /><sodipodi:namedview
     pagecolor="#ffffff"
     bordercolor="#666666"
     borderopacity="1"
     objecttolerance="10"
     gridtolerance="10"
     guidetolerance="10"
     inkscape:pageopacity="0"
     inkscape:pageshadow="2"
     inkscape:window-width="1920"
     inkscape:window-height="1017"
     id="namedview6973"
     showgrid="false"
     inkscape:zoom="1.84375"
     inkscape:cx="-54.508475"
     inkscape:cy="64"
     inkscape:window-x="-8"
     inkscape:window-y="-8"
     inkscape:window-maximized="1"
     inkscape:current-layer="g6957" /><rect
     id="disconnect"
     x="0"
     y="0"
     width="128"
     height="128"
     style="fill:none;" /><rect
     x="59.71"
     y="93.574"
     width="8.594"
     height="27.736"
     style="fill:#e6e6e6;fill-opacity:1"
     id="rect6953" /><rect
     x="5.993"
     y="113.422"
     width="116.014"
     height="8.549"
     style="fill:#e6e6e6;fill-opacity:1"
     id="rect6955" /><g
     id="g6957"><path
       d="M6.474,66.149c-0.299,0.906 -0.467,1.872 -0.467,2.879l0,19.431c0,5.041 4.058,9.127 9.062,9.127l24.028,0l-6.075,-5.854l-26.548,-25.583Z"
       style="fill:#7289da;fill-rule:nonzero;fill-opacity:1"
       id="path6959" /><path
       d="M88.007,68.028l20.962,0c1.199,0 2.163,0.971 2.163,2.178l0,17.074c0,1.209 -0.964,2.179 -2.163,2.179l-26.113,0c-1.199,0 -2.161,-0.97 -2.161,-2.179l0,-11.065l-2.688,0l-28.046,0l0,21.371l62.982,0c5.005,0 9.063,-4.086 9.063,-9.127l0,-19.431c0,-5.041 -4.059,-9.127 -9.063,-9.127l-24.936,0l0,8.127Z"
       style="fill:#7289da;fill-rule:nonzero;fill-opacity:1"
       id="path6961" /><path
       d="M49.961,27.408l30.734,0l0,-11.073c0,-1.202 0.966,-2.178 2.161,-2.178l26.113,0c1.197,0 2.163,0.976 2.163,2.178l0,17.075c0,1.202 -0.966,2.177 -2.163,2.177l-20.962,0l0,8.128l24.937,0c5.005,0 9.063,-4.087 9.063,-9.128l0,-19.43c0,-5.042 -4.059,-9.128 -9.063,-9.128l-62.983,0l0,21.379Z"
       style="fill:#7289da;fill-rule:nonzero;fill-opacity:1"
       id="path6963" /><path
       d="M39.095,6.029l-24.026,0c-5.004,0 -9.062,4.086 -9.062,9.128l0,19.43c0,1.009 0.169,1.977 0.469,2.884l26.545,-25.586l6.074,-5.856Z"
       style="fill:#7289da;fill-rule:nonzero;fill-opacity:1"
       id="path6965" /><path
       d="M108.969,14.157l-26.113,0c-1.195,0 -2.161,0.976 -2.161,2.178l0,11.077l7.312,0l0,8.175l20.962,0c1.197,0 2.163,-0.975 2.163,-2.177l0,-17.075c0,-1.202 -0.966,-2.178 -2.163,-2.178Z"
       style="fill:#fff;fill-rule:nonzero;"
       id="path6967" /></g><path
     d="M6.007,51.811l33.954,-32.727l0,18.324l38.046,0l0,28.807l-38.046,0l0,18.316l-33.954,-32.72Z"
     style="fill:#c90709;fill-rule:nonzero;"
     id="path6969" /><path
     d="M108.969,68.028l-20.962,0l0,8.188l-7.313,0l0,11.063c0,1.209 0.962,2.179 2.161,2.179l26.113,0c1.199,0 2.163,-0.97 2.163,-2.179l0,-17.073c0.001,-1.207 -0.963,-2.178 -2.162,-2.178Z"
     style="fill:#fff;fill-rule:nonzero;"
     id="path6971" /></svg>