<?xml version="1.0" encoding="UTF-8" standalone="no"?>
<svg
   xmlns:dc="http://purl.org/dc/elements/1.1/"
   xmlns:cc="http://creativecommons.org/ns#"
   xmlns:rdf="http://www.w3.org/1999/02/22-rdf-syntax-ns#"
   xmlns:svg="http://www.w3.org/2000/svg"
   xmlns="http://www.w3.org/2000/svg"
   xmlns:sodipodi="http://sodipodi.sourceforge.net/DTD/sodipodi-0.dtd"
   xmlns:inkscape="http://www.inkscape.org/namespaces/inkscape"
   width="100%"
   height="100%"
   viewBox="0 0 128 128"
   version="1.1"
   xml:space="preserve"
   style="fill-rule:evenodd;clip-rule:evenodd;stroke-linejoin:round;stroke-miterlimit:1.41421;"
   id="svg11936"
   inkscape:version="0.91 r13725"
   sodipodi:docname="file_home.svg"><metadata
     id="metadata11953"><rdf:RDF><cc:Work
         rdf:about=""><dc:format>image/svg+xml</dc:format><dc:type
           rdf:resource="http://purl.org/dc/dcmitype/StillImage" /></cc:Work></rdf:RDF></metadata><defs
     id="defs11951" /><sodipodi:namedview
     pagecolor="#ffffff"
     bordercolor="#666666"
     borderopacity="1"
     objecttolerance="10"
     gridtolerance="10"
     guidetolerance="10"
     inkscape:pageopacity="0"
     inkscape:pageshadow="2"
     inkscape:window-width="1920"
     inkscape:window-height="1017"
     id="namedview11949"
     showgrid="false"
     inkscape:zoom="1.84375"
     inkscape:cx="-31.186441"
     inkscape:cy="64"
     inkscape:window-x="-8"
     inkscape:window-y="-8"
     inkscape:window-maximized="1"
     inkscape:current-layer="svg11936" /><g
     transform="matrix(1,0,0,1,-1920,0)"
     id="g11938"><g
       id="file_home"
       transform="matrix(1,0,0,1,1920,0)"><rect
         x="0"
         y="0"
         width="128"
         height="128"
         style="fill:none;"
         id="rect11941" /><g
         id="Ebene_1"
         transform="matrix(1,0,0,1,-0.0005,0)"><path
           d="M110.406,30.914L64.859,30.914L64.859,24.898C64.859,20.152 61.012,16.304 56.265,16.304L17.594,16.304C12.848,16.305 9,20.152 9,24.898L9,103.1C9,107.846 12.848,111.694 17.594,111.694L110.407,111.694C115.154,111.694 119.001,107.846 119.001,103.1L119.001,45.523L119.001,44.664L119.001,39.508C119,34.762 115.153,30.914 110.406,30.914Z"
           style="fill:#7289da;fill-rule:nonzero;fill-opacity:1"
           id="path11944" /></g><g
         id="Ebene_2"
         transform="matrix(1,0,0,1,-0.0005,0)"><path
           d="M89.5,66.885L64,43.885L38.5,66.885L38.5,100.885L53.5,100.885L53.5,84.041C53.5,81.194 55.804,78.891 58.646,78.891L69.355,78.891C72.192,78.891 74.5,81.195 74.5,84.041L74.5,100.885L89.5,100.885L89.5,66.885Z"
           style="fill:#f2f2f2;fill-rule:nonzero"
           id="path11947" /></g></g></g></svg>