<?xml version="1.0" encoding="UTF-8" standalone="no"?>
<svg
   xmlns:dc="http://purl.org/dc/elements/1.1/"
   xmlns:cc="http://creativecommons.org/ns#"
   xmlns:rdf="http://www.w3.org/1999/02/22-rdf-syntax-ns#"
   xmlns:svg="http://www.w3.org/2000/svg"
   xmlns="http://www.w3.org/2000/svg"
   xmlns:sodipodi="http://sodipodi.sourceforge.net/DTD/sodipodi-0.dtd"
   xmlns:inkscape="http://www.inkscape.org/namespaces/inkscape"
   width="100%"
   height="100%"
   viewBox="0 0 128 128"
   version="1.1"
   xml:space="preserve"
   style="fill-rule:evenodd;clip-rule:evenodd;stroke-linejoin:round;stroke-miterlimit:1.41421;"
   id="svg20268"
   inkscape:version="0.91 r13725"
   sodipodi:docname="guisetup.svg"><metadata
     id="metadata20281"><rdf:RDF><cc:Work
         rdf:about=""><dc:format>image/svg+xml</dc:format><dc:type
           rdf:resource="http://purl.org/dc/dcmitype/StillImage" /></cc:Work></rdf:RDF></metadata><defs
     id="defs20279" /><sodipodi:namedview
     pagecolor="#ffffff"
     bordercolor="#666666"
     borderopacity="1"
     objecttolerance="10"
     gridtolerance="10"
     guidetolerance="10"
     inkscape:pageopacity="0"
     inkscape:pageshadow="2"
     inkscape:window-width="1920"
     inkscape:window-height="1017"
     id="namedview20277"
     showgrid="false"
     inkscape:zoom="1.84375"
     inkscape:cx="64"
     inkscape:cy="64"
     inkscape:window-x="-8"
     inkscape:window-y="-8"
     inkscape:window-maximized="1"
     inkscape:current-layer="svg20268" /><rect
     id="guisetup"
     x="0"
     y="0"
     width="128"
     height="128"
     style="fill:none;" /><path
     d="M91.478,59.749l9.418,28.511c1.186,3.587 0.248,7.536 -2.424,10.207c-1.905,1.906 -4.461,2.93 -7.072,2.93c-1.049,0 -2.106,-0.165 -3.134,-0.504l-28.511,-9.412c-1.541,-0.509 -2.913,-1.376 -4.019,-2.508l-34.255,-34.26l0,56.769l90,0l0,-80.002l-46.763,0l24.217,24.218c1.149,1.111 2.029,2.494 2.543,4.051Z"
     style="fill:none;"
     id="path20271" /><path
     d="M44.72,11.481l19.998,19.999l46.763,0l0,80.002l-90,0l0,-56.769l-10,-10.001l0,76.769l110,0l0,-110l-76.761,0Z"
     style="fill:#a9aaac;fill-rule:nonzero;fill-opacity:1"
     id="path20273" /><path
     d="M81.979,62.884l-54.133,-54.135c-1.565,-1.508 -3.493,-2.258 -5.775,-2.229c-2.271,0.024 -4.187,0.845 -5.754,2.458l-7.354,7.337c-1.6,1.57 -2.417,3.478 -2.444,5.761c-0.024,2.287 0.72,4.208 2.239,5.77l54.126,54.133c0.063,-0.096 0.065,-0.094 0.005,0.006l28.511,9.412l-9.418,-28.511c-0.081,0.052 -0.085,0.05 -0.003,-0.002Z"
     style="fill:#7289da;fill-rule:nonzero;fill-opacity:1"
     id="path20275" /></svg>