<?xml version="1.0" encoding="UTF-8" standalone="no"?>
<svg
   xmlns:dc="http://purl.org/dc/elements/1.1/"
   xmlns:cc="http://creativecommons.org/ns#"
   xmlns:rdf="http://www.w3.org/1999/02/22-rdf-syntax-ns#"
   xmlns:svg="http://www.w3.org/2000/svg"
   xmlns="http://www.w3.org/2000/svg"
   xmlns:sodipodi="http://sodipodi.sourceforge.net/DTD/sodipodi-0.dtd"
   xmlns:inkscape="http://www.inkscape.org/namespaces/inkscape"
   width="100%"
   height="100%"
   viewBox="0 0 128 128"
   version="1.1"
   xml:space="preserve"
   style="fill-rule:evenodd;clip-rule:evenodd;stroke-linejoin:round;stroke-miterlimit:1.41421;"
   id="svg4136"
   inkscape:version="0.92.2 (5c3e80d, 2017-08-06)"
   sodipodi:docname="iconsview.svg"><metadata
     id="metadata4163"><rdf:RDF><cc:Work
         rdf:about=""><dc:format>image/svg+xml</dc:format><dc:type
           rdf:resource="http://purl.org/dc/dcmitype/StillImage" /></cc:Work></rdf:RDF></metadata><defs
     id="defs4161" /><sodipodi:namedview
     pagecolor="#ffffff"
     bordercolor="#666666"
     borderopacity="1"
     objecttolerance="10"
     gridtolerance="10"
     guidetolerance="10"
     inkscape:pageopacity="0"
     inkscape:pageshadow="2"
     inkscape:window-width="1920"
     inkscape:window-height="1017"
     id="namedview4159"
     showgrid="false"
     inkscape:zoom="6.640625"
     inkscape:cx="31.096471"
     inkscape:cy="64"
     inkscape:window-x="-8"
     inkscape:window-y="-8"
     inkscape:window-maximized="1"
     inkscape:current-layer="g4155" /><g
     transform="matrix(1,0,0,1,-2304,-480)"
     id="g4138"><g
       id="iconsview"
       transform="matrix(1,0,0,1.37634,2304,294.194)"><rect
         x="0"
         y="135"
         width="128"
         height="93"
         style="fill:none;"
         id="rect4141" /><g
         transform="matrix(1,0,0,0.726562,0,135)"
         id="g4143"><path
           d="M52.182,69C55.948,69 59,72.052 59,75.819L59,112.18C59,115.948 55.948,118.999 52.182,118.999L15.818,118.999C12.052,119 9,115.948 9,112.181L9,75.819C9,72.052 12.052,69 15.818,69L52.182,69Z"
           style="fill:#cccccc;fill-rule:nonzero"
           id="path4145" /></g><g
         transform="matrix(1,0,0,0.726562,0,135)"
         id="g4147"><path
           d="M112.18,9C115.95,9 119,12.051 119,15.82L119,52.18C119,55.95 115.949,59 112.18,59L75.82,59C72.051,59 69,55.949 69,52.18L69,15.82C69,12.051 72.051,9 75.819,9L112.18,9Z"
           style="fill:#e6e6e6;fill-rule:nonzero"
           id="path4149" /></g><g
         transform="matrix(1,0,0,0.726562,0,135)"
         id="g4151"><path
           d="M112.18,69C115.95,69 119,72.052 119,75.819L119,112.18C119,115.948 115.949,118.999 112.18,118.999L75.818,118.999C72.05,119 69,115.948 69,112.181L69,75.819C69,72.052 72.05,69 75.818,69L112.18,69Z"
           style="fill:#f2f2f2;fill-rule:nonzero;fill-opacity:1"
           id="path4153" /></g><g
         transform="matrix(1,0,0,0.726562,0,135)"
         id="g4155"><path
           d="M52.182,9C55.948,9 59,12.051 59,15.82L59,52.18C59,55.95 55.948,59 52.182,59L15.818,59C12.052,59 9,55.95 9,52.181L9,15.82C9,12.051 12.052,9 15.818,9L52.182,9Z"
           style="fill:#7289da;fill-rule:nonzero;fill-opacity:1"
           id="path4157" /></g></g></g></svg>