<?xml version="1.0" encoding="UTF-8" standalone="no"?>
<svg
   xmlns:dc="http://purl.org/dc/elements/1.1/"
   xmlns:cc="http://creativecommons.org/ns#"
   xmlns:rdf="http://www.w3.org/1999/02/22-rdf-syntax-ns#"
   xmlns:svg="http://www.w3.org/2000/svg"
   xmlns="http://www.w3.org/2000/svg"
   xmlns:sodipodi="http://sodipodi.sourceforge.net/DTD/sodipodi-0.dtd"
   xmlns:inkscape="http://www.inkscape.org/namespaces/inkscape"
   width="100%"
   height="100%"
   viewBox="0 0 128 128"
   version="1.1"
   xml:space="preserve"
   style="fill-rule:evenodd;clip-rule:evenodd;stroke-linejoin:round;stroke-miterlimit:1.41421;"
   id="svg4714"
   inkscape:version="0.92.2 (5c3e80d, 2017-08-06)"
   sodipodi:docname="iconviewer.svg"><metadata
     id="metadata4737"><rdf:RDF><cc:Work
         rdf:about=""><dc:format>image/svg+xml</dc:format><dc:type
           rdf:resource="http://purl.org/dc/dcmitype/StillImage" /></cc:Work></rdf:RDF></metadata><defs
     id="defs4735" /><sodipodi:namedview
     pagecolor="#ffffff"
     bordercolor="#666666"
     borderopacity="1"
     objecttolerance="10"
     gridtolerance="10"
     guidetolerance="10"
     inkscape:pageopacity="0"
     inkscape:pageshadow="2"
     inkscape:window-width="1920"
     inkscape:window-height="1017"
     id="namedview4733"
     showgrid="false"
     inkscape:zoom="1.84375"
     inkscape:cx="-54.508475"
     inkscape:cy="64"
     inkscape:window-x="-8"
     inkscape:window-y="-8"
     inkscape:window-maximized="1"
     inkscape:current-layer="g4721" /><g
     transform="matrix(1,0,0,1,-2304,-640)"
     id="g4716"><g
       id="iconviewer"
       transform="matrix(1,0,0,1.37634,2304,454.194)"><rect
         x="0"
         y="135"
         width="128"
         height="93"
         style="fill:none;"
         id="rect4719" /><g
         transform="matrix(1,0,0,0.726562,0,135)"
         id="g4721"><path
           d="M104,9L24,9C15.716,9 9,15.716 9,24L9,104C9,112.284 15.716,119 24,119L104,119C112.284,119 119,112.284 119,104L119,24C119,15.716 112.284,9 104,9Z"
           style="fill:#7289da;fill-rule:nonzero;fill-opacity:1"
           id="path4723" /></g><g
         transform="matrix(1,0,0,0.726562,0,135)"
         id="g4725"><path
           d="M104,63.996C104,80.057 86.098,93.095 64,93.095C41.903,93.095 24,80.057 24,63.996C24,47.927 41.903,34.911 64,34.911C86.098,34.911 104,47.927 104,63.996ZM64,40.02C50.796,40.02 40.106,50.751 40.106,64.008C40.106,77.242 50.795,87.982 64,87.982C77.196,87.982 87.894,77.243 87.894,64.008C87.894,50.751 77.196,40.02 64,40.02Z"
           style="fill:white;fill-rule:nonzero;"
           id="path4727" /></g><g
         transform="matrix(1,0,0,0.726562,0,135)"
         id="g4729"><path
           d="M89.492,56.825C89.492,63.617 84.022,69.138 77.286,69.138C70.513,69.138 65.045,63.616 65.045,56.825C65.045,50.025 70.513,44.515 77.286,44.515C84.022,44.515 89.492,50.025 89.492,56.825Z"
           style="fill:white;fill-rule:nonzero;"
           id="path4731" /></g></g></g></svg>