<?xml version="1.0" encoding="UTF-8" standalone="no"?>
<svg
   xmlns:dc="http://purl.org/dc/elements/1.1/"
   xmlns:cc="http://creativecommons.org/ns#"
   xmlns:rdf="http://www.w3.org/1999/02/22-rdf-syntax-ns#"
   xmlns:svg="http://www.w3.org/2000/svg"
   xmlns="http://www.w3.org/2000/svg"
   xmlns:sodipodi="http://sodipodi.sourceforge.net/DTD/sodipodi-0.dtd"
   xmlns:inkscape="http://www.inkscape.org/namespaces/inkscape"
   width="100%"
   height="100%"
   viewBox="0 0 128 128"
   version="1.1"
   xml:space="preserve"
   style="fill-rule:evenodd;clip-rule:evenodd;stroke-linejoin:round;stroke-miterlimit:1.41421;"
   id="svg11950"
   inkscape:version="0.92.2 (5c3e80d, 2017-08-06)"
   sodipodi:docname="kick_channel.svg"><metadata
     id="metadata11969"><rdf:RDF><cc:Work
         rdf:about=""><dc:format>image/svg+xml</dc:format><dc:type
           rdf:resource="http://purl.org/dc/dcmitype/StillImage" /></cc:Work></rdf:RDF></metadata><defs
     id="defs11967" /><sodipodi:namedview
     pagecolor="#ffffff"
     bordercolor="#666666"
     borderopacity="1"
     objecttolerance="10"
     gridtolerance="10"
     guidetolerance="10"
     inkscape:pageopacity="0"
     inkscape:pageshadow="2"
     inkscape:window-width="1920"
     inkscape:window-height="1017"
     id="namedview11965"
     showgrid="false"
     inkscape:zoom="1.84375"
     inkscape:cx="-54.508475"
     inkscape:cy="64"
     inkscape:window-x="-8"
     inkscape:window-y="-8"
     inkscape:window-maximized="1"
     inkscape:current-layer="g11957" /><g
     transform="matrix(1,0,0,1,-2688,0)"
     id="g11952"><g
       id="kick_channel"
       transform="matrix(1,0,0,1,2688,0)"><rect
         x="0"
         y="0"
         width="128"
         height="128"
         style="fill:none;"
         id="rect11955" /><g
         transform="matrix(1,0,0,1,8.0822,0)"
         id="g11957"><path
           d="M108,62.28C107,61.36 106.94,60.28 106.62,59.28C104.34,52.15 100.14,49.28 92.62,50.53C87.79,51.31 83.05,52.66 78.29,53.84C72.24,55.35 66.21,56.84 59.92,55.28C49.31,52.2 41,46.94 38.61,34.94C37.61,30.13 34.9,29.7 31.09,32.74C30.05,33.533 29.089,34.423 28.22,35.4C22.55,42.07 15.29,46.22 7.11,49C0.65,51.27 -0.56,53.69 2,60.17C4.661,66.475 6.672,73.036 8,79.75C8.32,90.86 14.58,99.66 19.43,109C20.54,111.15 22.06,111.36 24.32,110.46C32.22,107.32 40.19,104.37 48.17,101.46C49.65,100.91 50.99,100.3 51.03,98.54C51.21,91.44 56.28,90.79 61.31,91.45C74.17,93.12 84.93,87.77 95.68,82.1C100.47,79.57 105.15,76.83 108.68,72.61C112.07,68.54 111.91,65.83 108,62.28Z"
           style="fill:#7289da;fill-rule:nonzero;fill-opacity:1"
           id="path11959" /></g><g
         transform="matrix(1,0,0,1,8.0822,0)"
         id="g11961"><path
           d="M81.85,45.33C64.25,45.33 53.78,33.01 57.85,17.17C60.14,8.37 68,2 77.94,1C80.55,0.818 83.17,0.818 85.78,1C91.49,1.26 91.78,1.87 91.13,7.41C90.78,10.29 89.8,10.53 87.13,10.09C78.92,8.72 73,11.6 70.87,17.64C69,22.73 69.31,27.72 72.82,32C76.73,36.77 82.14,36.77 87.69,36C88.96,35.83 91.36,33.82 91.29,36.77C91.22,39.35 94.53,43 89.65,44.66C87.09,45.56 84.46,45.25 81.85,45.33Z"
           style="fill:#c90709;fill-rule:nonzero;fill-opacity:1"
           id="path11963" /></g></g></g></svg>