<?xml version="1.0" encoding="UTF-8" standalone="no"?>
<svg
   xmlns:dc="http://purl.org/dc/elements/1.1/"
   xmlns:cc="http://creativecommons.org/ns#"
   xmlns:rdf="http://www.w3.org/1999/02/22-rdf-syntax-ns#"
   xmlns:svg="http://www.w3.org/2000/svg"
   xmlns="http://www.w3.org/2000/svg"
   xmlns:sodipodi="http://sodipodi.sourceforge.net/DTD/sodipodi-0.dtd"
   xmlns:inkscape="http://www.inkscape.org/namespaces/inkscape"
   width="100%"
   height="100%"
   viewBox="0 0 128 128"
   version="1.1"
   xml:space="preserve"
   style="fill-rule:evenodd;clip-rule:evenodd;stroke-linejoin:round;stroke-miterlimit:1.41421;"
   id="svg13072"
   inkscape:version="0.92.2 (5c3e80d, 2017-08-06)"
   sodipodi:docname="listview.svg"><metadata
     id="metadata13093"><rdf:RDF><cc:Work
         rdf:about=""><dc:format>image/svg+xml</dc:format><dc:type
           rdf:resource="http://purl.org/dc/dcmitype/StillImage" /></cc:Work></rdf:RDF></metadata><defs
     id="defs13091" /><sodipodi:namedview
     pagecolor="#ffffff"
     bordercolor="#666666"
     borderopacity="1"
     objecttolerance="10"
     gridtolerance="10"
     guidetolerance="10"
     inkscape:pageopacity="0"
     inkscape:pageshadow="2"
     inkscape:window-width="1920"
     inkscape:window-height="1017"
     id="namedview13089"
     showgrid="false"
     inkscape:zoom="1.84375"
     inkscape:cx="-54.508475"
     inkscape:cy="64"
     inkscape:window-x="-8"
     inkscape:window-y="-8"
     inkscape:window-maximized="1"
     inkscape:current-layer="listview" /><g
     transform="matrix(1,0,0,1,-2688,-320)"
     id="g13074"><g
       id="listview"
       transform="matrix(1,0,0,1,2688,320)"><rect
         x="0"
         y="0"
         width="128"
         height="128"
         style="fill:none;"
         id="rect13077" /><path
         d="M80.177,31.5L28.158,31.5C25.396,31.5 23.158,33.739 23.158,36.5C23.158,39.261 25.396,41.5 28.158,41.5L69.928,41.5C72.336,37.06 75.852,33.644 80.177,31.5Z"
         style="fill:#a9aaac;fill-rule:nonzero;fill-opacity:1"
         id="path13079" /><path
         d="M28.158,86.5C25.396,86.5 23.158,88.738 23.158,91.5C23.158,94.262 25.396,96.5 28.158,96.5L53.732,96.5C54.636,92.541 55.837,88.963 57.435,86.5L28.158,86.5Z"
         style="fill:#a9aaac;fill-rule:nonzero;fill-opacity:1"
         id="path13081" /><path
         d="M64.742,64.894L64.736,64.866C64.407,63.35 64.106,61.27 64.175,59.001L28.158,59.001C25.396,59.001 23.158,61.24 23.158,64.001C23.158,66.763 25.396,69.001 28.158,69.001L66.028,69.001C65.509,67.743 65.074,66.387 64.747,64.923L64.742,64.894Z"
         style="fill:#a9aaac;fill-rule:nonzero;fill-opacity:1"
         id="path13083" /><path
         d="M51.518,112L20.999,112C19.417,112 18.024,111.252 17.108,110.106C16.424,109.251 15.999,108.181 15.999,107.001L15.999,20.999C15.999,18.237 18.237,15.999 20.999,15.999L93.486,15.999C95.902,15.999 97.918,17.712 98.384,19.991C98.45,20.317 98.486,20.654 98.486,20.999L98.486,29.833C102.336,30.867 105.708,32.79 108.484,35.435L108.484,20.999C108.484,20.324 108.423,19.664 108.338,19.012C107.494,12.678 102.697,7.575 96.506,6.305C96.281,6.259 96.051,6.237 95.824,6.201C95.061,6.081 94.283,6 93.486,6L52.333,6L20.999,6C12.728,6 6,12.728 6,20.999L6,107.001C6,107.518 6.026,108.028 6.077,108.532C6.847,116.086 13.245,122 20.999,122L50.998,122L51.002,121.786C51.035,120.256 51.148,116.546 51.518,112Z"
         style="fill:#a9aaac;fill-rule:nonzero;fill-opacity:1"
         id="path13085" /><path
         d="M106.423,83.666C105.312,83.353 104.275,83.058 103.249,82.535C101.895,81.855 97.563,78.662 98.185,78.008C101.315,74.612 102.53,73.719 104.1,69.862L104.587,68.646L105.699,68.072C106.613,67.592 107.851,65.759 108.508,62.742C108.889,61.023 108.975,59.286 108.73,57.976C108.551,57.043 108.27,56.546 108.048,56.398L106.77,55.477L106.565,53.807C105.573,44.995 100.526,38.938 91.53,38.938C82.524,38.938 77.471,44.991 76.464,53.805L76.28,55.481L74.969,56.398C74.76,56.546 74.474,57.036 74.299,57.976C74.056,59.287 74.135,61.025 74.508,62.744C75.183,65.768 76.404,67.597 77.332,68.073L78.443,68.646L78.95,69.871C80.51,73.719 81.849,74.739 84.857,78.008C85.661,78.877 81.159,81.851 79.794,82.535C78.764,83.06 77.708,83.354 76.608,83.666C73.538,84.522 70.049,85.513 65.818,91.947C62.645,96.799 61.183,113.448 61,122L122,122C121.91,115.953 120.867,97.513 117.207,91.947C112.989,85.514 109.514,84.523 106.423,83.666Z"
         style="fill:#7289da;fill-rule:nonzero;fill-opacity:1"
         id="path13087" /></g></g></svg>