<?xml version="1.0" encoding="UTF-8" standalone="no"?>
<svg
   xmlns:dc="http://purl.org/dc/elements/1.1/"
   xmlns:cc="http://creativecommons.org/ns#"
   xmlns:rdf="http://www.w3.org/1999/02/22-rdf-syntax-ns#"
   xmlns:svg="http://www.w3.org/2000/svg"
   xmlns="http://www.w3.org/2000/svg"
   xmlns:sodipodi="http://sodipodi.sourceforge.net/DTD/sodipodi-0.dtd"
   xmlns:inkscape="http://www.inkscape.org/namespaces/inkscape"
   width="100%"
   height="100%"
   viewBox="0 0 128 128"
   version="1.1"
   xml:space="preserve"
   style="fill-rule:evenodd;clip-rule:evenodd;stroke-linejoin:round;stroke-miterlimit:1.41421;"
   id="svg19764"
   inkscape:version="0.91 r13725"
   sodipodi:docname="notifications.svg"><metadata
     id="metadata19777"><rdf:RDF><cc:Work
         rdf:about=""><dc:format>image/svg+xml</dc:format><dc:type
           rdf:resource="http://purl.org/dc/dcmitype/StillImage" /></cc:Work></rdf:RDF></metadata><defs
     id="defs19775" /><sodipodi:namedview
     pagecolor="#ffffff"
     bordercolor="#666666"
     borderopacity="1"
     objecttolerance="10"
     gridtolerance="10"
     guidetolerance="10"
     inkscape:pageopacity="0"
     inkscape:pageshadow="2"
     inkscape:window-width="1920"
     inkscape:window-height="1017"
     id="namedview19773"
     showgrid="false"
     inkscape:zoom="1.84375"
     inkscape:cx="64"
     inkscape:cy="64"
     inkscape:window-x="-8"
     inkscape:window-y="-8"
     inkscape:window-maximized="1"
     inkscape:current-layer="svg19764" /><rect
     id="notifications"
     x="0"
     y="0"
     width="128"
     height="128"
     style="fill:none;" /><path
     d="M95.651,12.505l-63.304,0c-12.893,0 -23.347,10.454 -23.347,23.348l0,30.299c0,12.897 10.454,23.348 23.347,23.348l34.539,0c2.035,5.361 4.119,16.285 -6.902,25.995c20.145,-3.741 29.606,-19.512 32.702,-25.995l2.966,0c12.893,0 23.348,-10.451 23.348,-23.348l0,-30.299c0,-12.894 -10.455,-23.348 -23.349,-23.348Z"
     style="fill:#7289da;fill-rule:nonzero;fill-opacity:1"
     id="path19767" /><path
     d="M71.5,73.869c0,0.971 -0.343,1.788 -1.022,2.443c-0.681,0.672 -1.518,1.005 -2.507,1.005l-7.941,0c-0.99,0 -1.829,-0.344 -2.51,-1.023c-0.679,-0.686 -1.02,-1.487 -1.02,-2.425l0,-25.073c0,-0.968 0.341,-1.782 1.02,-2.445c0.681,-0.669 1.52,-0.998 2.51,-0.998l7.941,0c0.989,0 1.826,0.329 2.507,0.998c0.68,0.663 1.022,1.477 1.022,2.445l0,25.073Z"
     style="fill:#fff;fill-rule:nonzero;"
     id="path19769" /><path
     d="M71.5,35.148c0,0.969 -0.343,1.788 -1.022,2.445c-0.681,0.668 -1.518,1.003 -2.507,1.003l-7.941,0c-0.99,0 -1.829,-0.344 -2.51,-1.024c-0.679,-0.684 -1.02,-1.489 -1.02,-2.425l0,-7.388c0,-0.97 0.341,-1.781 1.02,-2.446c0.681,-0.669 1.52,-0.998 2.51,-0.998l7.941,0c0.989,0 1.826,0.329 2.507,0.998c0.68,0.665 1.022,1.476 1.022,2.446l0,7.389Z"
     style="fill:#fff;fill-rule:nonzero;"
     id="path19771" /></svg>