<?xml version="1.0" encoding="UTF-8" standalone="no"?>
<svg
   xmlns:dc="http://purl.org/dc/elements/1.1/"
   xmlns:cc="http://creativecommons.org/ns#"
   xmlns:rdf="http://www.w3.org/1999/02/22-rdf-syntax-ns#"
   xmlns:svg="http://www.w3.org/2000/svg"
   xmlns="http://www.w3.org/2000/svg"
   xmlns:sodipodi="http://sodipodi.sourceforge.net/DTD/sodipodi-0.dtd"
   xmlns:inkscape="http://www.inkscape.org/namespaces/inkscape"
   width="100%"
   height="100%"
   viewBox="0 0 128 128"
   version="1.1"
   xml:space="preserve"
   style="fill-rule:evenodd;clip-rule:evenodd;stroke-linejoin:round;stroke-miterlimit:1.41421;"
   id="svg21454"
   inkscape:version="0.92.2 (5c3e80d, 2017-08-06)"
   sodipodi:docname="output_muted.svg"><metadata
     id="metadata21493"><rdf:RDF><cc:Work
         rdf:about=""><dc:format>image/svg+xml</dc:format><dc:type
           rdf:resource="http://purl.org/dc/dcmitype/StillImage" /></cc:Work></rdf:RDF></metadata><sodipodi:namedview
     pagecolor="#ffffff"
     bordercolor="#666666"
     borderopacity="1"
     objecttolerance="10"
     gridtolerance="10"
     guidetolerance="10"
     inkscape:pageopacity="0"
     inkscape:pageshadow="2"
     inkscape:window-width="1920"
     inkscape:window-height="1017"
     id="namedview21491"
     showgrid="false"
     inkscape:zoom="5.2149125"
     inkscape:cx="53.27506"
     inkscape:cy="81.146908"
     inkscape:window-x="-8"
     inkscape:window-y="-8"
     inkscape:window-maximized="1"
     inkscape:current-layer="output_muted" /><g
     transform="matrix(1,0,0,1,-3072,-160)"
     id="g21456"><g
       id="output_muted"
       transform="matrix(1,0,0,1,3072,160)"><rect
         x="0"
         y="0"
         width="128"
         height="128"
         style="fill:none;"
         id="rect21459" /><path
         d="M67.427,46.207L67.427,46.066L66.591,46.066C66.871,46.106 67.151,46.148 67.427,46.207Z"
         style="fill:url(#_Linear1);fill-rule:nonzero;"
         id="path21461" /><path
         d="M113.975,90.105C115.132,87.253 116.106,84.34 116.864,81.362L111.052,87.174L113.975,90.105Z"
         style="fill:#7289da;fill-rule:nonzero;fill-opacity:1"
         id="path21463" /><path
         d="M96.433,46.065C96.251,45.59 96.076,45.112 95.878,44.642C93.332,38.518 89.653,33.074 84.944,28.463C83.249,26.802 80.528,26.83 78.868,28.526C77.208,30.221 77.235,32.942 78.931,34.602C82.322,37.923 85.065,41.77 87.108,46.066C87.403,46.686 87.683,47.315 87.948,47.952C89.5,51.659 90.488,55.55 90.913,59.565L98.331,52.143C97.831,50.079 97.194,48.053 96.433,46.065Z"
         style="fill:#7289da;fill-rule:nonzero;fill-opacity:1"
         id="path21465" /><path
         d="M116.66,46.065C115.849,43.023 114.844,40.039 113.614,37.135C110.058,28.718 105.013,21.203 98.616,14.8C96.938,13.121 94.219,13.119 92.539,14.797C90.86,16.474 90.858,19.194 92.536,20.874C98.146,26.49 102.574,33.086 105.698,40.482C106.471,42.31 107.15,44.172 107.734,46.065C107.813,46.321 107.879,46.582 107.954,46.84C108.295,46.813 108.637,46.79 108.982,46.79C112.243,46.79 115.291,47.995 117.631,50.168C117.355,48.788 117.021,47.423 116.66,46.065Z"
         style="fill:#7289da;fill-rule:nonzero;fill-opacity:1"
         id="path21467" /><path
         d="M67.426,9L39.229,38.662L39.229,89.319L49.938,100.591C50.115,100.392 50.286,100.19 50.476,100L63.306,87.131L49.853,73.491C47.45,71.068 46.127,67.875 46.127,64.491C46.127,61.098 47.458,57.895 49.885,55.461L55.744,49.603C57.689,47.665 60.174,46.453 62.87,46.065C63.481,45.978 64.099,45.918 64.729,45.918C65.359,45.918 65.978,45.978 66.59,46.065L67.426,46.065L67.426,9Z"
         style="fill:#a9aaac;fill-rule:nonzero;fill-opacity:1"
         id="path21469" /><path
         d="M17.467,38.662C15.081,38.662 13.077,39.505 11.45,41.177C10.072,42.584 9.285,44.218 9.069,46.065C9.028,46.414 9,46.766 9,47.13L9,80.853C9,83.14 9.813,85.134 11.45,86.796C13.077,88.478 15.08,89.319 17.467,89.319L30.635,89.319L30.635,46.065L30.635,38.662L17.467,38.662Z"
         style="fill:#a9aaac;fill-rule:nonzero;fill-opacity:1"
         id="path21471" /><path
         d="M98.908,87.164L117.752,106.068C118.584,106.894 119,107.879 119,109.018C119,110.157 118.584,111.122 117.752,111.909L111.908,117.757C111.123,118.586 110.144,119 108.982,119C107.826,119 106.848,118.586 106.059,117.757L87.16,98.92L68.255,117.757C67.466,118.586 66.491,119 65.331,119C64.172,119 63.199,118.586 62.409,117.757L56.562,111.909C55.734,111.122 55.321,110.158 55.321,109.018C55.321,107.878 55.734,106.894 56.562,106.068L75.408,87.164L55.962,67.447C55.133,66.617 54.721,65.633 54.721,64.492C54.721,63.355 55.133,62.369 55.962,61.539L61.808,55.693C62.598,54.906 63.571,54.512 64.73,54.512C65.891,54.512 66.865,54.906 67.654,55.693L87.16,75.474L106.059,56.566C106.848,55.779 107.826,55.385 108.982,55.385C110.144,55.385 111.123,55.78 111.908,56.566L117.752,62.412C118.584,63.243 119,64.228 119,65.365C119,66.506 118.584,67.489 117.752,68.32L98.908,87.164Z"
         style="fill:rgb(201,7,9);fill-rule:nonzero;"
         id="path21473" /></g></g><defs
     id="defs21475"><linearGradient
       id="_Linear1"
       x1="0"
       y1="0"
       x2="1"
       y2="0"
       gradientUnits="userSpaceOnUse"
       gradientTransform="matrix(6.56141e-15,-107.156,107.156,6.56141e-15,67.0088,117.557)"><stop
         offset="0"
         style="stop-color:rgb(16,23,25);stop-opacity:1"
         id="stop21478" /><stop
         offset="0.1"
         style="stop-color:rgb(16,23,25);stop-opacity:1"
         id="stop21480" /><stop
         offset="1"
         style="stop-color:rgb(183,185,186);stop-opacity:1"
         id="stop21482" /></linearGradient><linearGradient
       id="_Linear2"
       x1="0"
       y1="0"
       x2="1"
       y2="0"
       gradientUnits="userSpaceOnUse"
       gradientTransform="matrix(6.73531e-15,-109.996,109.996,6.73531e-15,113.957,119)"><stop
         offset="0"
         style="stop-color:rgb(66,96,128);stop-opacity:1"
         id="stop21485" /><stop
         offset="0.3"
         style="stop-color:rgb(66,96,128);stop-opacity:1"
         id="stop21487" /><stop
         offset="1"
         style="stop-color:rgb(129,156,189);stop-opacity:1"
         id="stop21489" /></linearGradient></defs></svg>