<?xml version="1.0" encoding="UTF-8" standalone="no"?>
<svg
   xmlns:dc="http://purl.org/dc/elements/1.1/"
   xmlns:cc="http://creativecommons.org/ns#"
   xmlns:rdf="http://www.w3.org/1999/02/22-rdf-syntax-ns#"
   xmlns:svg="http://www.w3.org/2000/svg"
   xmlns="http://www.w3.org/2000/svg"
   xmlns:sodipodi="http://sodipodi.sourceforge.net/DTD/sodipodi-0.dtd"
   xmlns:inkscape="http://www.inkscape.org/namespaces/inkscape"
   width="100%"
   height="100%"
   viewBox="0 0 128 128"
   version="1.1"
   xml:space="preserve"
   style="fill-rule:evenodd;clip-rule:evenodd;stroke-linejoin:round;stroke-miterlimit:1.41421;"
   id="svg24287"
   inkscape:version="0.92.2 (5c3e80d, 2017-08-06)"
   sodipodi:docname="phoneticsnickname.svg"><metadata
     id="metadata24300"><rdf:RDF><cc:Work
         rdf:about=""><dc:format>image/svg+xml</dc:format><dc:type
           rdf:resource="http://purl.org/dc/dcmitype/StillImage" /></cc:Work></rdf:RDF></metadata><defs
     id="defs24298" /><sodipodi:namedview
     pagecolor="#ffffff"
     bordercolor="#666666"
     borderopacity="1"
     objecttolerance="10"
     gridtolerance="10"
     guidetolerance="10"
     inkscape:pageopacity="0"
     inkscape:pageshadow="2"
     inkscape:window-width="1920"
     inkscape:window-height="1017"
     id="namedview24296"
     showgrid="false"
     inkscape:zoom="1.84375"
     inkscape:cx="64"
     inkscape:cy="64"
     inkscape:window-x="-8"
     inkscape:window-y="-8"
     inkscape:window-maximized="1"
     inkscape:current-layer="svg24287" /><rect
     id="phoneticsnickname"
     x="0"
     y="0"
     width="128"
     height="128"
     style="fill:none;" /><path
     d="M9,115l0,-102l23.268,0l0,8.392l-13.259,0l0,85.215l13.259,0l0,8.393l-23.268,0Z"
     style="fill:#7289da;fill-rule:nonzero;fill-opacity:1"
     id="path24290" /><path
     d="M39.122,36.183c4.264,-1.824 11.479,-4.183 21.768,-4.183c19.75,0 31.61,12.959 31.61,32.089c0,18.998 -11.475,33.911 -30.298,33.911c-21.09,0 -26.702,-18.055 -26.702,-29.567c0,-2.396 0.161,-4.218 0.417,-5.382l45.396,0c-0.288,-15.604 -9.909,-22.022 -22.025,-22.022c-8.306,0 -13.368,1.447 -18.049,3.271l-2.117,-8.117Zm7.729,35.109c-0.132,7.205 3.074,18.466 16.283,18.466c12.153,0 17.085,-10.479 18.016,-18.466l-34.299,0Z"
     style="fill:#a9aaac;fill-rule:nonzero;fill-opacity:1"
     id="path24292" /><path
     d="M119,13l0,102l-23.27,0l0,-8.394l13.259,0l0,-85.214l-13.259,0l0,-8.392l23.27,0Z"
     style="fill:#7289da;fill-rule:nonzero;fill-opacity:1"
     id="path24294" /></svg>