<?xml version="1.0" encoding="UTF-8" standalone="no"?>
<svg
   xmlns:dc="http://purl.org/dc/elements/1.1/"
   xmlns:cc="http://creativecommons.org/ns#"
   xmlns:rdf="http://www.w3.org/1999/02/22-rdf-syntax-ns#"
   xmlns:svg="http://www.w3.org/2000/svg"
   xmlns="http://www.w3.org/2000/svg"
   xmlns:sodipodi="http://sodipodi.sourceforge.net/DTD/sodipodi-0.dtd"
   xmlns:inkscape="http://www.inkscape.org/namespaces/inkscape"
   width="100%"
   height="100%"
   viewBox="0 0 128 128"
   version="1.1"
   xml:space="preserve"
   style="fill-rule:evenodd;clip-rule:evenodd;stroke-linejoin:round;stroke-miterlimit:1.41421;"
   id="svg26501"
   inkscape:version="0.92.2 (5c3e80d, 2017-08-06)"
   sodipodi:docname="ping_3.svg"><metadata
     id="metadata26516"><rdf:RDF><cc:Work
         rdf:about=""><dc:format>image/svg+xml</dc:format><dc:type
           rdf:resource="http://purl.org/dc/dcmitype/StillImage" /><dc:title></dc:title></cc:Work></rdf:RDF></metadata><defs
     id="defs26514" /><sodipodi:namedview
     pagecolor="#ffffff"
     bordercolor="#666666"
     borderopacity="1"
     objecttolerance="10"
     gridtolerance="10"
     guidetolerance="10"
     inkscape:pageopacity="0"
     inkscape:pageshadow="2"
     inkscape:window-width="1920"
     inkscape:window-height="1017"
     id="namedview26512"
     showgrid="false"
     inkscape:zoom="1.84375"
     inkscape:cx="64"
     inkscape:cy="64"
     inkscape:window-x="-8"
     inkscape:window-y="-8"
     inkscape:window-maximized="1"
     inkscape:current-layer="svg26501" /><rect
     id="ping_4"
     x="0"
     y="0"
     width="128"
     height="128"
     style="fill:none;" /><path
     d="M72.851,97.65c-4.883,-4.867 -12.818,-4.866 -17.694,0.001c-4.875,4.882 -4.875,12.816 0,17.699c4.876,4.866 12.812,4.866 17.693,0c4.867,-4.882 4.867,-12.817 0.001,-17.7Z"
     style="fill:#7289da;fill-rule:nonzero;fill-opacity:1"
     id="path26504" /><path
     d="M98.509,35.514c4.391,1.68 8.687,3.68 12.841,6.025l7.65,-13.251c-32.021,-25.717 -77.993,-25.718 -110,0l7.649,13.249c4.181,-2.36 8.505,-4.372 12.925,-6.058c22.013,-8.84 46.929,-8.828 68.935,0.035Z"
     style="fill:#a9aaac;fill-rule:nonzero;fill-opacity:1"
     id="path26506" /><path
     d="M34.376,72.243l8.66,15.001c13.767,-3.188 28.162,-3.188 41.928,0l8.66,-15.001c-18.989,-7.259 -40.258,-7.259 -59.248,0Z"
     style="fill:#7289da;fill-rule:nonzero;fill-opacity:1"
     id="path26508" /><path
     d="M98.632,63.566l7.615,-13.189c-25.809,-15.428 -58.685,-15.428 -84.495,0l7.614,13.189c22.106,-8.941 47.16,-8.941 69.266,0Z"
     style="fill:#7289da;fill-rule:nonzero;fill-opacity:1"
     id="path26510" /></svg>