<?xml version="1.0" encoding="UTF-8" standalone="no"?>
<svg
   xmlns:dc="http://purl.org/dc/elements/1.1/"
   xmlns:cc="http://creativecommons.org/ns#"
   xmlns:rdf="http://www.w3.org/1999/02/22-rdf-syntax-ns#"
   xmlns:svg="http://www.w3.org/2000/svg"
   xmlns="http://www.w3.org/2000/svg"
   xmlns:sodipodi="http://sodipodi.sourceforge.net/DTD/sodipodi-0.dtd"
   xmlns:inkscape="http://www.inkscape.org/namespaces/inkscape"
   width="100%"
   height="100%"
   viewBox="0 0 128 128"
   version="1.1"
   xml:space="preserve"
   style="fill-rule:evenodd;clip-rule:evenodd;stroke-linejoin:round;stroke-miterlimit:1.41421;"
   id="svg9239"
   inkscape:version="0.92.2 (5c3e80d, 2017-08-06)"
   sodipodi:docname="recording_start.svg"><metadata
     id="metadata9250"><rdf:RDF><cc:Work
         rdf:about=""><dc:format>image/svg+xml</dc:format><dc:type
           rdf:resource="http://purl.org/dc/dcmitype/StillImage" /></cc:Work></rdf:RDF></metadata><defs
     id="defs9248" /><sodipodi:namedview
     pagecolor="#ffffff"
     bordercolor="#666666"
     borderopacity="1"
     objecttolerance="10"
     gridtolerance="10"
     guidetolerance="10"
     inkscape:pageopacity="0"
     inkscape:pageshadow="2"
     inkscape:window-width="1920"
     inkscape:window-height="1017"
     id="namedview9246"
     showgrid="false"
     inkscape:zoom="1.84375"
     inkscape:cx="-54.508475"
     inkscape:cy="64"
     inkscape:window-x="-8"
     inkscape:window-y="-8"
     inkscape:window-maximized="1"
     inkscape:current-layer="svg9239" /><rect
     id="recording_start"
     x="0"
     y="0"
     width="128"
     height="128"
     style="fill:none;" /><path
     d="M119,9l-110,0l0,110l110,0l0,-110Zm-17.346,55c0,20.796 -16.858,37.654 -37.654,37.654c-20.796,0 -37.654,-16.858 -37.654,-37.654c0,-20.796 16.858,-37.654 37.654,-37.654c20.796,0 37.654,16.858 37.654,37.654Z"
     style="fill:#7289da;fill-rule:nonzero;fill-opacity:1"
     id="path9242" /><path
     d="M64,36.346c-15.249,0 -27.654,12.406 -27.654,27.654c0,15.249 12.406,27.654 27.654,27.654c15.249,0 27.654,-12.405 27.654,-27.654c0,-15.249 -12.405,-27.654 -27.654,-27.654Z"
     style="fill:#c90709;fill-rule:nonzero;"
     id="path9244" /></svg>