<?xml version="1.0" encoding="UTF-8" standalone="no"?>
<svg
   xmlns:dc="http://purl.org/dc/elements/1.1/"
   xmlns:cc="http://creativecommons.org/ns#"
   xmlns:rdf="http://www.w3.org/1999/02/22-rdf-syntax-ns#"
   xmlns:svg="http://www.w3.org/2000/svg"
   xmlns="http://www.w3.org/2000/svg"
   xmlns:sodipodi="http://sodipodi.sourceforge.net/DTD/sodipodi-0.dtd"
   xmlns:inkscape="http://www.inkscape.org/namespaces/inkscape"
   width="100%"
   height="100%"
   viewBox="0 0 128 128"
   version="1.1"
   xml:space="preserve"
   style="fill-rule:evenodd;clip-rule:evenodd;stroke-linejoin:round;stroke-miterlimit:1.41421;"
   id="svg15444"
   inkscape:version="0.92.2 (5c3e80d, 2017-08-06)"
   sodipodi:docname="server_green.svg"><metadata
     id="metadata15463"><rdf:RDF><cc:Work
         rdf:about=""><dc:format>image/svg+xml</dc:format><dc:type
           rdf:resource="http://purl.org/dc/dcmitype/StillImage" /></cc:Work></rdf:RDF></metadata><defs
     id="defs15461" /><sodipodi:namedview
     pagecolor="#ffffff"
     bordercolor="#666666"
     borderopacity="1"
     objecttolerance="10"
     gridtolerance="10"
     guidetolerance="10"
     inkscape:pageopacity="0"
     inkscape:pageshadow="2"
     inkscape:window-width="1920"
     inkscape:window-height="1017"
     id="namedview15459"
     showgrid="false"
     inkscape:zoom="1.84375"
     inkscape:cx="-226.55281"
     inkscape:cy="13.21543"
     inkscape:window-x="-8"
     inkscape:window-y="-8"
     inkscape:window-maximized="1"
     inkscape:current-layer="svg15444" /><rect
     id="server_green"
     x="0"
     y="0"
     width="128"
     height="128"
     style="fill:none;" /><rect
     x="58.999"
     y="85.408"
     width="10"
     height="27.736"
     style="fill:#e6e6e6"
     id="rect15447" /><path
     d="M118.999,37.936c0,4.721 -3.848,8.549 -8.594,8.549l-92.812,0c-4.746,0 -8.594,-3.827 -8.594,-8.549l0,-15.387c0,-4.722 3.848,-8.549 8.594,-8.549l92.813,0c4.746,0 8.594,3.827 8.594,8.549l0,15.387l-0.001,0Z"
     style="fill:#7289da;fill-rule:nonzero;fill-opacity:1"
     id="path15449" /><path
     d="M118.999,82.251c0,4.722 -3.848,8.548 -8.594,8.548l-92.812,0c-4.746,0 -8.594,-3.827 -8.594,-8.548l0,-15.389c0,-4.721 3.848,-8.548 8.594,-8.548l92.813,0c4.746,0 8.594,3.827 8.594,8.548l0,15.389l-0.001,0Z"
     style="fill:#7289da;fill-rule:nonzero;fill-opacity:1"
     id="path15451" /><path
     d="M108.687,80.211c0,1.132 -0.913,2.04 -2.051,2.04l-28.555,0c-1.138,0 -2.051,-0.908 -2.051,-2.04l0,-11.309c0,-1.131 0.913,-2.04 2.051,-2.04l28.555,0c1.138,0 2.051,0.909 2.051,2.04l0,11.309Z"
     style="fill:#fff;fill-rule:nonzero;"
     id="path15453" /><path
     d="M108.687,35.897c0,1.126 -0.916,2.039 -2.05,2.039l-28.557,0c-1.134,0 -2.05,-0.913 -2.05,-2.039l0,-11.31c0,-1.125 0.916,-2.039 2.05,-2.039l28.557,0c1.134,0 2.05,0.914 2.05,2.039l0,11.31Z"
     style="fill:#fff;fill-rule:nonzero;"
     id="path15455" /><rect
     x="8.999"
     y="104"
     width="110"
     height="10"
     style="fill:#e6e6e6"
     id="rect15457" /></svg>
