<?xml version="1.0" encoding="UTF-8" standalone="no"?>
<svg
   xmlns:dc="http://purl.org/dc/elements/1.1/"
   xmlns:cc="http://creativecommons.org/ns#"
   xmlns:rdf="http://www.w3.org/1999/02/22-rdf-syntax-ns#"
   xmlns:svg="http://www.w3.org/2000/svg"
   xmlns="http://www.w3.org/2000/svg"
   xmlns:sodipodi="http://sodipodi.sourceforge.net/DTD/sodipodi-0.dtd"
   xmlns:inkscape="http://www.inkscape.org/namespaces/inkscape"
   width="100%"
   height="100%"
   viewBox="0 0 128 128"
   version="1.1"
   xml:space="preserve"
   style="fill-rule:evenodd;clip-rule:evenodd;stroke-linejoin:round;stroke-miterlimit:1.41421;"
   id="svg19376"
   inkscape:version="0.92.2 (5c3e80d, 2017-08-06)"
   sodipodi:docname="subscribe_mode.svg"><metadata
     id="metadata19399"><rdf:RDF><cc:Work
         rdf:about=""><dc:format>image/svg+xml</dc:format><dc:type
           rdf:resource="http://purl.org/dc/dcmitype/StillImage" /><dc:title></dc:title></cc:Work></rdf:RDF></metadata><defs
     id="defs19397" /><sodipodi:namedview
     pagecolor="#ffffff"
     bordercolor="#666666"
     borderopacity="1"
     objecttolerance="10"
     gridtolerance="10"
     guidetolerance="10"
     inkscape:pageopacity="0"
     inkscape:pageshadow="2"
     inkscape:window-width="1920"
     inkscape:window-height="1017"
     id="namedview19395"
     showgrid="false"
     inkscape:zoom="7.3750001"
     inkscape:cx="73.241823"
     inkscape:cy="61.350853"
     inkscape:window-x="-8"
     inkscape:window-y="-8"
     inkscape:window-maximized="1"
     inkscape:current-layer="subscribe_mode"
     inkscape:pagecheckerboard="true" /><g
     transform="matrix(1,0,0,1,-4224,0)"
     id="g19378"><g
       id="subscribe_mode"
       transform="matrix(1,0,0,1,4224,0)"><rect
         x="0"
         y="0"
         width="128"
         height="128"
         style="fill:none;"
         id="rect19381" /><g
         transform="matrix(1,0,0,1,8.03819,0)"
         id="g19383"><path
           d="m 18.348423,62.793134 c 3.983984,-13.535215 17.37292,-22.010859 31.99233,-20.298521 5.257481,0.619539 10.420309,1.48001 15.178718,4.018401 6.660048,3.545142 11.332408,8.553088 12.459626,16.297331 C 78.090959,73.462981 71.637422,79.340001 62.679914,82.850724 51.442156,87.256339 40.230213,86.76587 29.568971,80.802803 22.616363,76.904866 18.425866,71.053661 18.348423,62.793134 Z m 12.278928,-1.204659 c -1.368149,10.592403 5.704927,19.386423 16.426401,20.427592 9.50821,0.920705 18.155948,-6.728886 18.85293,-16.684541 -7.881919,3.226768 -11.487294,2.185597 -15.849885,-4.50887 -0.765819,-5.240272 0.344189,-9.766352 5.575855,-12.648932 -10.953801,-5.420969 -23.08645,1.436988 -25.005301,13.414751 z"
           style="fill:#fefefe;fill-rule:nonzero;stroke-width:0.99999988"
           id="path19385"
           inkscape:connector-curvature="0" /></g><g
         transform="matrix(0.86061264,0,0,0.86061264,16.60559,19.403475)"
         id="g19387"
         style="stroke-width:1.16196299"><path
           d="m 80.646121,50.456694 c 0.13,12.38 -7.36,19.21 -17.78,23.29 -13.06,5.12 -26.09,4.55 -38.48,-2.38 -8.09,-4.53 -13,-11.3 -13,-20.93 4.63,-15.73 20.19,-25.58 37.18,-23.59 6.11,0.72 12.11,1.72 17.64,4.67 7.74,4.12 13.17,9.94 14.48,18.94 h 20.319999 c 0.06,-4 0.19,-8 0.18,-12 0,-13.05 -9.609999,-23.58 -22.539999,-23.79 -21.64,-0.34 -43.287,-0.34 -64.94,0 -11.9999995,0.17 -21.9999995,10 -22.4999995,21.3 -0.21,4.81 0.07,9.64 0.13,14.47 -0.14,5.69 -0.14,11.34 -0.19,17 -0.05,14.86 9.65999996,24.59 24.6799995,24.59 9.32,0 18.65,0.34 27.94,-0.12 5.09,-0.26 6.17,2 6.52,6.27 0.62,7.499996 -2.36,13.509996 -7.6,18.999996 0.682,0.132 1.375,0.196 2.07,0.19 0.813,-0.156 1.615,-0.366 2.4,-0.63 11.2,-3.43 19.49,-10.56 25.4,-20.469996 1.66,-2.79 3.3,-4.16 6.86,-4.42 13.07,-1 21.719999,-10.8 21.699999,-24 0,-5.82 -0.1,-11.64 -0.15,-17.46 z"
           style="fill:#7289da;fill-opacity:1;fill-rule:nonzero;stroke-width:1.16196299"
           id="path19389"
           inkscape:connector-curvature="0" /></g><g
         transform="translate(-7.3024314,27.421361)"
         id="g19391"><path
           d="M 65.386212,33.409161 C 64.620267,28.16803 65.730457,23.641208 70.962982,20.758155 60.007383,15.336296 47.872745,22.195379 45.962185,34.175107 44.593811,44.769248 51.668047,53.564709 62.39128,54.597444 71.90105,55.5183 80.550207,47.867454 81.247303,37.910165 73.355485,41.146069 69.749518,40.104728 65.386212,33.409161 Z"
           style="fill:#7289da;fill-opacity:1;fill-rule:nonzero;stroke-width:1"
           id="path19393"
           inkscape:connector-curvature="0" /><g
           style="clip-rule:evenodd;fill-rule:evenodd;stroke-width:1.0067507;stroke-linejoin:round;stroke-miterlimit:1.41420996;fill:#7289da;fill-opacity:1"
           transform="matrix(0.98663398,0,0,1,12.813554,-28.317269)"
           id="g21074"><path
             inkscape:connector-curvature="0"
             d="M 100.715,9 H 51.155 C 41.321,9 33.328,16.775 32.92,26.507 h 45.931 c 15.507,0 28.119,12.611 28.119,28.114 V 68.156 C 113.982,65.598 119,58.888 119,50.994 V 27.28 C 119,17.187 110.811,9 100.715,9 Z"
             style="fill:#7289da;fill-opacity:1;fill-rule:nonzero;stroke-width:1.0067507"
             id="path21076" /></g></g></g></g></svg>