<?xml version="1.0" encoding="UTF-8" standalone="no"?>
<svg
   xmlns:dc="http://purl.org/dc/elements/1.1/"
   xmlns:cc="http://creativecommons.org/ns#"
   xmlns:rdf="http://www.w3.org/1999/02/22-rdf-syntax-ns#"
   xmlns:svg="http://www.w3.org/2000/svg"
   xmlns="http://www.w3.org/2000/svg"
   xmlns:sodipodi="http://sodipodi.sourceforge.net/DTD/sodipodi-0.dtd"
   xmlns:inkscape="http://www.inkscape.org/namespaces/inkscape"
   width="100%"
   height="100%"
   viewBox="0 0 128 128"
   version="1.1"
   xml:space="preserve"
   style="fill-rule:evenodd;clip-rule:evenodd;stroke-linejoin:round;stroke-miterlimit:1.41421;"
   id="svg20506"
   inkscape:version="0.91 r13725"
   sodipodi:docname="subscribe_to_channel.svg"><metadata
     id="metadata20525"><rdf:RDF><cc:Work
         rdf:about=""><dc:format>image/svg+xml</dc:format><dc:type
           rdf:resource="http://purl.org/dc/dcmitype/StillImage" /></cc:Work></rdf:RDF></metadata><defs
     id="defs20523" /><sodipodi:namedview
     pagecolor="#ffffff"
     bordercolor="#666666"
     borderopacity="1"
     objecttolerance="10"
     gridtolerance="10"
     guidetolerance="10"
     inkscape:pageopacity="0"
     inkscape:pageshadow="2"
     inkscape:window-width="1920"
     inkscape:window-height="1017"
     id="namedview20521"
     showgrid="false"
     inkscape:zoom="1.84375"
     inkscape:cx="64"
     inkscape:cy="64"
     inkscape:window-x="-8"
     inkscape:window-y="-8"
     inkscape:window-maximized="1"
     inkscape:current-layer="svg20506" /><g
     transform="matrix(1,0,0,1,-4224,-480)"
     id="g20508"><g
       id="subscribe_to_channel"
       transform="matrix(1,0,0,1.37634,4224,294.194)"><rect
         x="0"
         y="135"
         width="128"
         height="93"
         style="fill:none;"
         id="rect20511" /><g
         transform="matrix(1,0,0,0.726562,0,134.331)"
         id="g20513"><path
           d="M95.651,13.426L32.347,13.426C19.454,13.426 9,23.88 9,36.774L9,67.073C9,79.97 19.454,90.421 32.347,90.421L66.886,90.421C68.92,95.782 71.005,106.707 59.984,116.416C80.129,112.675 89.591,96.903 92.687,90.421L95.652,90.421C108.545,90.421 119,79.97 119,67.073L119,36.774C119,23.88 108.545,13.426 95.651,13.426Z"
           style="fill:#7289da;fill-rule:nonzero;fill-opacity:1"
           id="path20515" /></g><g
         transform="matrix(1,0,0,0.726562,0,134.331)"
         id="g20517"><path
           d="M88.875,41.831L57.706,72.949C57.102,73.553 56.212,73.84 55.038,73.805C53.963,73.772 53.141,73.487 52.571,72.949L39.125,59.505C38.521,58.901 38.219,58.163 38.219,57.289C38.219,56.417 38.521,55.678 39.125,55.074L43.606,50.593C44.21,49.989 44.948,49.687 45.822,49.687C46.695,49.687 47.433,49.989 48.037,50.593L55.137,57.693L79.962,32.919C80.566,32.315 81.304,32.013 82.178,32.013C83.05,32.013 83.789,32.315 84.393,32.919L88.874,37.351C89.478,37.989 89.78,38.736 89.78,39.591C89.781,40.446 89.479,41.193 88.875,41.831Z"
           style="fill:white;fill-rule:nonzero;"
           id="path20519" /></g></g></g></svg>