<?xml version="1.0" encoding="UTF-8" standalone="no"?>
<svg
   xmlns:dc="http://purl.org/dc/elements/1.1/"
   xmlns:cc="http://creativecommons.org/ns#"
   xmlns:rdf="http://www.w3.org/1999/02/22-rdf-syntax-ns#"
   xmlns:svg="http://www.w3.org/2000/svg"
   xmlns="http://www.w3.org/2000/svg"
   xmlns:sodipodi="http://sodipodi.sourceforge.net/DTD/sodipodi-0.dtd"
   xmlns:inkscape="http://www.inkscape.org/namespaces/inkscape"
   width="100%"
   height="100%"
   viewBox="0 0 128 128"
   version="1.1"
   xml:space="preserve"
   style="fill-rule:evenodd;clip-rule:evenodd;stroke-linejoin:round;stroke-miterlimit:1.41421;"
   id="svg8605"
   inkscape:version="0.91 r13725"
   sodipodi:docname="talk_power_revoke.svg"><metadata
     id="metadata8628"><rdf:RDF><cc:Work
         rdf:about=""><dc:format>image/svg+xml</dc:format><dc:type
           rdf:resource="http://purl.org/dc/dcmitype/StillImage" /></cc:Work></rdf:RDF></metadata><defs
     id="defs8626" /><sodipodi:namedview
     pagecolor="#ffffff"
     bordercolor="#666666"
     borderopacity="1"
     objecttolerance="10"
     gridtolerance="10"
     guidetolerance="10"
     inkscape:pageopacity="0"
     inkscape:pageshadow="2"
     inkscape:window-width="1920"
     inkscape:window-height="1017"
     id="namedview8624"
     showgrid="false"
     inkscape:zoom="1.84375"
     inkscape:cx="64"
     inkscape:cy="64"
     inkscape:window-x="-8"
     inkscape:window-y="-8"
     inkscape:window-maximized="1"
     inkscape:current-layer="svg8605" /><g
     transform="matrix(1,0,0,1,-4608,-160)"
     id="g8607"><g
       id="talk_power_revoke"
       transform="matrix(1,0,0,1,4608,160)"><rect
         x="0"
         y="0"
         width="128"
         height="128"
         style="fill:none;"
         id="rect8610" /><g
         transform="matrix(1,0,0,1,8.08516,8.10731)"
         id="g8612"><path
           d="M110.95,78.19C110.95,96.72 96.31,110.88 77.3,110.81C59.1,110.75 44.86,96.07 44.88,77.41C44.88,58.95 59.6,44.72 78.58,44.79C96.81,44.86 111,59.48 110.95,78.19ZM87.75,58.09C79.507,53.606 69.23,55.049 62.54,61.63C55.347,68.371 53.582,79.193 58.26,87.87L87.75,58.09ZM97.31,66.93C87.82,76.39 78.86,85.52 69.66,94.4C66.58,97.37 68,98 71,99C79.442,101.704 88.728,99.173 94.63,92.56C100.85,85.55 101.92,76.45 97.31,66.93L97.31,66.93Z"
           style="fill:rgb(201,7,9);fill-rule:nonzero;"
           id="path8614" /></g><g
         transform="matrix(1,0,0,1,8.08516,8.10731)"
         id="g8616"><path
           d="M65.54,28.43C65.84,25.54 64.54,24.76 61.81,24.81C53.15,24.96 44.49,24.86 35.81,24.86C26.99,24.86 18.16,24.8 9.34,24.86C4.48,24.86 1.23,27.63 1.11,32.38C0.83,43.38 0.82,54.38 1,65.38C1.09,70 4.18,72.64 8.6,73C11.99,73.32 16.29,71.41 18.54,74C20.61,76.4 20.75,80.48 21.71,83.84C22.16,85.44 22.49,87.07 22.93,88.67C24.44,94.28 25.74,99.96 27.56,105.47C29.27,110.62 34.88,112.4 39.93,109.83C44.43,107.54 45.13,104.17 42.14,99.2C28.82,77.05 39,48.53 61.29,39.54C64.63,38.19 66.07,36.44 65.56,32.91C65.37,31.423 65.363,29.919 65.54,28.43L65.54,28.43Z"
           style="fill:#a9aaac;fill-rule:nonzero;fill-opacity:1"
           id="path8618" /></g><g
         transform="matrix(1,0,0,1,8.08516,8.10731)"
         id="g8620"><path
           d="M77.48,18.78C76.31,19.69 75.1,20.5 75.15,22.32C75.24,25.97 75.15,29.63 75.15,33.32C75.15,34.84 75.5,35.95 77.31,35.91C85.63,35.73 93.23,38.34 100.74,42.53L100.74,0.79L77.48,18.78Z"
           style="fill:#a9aaac;fill-rule:nonzero;fill-opacity:1"
           id="path8622" /></g></g></g></svg>