<?xml version="1.0" encoding="UTF-8" standalone="no"?>
<svg
   xmlns:dc="http://purl.org/dc/elements/1.1/"
   xmlns:cc="http://creativecommons.org/ns#"
   xmlns:rdf="http://www.w3.org/1999/02/22-rdf-syntax-ns#"
   xmlns:svg="http://www.w3.org/2000/svg"
   xmlns="http://www.w3.org/2000/svg"
   xmlns:sodipodi="http://sodipodi.sourceforge.net/DTD/sodipodi-0.dtd"
   xmlns:inkscape="http://www.inkscape.org/namespaces/inkscape"
   width="100%"
   height="100%"
   viewBox="0 0 128 128"
   version="1.1"
   xml:space="preserve"
   style="fill-rule:evenodd;clip-rule:evenodd;stroke-linejoin:round;stroke-miterlimit:1.41421;"
   id="svg9170"
   inkscape:version="0.91 r13725"
   sodipodi:docname="talk_power_revoke_all_grant_next.svg"><metadata
     id="metadata9197"><rdf:RDF><cc:Work
         rdf:about=""><dc:format>image/svg+xml</dc:format><dc:type
           rdf:resource="http://purl.org/dc/dcmitype/StillImage" /></cc:Work></rdf:RDF></metadata><defs
     id="defs9195" /><sodipodi:namedview
     pagecolor="#ffffff"
     bordercolor="#666666"
     borderopacity="1"
     objecttolerance="10"
     gridtolerance="10"
     guidetolerance="10"
     inkscape:pageopacity="0"
     inkscape:pageshadow="2"
     inkscape:window-width="1920"
     inkscape:window-height="1017"
     id="namedview9193"
     showgrid="false"
     inkscape:zoom="1.84375"
     inkscape:cx="64"
     inkscape:cy="64"
     inkscape:window-x="-8"
     inkscape:window-y="-8"
     inkscape:window-maximized="1"
     inkscape:current-layer="svg9170" /><g
     transform="matrix(1,0,0,1,-4608,0)"
     id="g9172"><g
       id="talk_power_revoke_all_grant_next"
       transform="matrix(1,0,0,1,4608,0)"><rect
         x="0"
         y="0"
         width="128"
         height="128"
         style="fill:none;"
         id="rect9175" /><g
         transform="matrix(1,0,0,1,-2.5955,0)"
         id="g9177"><path
           d="M57.38,58.89L74.38,55.873L78.422,55.156L78.422,33.008L22.294,33.008C20.034,33.008 18.116,33.803 16.565,35.399C15.016,36.995 14.238,38.886 14.238,41.064L14.238,73.172C14.238,75.364 15.016,77.242 16.565,78.849C18.117,80.433 20.035,81.231 22.294,81.231L32.106,81.231L34.235,89.237C34.91,87.575 35.912,86.049 37.215,84.745L43.892,78.068C46.462,75.502 49.892,74.089 53.549,74.089C57.203,74.089 60.632,75.501 63.212,78.074L67.425,82.287L68.483,81.231L74.107,75.618L69.589,71.1L57.38,58.89Z"
           style="fill:#a9aaac;fill-rule:nonzero;fill-opacity:1"
           id="path9179" /></g><g
         transform="matrix(1,0,0,1,-2.5955,0)"
         id="g9181"><path
           d="M40.554,113.002C41.135,115.186 42.394,116.83 44.335,117.917C46.274,119.008 48.302,119.275 50.406,118.716L51.342,118.465C51.412,118.446 51.477,118.421 51.546,118.401L38.527,105.381L40.554,113.002Z"
           style="fill:#a9aaac;fill-rule:nonzero;fill-opacity:1"
           id="path9183" /></g><g
         transform="matrix(1,0,0,1,-2.5955,0)"
         id="g9185"><path
           d="M113.763,9L88.498,28.621L88.498,53.369L113.763,48.886L113.763,9Z"
           style="fill:#a9aaac;fill-rule:nonzero;fill-opacity:1"
           id="path9187" /></g><g
         transform="matrix(1,0,0,1,-2.5955,0)"
         id="g9189"><path
           d="M118.953,57.105L75.953,64.735L86.842,75.624L67.418,95.008L56.848,84.437C55.948,83.54 54.849,83.088 53.55,83.088C52.25,83.088 51.151,83.539 50.252,84.437L43.579,91.109C42.68,92.009 42.231,93.109 42.231,94.408C42.231,95.708 42.68,96.806 43.579,97.705L63.595,117.722C64.445,118.521 65.67,118.95 67.268,118.996C69.016,119.045 70.342,118.621 71.242,117.722L100.113,88.896L111.323,100.106L118.953,57.105Z"
           style="fill:#7289da;fill-rule:nonzero;fill-opacity:1"
           id="path9191" /></g></g></g></svg>