<?xml version="1.0" encoding="UTF-8" standalone="no"?>
<!-- Generator: Adobe Illustrator 15.0.0, SVG Export Plug-In . SVG Version: 6.00 Build 0)  -->

<svg
   xmlns:dc="http://purl.org/dc/elements/1.1/"
   xmlns:cc="http://creativecommons.org/ns#"
   xmlns:rdf="http://www.w3.org/1999/02/22-rdf-syntax-ns#"
   xmlns:svg="http://www.w3.org/2000/svg"
   xmlns="http://www.w3.org/2000/svg"
   xmlns:sodipodi="http://sodipodi.sourceforge.net/DTD/sodipodi-0.dtd"
   xmlns:inkscape="http://www.inkscape.org/namespaces/inkscape"
   version="1.1"
   id="Ebene_2"
   x="0px"
   y="0px"
   width="128px"
   height="128px"
   viewBox="0 0 128 128"
   style="enable-background:new 0 0 128 128;"
   xml:space="preserve"
   sodipodi:docname="textformat_foreground.svg"
   inkscape:version="0.92.2 (5c3e80d, 2017-08-06)"><metadata
     id="metadata912"><rdf:RDF><cc:Work
         rdf:about=""><dc:format>image/svg+xml</dc:format><dc:type
           rdf:resource="http://purl.org/dc/dcmitype/StillImage" /></cc:Work></rdf:RDF></metadata><defs
     id="defs910" /><sodipodi:namedview
     pagecolor="#ffffff"
     bordercolor="#666666"
     borderopacity="1"
     objecttolerance="10"
     gridtolerance="10"
     guidetolerance="10"
     inkscape:pageopacity="0"
     inkscape:pageshadow="2"
     inkscape:window-width="1920"
     inkscape:window-height="1017"
     id="namedview908"
     showgrid="false"
     inkscape:zoom="3.3867188"
     inkscape:cx="44.912526"
     inkscape:cy="82.925393"
     inkscape:window-x="-8"
     inkscape:window-y="-8"
     inkscape:window-maximized="1"
     inkscape:current-layer="Ebene_2" /><g
     id="g905"><linearGradient
       id="SVGID_1_"
       gradientUnits="userSpaceOnUse"
       x1="64.000504"
       y1="119"
       x2="64.000504"
       y2="9.0004997"><stop
         offset="0.3"
         style="stop-color:#1ca037;stop-opacity:1"
         id="stop898" /><stop
         offset="0.60332531"
         style="stop-color:#7289da;stop-opacity:1"
         id="stop900" /></linearGradient><path
       style="fill:url(#SVGID_1_)"
       d="M 120.02,119 H 95.908 L 86.303,93.633 H 40.44 L 30.821,119 H 7.98 L 51.162,9 H 76.209 Z M 71.169,51.233 C 70.541,49.553 69.861,47.59 69.117,45.32 68.386,43.063 67.68,40.755 67.001,38.395 66.309,36.022 65.654,33.791 65.026,31.687 64.397,29.597 63.922,27.801 63.602,26.339 h -0.308 c -0.424,1.462 -0.949,3.258 -1.578,5.348 -0.628,2.103 -1.347,4.335 -2.129,6.708 -0.782,2.36 -1.552,4.668 -2.282,6.925 -0.744,2.27 -1.424,4.232 -2.053,5.913 l -9.144,25.689 h 34.204 z"
       id="path903"
       inkscape:connector-curvature="0" /></g></svg>