<?xml version="1.0" encoding="UTF-8" standalone="no"?>
<svg
   xmlns:dc="http://purl.org/dc/elements/1.1/"
   xmlns:cc="http://creativecommons.org/ns#"
   xmlns:rdf="http://www.w3.org/1999/02/22-rdf-syntax-ns#"
   xmlns:svg="http://www.w3.org/2000/svg"
   xmlns="http://www.w3.org/2000/svg"
   xmlns:sodipodi="http://sodipodi.sourceforge.net/DTD/sodipodi-0.dtd"
   xmlns:inkscape="http://www.inkscape.org/namespaces/inkscape"
   width="100%"
   height="100%"
   viewBox="0 0 128 128"
   version="1.1"
   xml:space="preserve"
   style="fill-rule:evenodd;clip-rule:evenodd;stroke-linejoin:round;stroke-miterlimit:1.41421;"
   id="svg11986"
   inkscape:version="0.91 r13725"
   sodipodi:docname="textformat_foreground.svg"><metadata
     id="metadata12001"><rdf:RDF><cc:Work
         rdf:about=""><dc:format>image/svg+xml</dc:format><dc:type
           rdf:resource="http://purl.org/dc/dcmitype/StillImage" /></cc:Work></rdf:RDF></metadata><defs
     id="defs11999" /><sodipodi:namedview
     pagecolor="#ffffff"
     bordercolor="#666666"
     borderopacity="1"
     objecttolerance="10"
     gridtolerance="10"
     guidetolerance="10"
     inkscape:pageopacity="0"
     inkscape:pageshadow="2"
     inkscape:window-width="1920"
     inkscape:window-height="1017"
     id="namedview11997"
     showgrid="false"
     inkscape:zoom="1.84375"
     inkscape:cx="64"
     inkscape:cy="64"
     inkscape:window-x="-8"
     inkscape:window-y="-8"
     inkscape:window-maximized="1"
     inkscape:current-layer="svg11986" /><g
     transform="matrix(1,0,0,1,-4608,-800)"
     id="g11988"><g
       id="textformat_foreground"
       transform="matrix(1,0,0,1.09402,4608,362.393)"><rect
         x="0"
         y="400"
         width="128"
         height="117"
         style="fill:none;"
         id="rect11991" /><g
         transform="matrix(1,0,0,0.914062,0,400)"
         id="g11993"><path
           d="M120.02,119L95.908,119L86.303,93.633L40.44,93.633L30.821,119L7.98,119L51.162,9L76.209,9L120.02,119ZM71.169,51.233C70.541,49.553 69.861,47.59 69.117,45.32C68.386,43.063 67.68,40.755 67.001,38.395C66.309,36.022 65.654,33.791 65.026,31.687C64.397,29.597 63.922,27.801 63.602,26.339L63.294,26.339C62.87,27.801 62.345,29.597 61.716,31.687C61.088,33.79 60.369,36.022 59.587,38.395C58.805,40.755 58.035,43.063 57.305,45.32C56.561,47.59 55.881,49.552 55.252,51.233L46.108,76.922L80.312,76.922L71.169,51.233Z"
           style="fill:#a9aaac;fill-rule:nonzero;fill-opacity:1"
           id="path11995" /></g></g></g></svg>