<?xml version="1.0" encoding="UTF-8" standalone="no"?>
<svg
   xmlns:dc="http://purl.org/dc/elements/1.1/"
   xmlns:cc="http://creativecommons.org/ns#"
   xmlns:rdf="http://www.w3.org/1999/02/22-rdf-syntax-ns#"
   xmlns:svg="http://www.w3.org/2000/svg"
   xmlns="http://www.w3.org/2000/svg"
   xmlns:sodipodi="http://sodipodi.sourceforge.net/DTD/sodipodi-0.dtd"
   xmlns:inkscape="http://www.inkscape.org/namespaces/inkscape"
   width="100%"
   height="100%"
   viewBox="0 0 128 128"
   version="1.1"
   xml:space="preserve"
   style="fill-rule:evenodd;clip-rule:evenodd;stroke-linejoin:round;stroke-miterlimit:1.41421;"
   id="svg14239"
   inkscape:version="0.91 r13725"
   sodipodi:docname="toggle_server_query_clients.svg"><metadata
     id="metadata14256"><rdf:RDF><cc:Work
         rdf:about=""><dc:format>image/svg+xml</dc:format><dc:type
           rdf:resource="http://purl.org/dc/dcmitype/StillImage" /></cc:Work></rdf:RDF></metadata><defs
     id="defs14254" /><sodipodi:namedview
     pagecolor="#ffffff"
     bordercolor="#666666"
     borderopacity="1"
     objecttolerance="10"
     gridtolerance="10"
     guidetolerance="10"
     inkscape:pageopacity="0"
     inkscape:pageshadow="2"
     inkscape:window-width="1920"
     inkscape:window-height="1017"
     id="namedview14252"
     showgrid="false"
     inkscape:zoom="1.84375"
     inkscape:cx="64"
     inkscape:cy="64"
     inkscape:window-x="-8"
     inkscape:window-y="-8"
     inkscape:window-maximized="1"
     inkscape:current-layer="svg14239" /><rect
     id="toggle_server_query_clients"
     x="0"
     y="0"
     width="128"
     height="128"
     style="fill:none;" /><path
     d="M94,62.728c13.521,0 24.528,10.736 24.979,24.147c-0.448,-24.158 -9.318,-60.706 -27.765,-60.052c-9.798,0.347 -12.333,6.264 -15.398,14.119c-2.542,-0.849 -9.19,-1.395 -11.815,-1.395c-2.625,0 -9.273,0.545 -11.815,1.395c-3.065,-7.855 -5.601,-13.771 -15.398,-14.119c-18.449,-0.653 -27.318,35.894 -27.767,60.052c0.45,-13.411 11.458,-24.147 24.979,-24.147c13.807,0 25,11.193 25,24.999c0,1.155 -0.085,2.289 -0.236,3.402c1.742,-1.753 3.641,-2.166 5.236,-2.166c1.595,0 3.494,0.413 5.236,2.166c-0.151,-1.113 -0.236,-2.247 -0.236,-3.402c0,-13.806 11.193,-24.999 25,-24.999Z"
     style="fill:#a9aaac;fill-rule:nonzero;fill-opacity:1"
     id="path14242" /><path
     d="M34,69.728c9.925,0 18,8.074 18,17.999c0,9.926 -8.075,18.001 -18,18.001c-9.925,0 -18,-8.075 -18,-18.001c0,-9.925 8.075,-17.999 18,-17.999"
     style="fill:#7289da;fill-rule:nonzero;fill-opacity:1"
     id="path14244" /><circle
     cx="37.396"
     cy="32.875"
     r="10.604"
     style="fill:#a9aaac;fill-opacity:1"
     id="circle14246" /><circle
     cx="90.604"
     cy="32.875"
     r="10.604"
     style="fill:#a9aaac;fill-opacity:1"
     id="circle14248" /><path
     d="M94,69.728c9.925,0 18,8.074 18,17.999c0,9.926 -8.075,18.001 -18,18.001c-9.925,0 -18,-8.075 -18,-18.001c0,-9.925 8.075,-17.999 18,-17.999"
     style="fill:#7289da;fill-rule:nonzero;fill-opacity:1"
     id="path14250" /></svg>