<?xml version="1.0" encoding="UTF-8" standalone="no"?>
<svg
   xmlns:dc="http://purl.org/dc/elements/1.1/"
   xmlns:cc="http://creativecommons.org/ns#"
   xmlns:rdf="http://www.w3.org/1999/02/22-rdf-syntax-ns#"
   xmlns:svg="http://www.w3.org/2000/svg"
   xmlns="http://www.w3.org/2000/svg"
   xmlns:sodipodi="http://sodipodi.sourceforge.net/DTD/sodipodi-0.dtd"
   xmlns:inkscape="http://www.inkscape.org/namespaces/inkscape"
   width="100%"
   height="100%"
   viewBox="0 0 128 128"
   version="1.1"
   xml:space="preserve"
   style="fill-rule:evenodd;clip-rule:evenodd;stroke-linejoin:round;stroke-miterlimit:1.41421;"
   id="svg15910"
   inkscape:version="0.92.2 (5c3e80d, 2017-08-06)"
   sodipodi:docname="token_use.svg"><metadata
     id="metadata15923"><rdf:RDF><cc:Work
         rdf:about=""><dc:format>image/svg+xml</dc:format><dc:type
           rdf:resource="http://purl.org/dc/dcmitype/StillImage" /></cc:Work></rdf:RDF></metadata><defs
     id="defs15921" /><sodipodi:namedview
     pagecolor="#ffffff"
     bordercolor="#666666"
     borderopacity="1"
     objecttolerance="10"
     gridtolerance="10"
     guidetolerance="10"
     inkscape:pageopacity="0"
     inkscape:pageshadow="2"
     inkscape:window-width="1920"
     inkscape:window-height="1017"
     id="namedview15919"
     showgrid="false"
     inkscape:zoom="3.6875"
     inkscape:cx="72.269347"
     inkscape:cy="47.164429"
     inkscape:window-x="-8"
     inkscape:window-y="-8"
     inkscape:window-maximized="1"
     inkscape:current-layer="svg15910" /><rect
     id="token_use"
     x="0"
     y="0"
     width="128"
     height="128"
     style="fill:none;" /><path
     d="M118.547,84.045c2.403,2.402 -3.378,12.084 -12.901,21.607c-9.523,9.523 -19.204,15.303 -21.607,12.901c-2.402,-2.403 3.379,-12.084 12.901,-21.607c9.523,-9.523 19.205,-15.303 21.607,-12.901Z"
     style="fill:#a9aaac;fill-opacity:1"
     id="path15913" /><path
     d="M69.805,71.841l10.032,-10.031l28.459,28.458c2.103,2.107 2.102,5.52 -0.001,7.622l-2.411,2.41c-2.102,2.103 -5.517,2.104 -7.62,0l-28.459,-28.459Z"
     style="fill:#cccccc;fill-rule:nonzero"
     id="path15915" /><path
     d="M8.678,39.16c-2.105,-2.105 -2.104,-5.519 0.002,-7.621l22.862,-22.866c2.105,-2.105 5.516,-2.105 7.621,0l36.528,36.531c2.107,2.106 2.106,5.516 0.001,7.62l-22.861,22.862c-2.106,2.109 -5.52,2.11 -7.624,0.002l-36.529,-36.528Zm34.146,-6.852c1.814,-1.814 1.814,-4.756 0,-6.57l-4.213,-4.212c-1.813,-1.814 -4.755,-1.814 -6.568,0l-10.513,10.511c-1.815,1.813 -1.813,4.756 0,6.571l4.212,4.21c1.814,1.816 4.754,1.817 6.571,0l10.511,-10.51Z"
     style="fill:#7289da;fill-rule:nonzero;fill-opacity:1"
     id="path15917" /></svg>