<?xml version="1.0" encoding="UTF-8" standalone="no"?>
<svg
   xmlns:dc="http://purl.org/dc/elements/1.1/"
   xmlns:cc="http://creativecommons.org/ns#"
   xmlns:rdf="http://www.w3.org/1999/02/22-rdf-syntax-ns#"
   xmlns:svg="http://www.w3.org/2000/svg"
   xmlns="http://www.w3.org/2000/svg"
   xmlns:sodipodi="http://sodipodi.sourceforge.net/DTD/sodipodi-0.dtd"
   xmlns:inkscape="http://www.inkscape.org/namespaces/inkscape"
   width="100%"
   height="100%"
   viewBox="0 0 128 128"
   version="1.1"
   xml:space="preserve"
   style="fill-rule:evenodd;clip-rule:evenodd;stroke-linejoin:round;stroke-miterlimit:1.41421;"
   id="svg19376"
   inkscape:version="0.92.2 (5c3e80d, 2017-08-06)"
   sodipodi:docname="unsubscribe_mode.svg"><metadata
     id="metadata19399"><rdf:RDF><cc:Work
         rdf:about=""><dc:format>image/svg+xml</dc:format><dc:type
           rdf:resource="http://purl.org/dc/dcmitype/StillImage" /><dc:title></dc:title></cc:Work></rdf:RDF></metadata><defs
     id="defs19397" /><sodipodi:namedview
     pagecolor="#ffffff"
     bordercolor="#666666"
     borderopacity="1"
     objecttolerance="10"
     gridtolerance="10"
     guidetolerance="10"
     inkscape:pageopacity="0"
     inkscape:pageshadow="2"
     inkscape:window-width="1920"
     inkscape:window-height="1017"
     id="namedview19395"
     showgrid="false"
     inkscape:zoom="5.2149126"
     inkscape:cx="80.059481"
     inkscape:cy="45.195022"
     inkscape:window-x="-8"
     inkscape:window-y="-8"
     inkscape:window-maximized="1"
     inkscape:current-layer="subscribe_mode"
     showguides="true"
     inkscape:pagecheckerboard="true"><inkscape:grid
       type="xygrid"
       id="grid7099" /></sodipodi:namedview><g
     transform="matrix(1,0,0,1,-4224,0)"
     id="g19378"><g
       id="subscribe_mode"
       transform="matrix(1,0,0,1,4224,0)"><rect
         x="0"
         y="0"
         width="128"
         height="128"
         style="fill:none;"
         id="rect19381" /><g
         transform="translate(6.5141279,12.262497)"
         id="g19383"><path
           d="m 21.15,40.4 c 4.63,-15.73 20.19,-25.58 37.18,-23.59 6.11,0.72 12.11,1.72 17.64,4.67 7.74,4.12 13.17,9.94 14.48,18.94 C 90.58,52.8 83.08,59.63 72.67,63.71 59.61,68.83 46.58,68.26 34.19,61.33 26.11,56.8 21.24,50 21.15,40.4 Z M 35.42,39 C 33.83,51.31 42.05,61.53 54.51,62.74 65.56,63.81 75.61,54.92 76.42,43.35 67.26,47.1 63.07,45.89 58,38.11 57.11,32.02 58.4,26.76 64.48,23.41 51.75,17.11 37.65,25.08 35.42,39 Z"
           style="fill:#fefefe;fill-rule:nonzero"
           id="path19385"
           inkscape:connector-curvature="0" /></g><g
         transform="translate(6.5041279,12.272497)"
         id="g19387"><path
           d="m 90.45,40.43 c 0.13,12.38 -7.36,19.21 -17.78,23.29 -13.06,5.12 -26.09,4.55 -38.48,-2.38 -8.09,-4.53 -13,-11.3 -13,-20.93 4.63,-15.73 20.19,-25.58 37.18,-23.59 6.11,0.72 12.11,1.72 17.64,4.67 7.74,4.12 13.17,9.94 14.48,18.94 h 20.32 c 0.06,-4 0.19,-8 0.18,-12 0,-13.05 -9.61,-23.58 -22.54,-23.79 -21.64,-0.34 -43.287,-0.34 -64.94,0 -12,0.17 -22,10 -22.5,21.3 C 0.8,30.75 1.08,35.58 1.14,40.41 1,46.1 1,51.75 0.95,57.41 0.9,72.27 10.61,82 25.63,82 c 9.32,0 18.65,0.34 27.94,-0.12 5.09,-0.26 6.17,2 6.52,6.27 0.62,7.5 -2.36,13.51 -7.6,19 0.682,0.132 1.375,0.196 2.07,0.19 0.813,-0.156 1.615,-0.366 2.4,-0.63 11.2,-3.43 19.49,-10.56 25.4,-20.47 1.66,-2.79 3.3,-4.16 6.86,-4.42 13.07,-1 21.72,-10.8 21.7,-24 0,-5.82 -0.1,-11.64 -0.15,-17.46 z"
           style="fill:#7289da;fill-opacity:1;fill-rule:nonzero"
           id="path19389"
           inkscape:connector-curvature="0" /></g><g
         transform="translate(6.5041279,12.272497)"
         id="g19391"><path
           d="M 58,38.11 C 57.11,32.02 58.4,26.76 64.48,23.41 51.75,17.11 37.65,25.08 35.43,39 33.84,51.31 42.06,61.53 54.52,62.73 65.57,63.8 75.62,54.91 76.43,43.34 67.26,47.1 63.07,45.89 58,38.11 Z"
           style="fill:#7289da;fill-opacity:1;fill-rule:nonzero"
           id="path19393"
           inkscape:connector-curvature="0" /></g></g></g></svg>