<?xml version="1.0" encoding="UTF-8" standalone="no"?>
<svg
   xmlns:dc="http://purl.org/dc/elements/1.1/"
   xmlns:cc="http://creativecommons.org/ns#"
   xmlns:rdf="http://www.w3.org/1999/02/22-rdf-syntax-ns#"
   xmlns:svg="http://www.w3.org/2000/svg"
   xmlns="http://www.w3.org/2000/svg"
   xmlns:sodipodi="http://sodipodi.sourceforge.net/DTD/sodipodi-0.dtd"
   xmlns:inkscape="http://www.inkscape.org/namespaces/inkscape"
   width="100%"
   height="100%"
   viewBox="0 0 128 128"
   version="1.1"
   xml:space="preserve"
   style="fill-rule:evenodd;clip-rule:evenodd;stroke-linejoin:round;stroke-miterlimit:1.41421;"
   id="svg13224"
   sodipodi:docname="warning.svg"
   inkscape:version="0.92.2 (5c3e80d, 2017-08-06)"><metadata
     id="metadata13230"><rdf:RDF><cc:Work
         rdf:about=""><dc:format>image/svg+xml</dc:format><dc:type
           rdf:resource="http://purl.org/dc/dcmitype/StillImage" /></cc:Work></rdf:RDF></metadata><defs
     id="defs13228" /><sodipodi:namedview
     pagecolor="#ffffff"
     bordercolor="#666666"
     borderopacity="1"
     objecttolerance="10"
     gridtolerance="10"
     guidetolerance="10"
     inkscape:pageopacity="0"
     inkscape:pageshadow="2"
     inkscape:window-width="1920"
     inkscape:window-height="1017"
     id="namedview13226"
     showgrid="false"
     inkscape:zoom="1.84375"
     inkscape:cx="64"
     inkscape:cy="64"
     inkscape:window-x="-8"
     inkscape:window-y="-8"
     inkscape:window-maximized="1"
     inkscape:current-layer="svg13224" /><rect
     id="warning"
     x="0"
     y="0"
     width="128"
     height="128"
     style="fill:none;" /><path
     d="M117.767,101.358l-47.567,-82.356c-1.281,-2.212 -3.651,-3.586 -6.212,-3.586c-2.561,0 -4.931,1.374 -6.211,3.586l-47.817,82.811c-1.28,2.231 -1.28,4.961 0,7.173c1.281,2.239 3.652,3.598 6.213,3.598l95.629,0c0.009,-0.001 0.019,-0.001 0.025,0c3.962,0 7.173,-3.21 7.173,-7.17c0.001,-1.496 -0.464,-2.888 -1.233,-4.056"
     style="fill:#faa61a;fill-rule:nonzero;fill-opacity:1"
     id="path13218" /><path
     d="M56.501,47.33c0,-0.988 0.343,-1.822 1.022,-2.49c0.68,-0.684 1.519,-1.024 2.507,-1.024l7.941,0c0.987,0 1.829,0.352 2.509,1.043c0.681,0.697 1.021,1.517 1.021,2.471l0,25.546c0,0.989 -0.341,1.817 -1.021,2.49c-0.68,0.683 -1.521,1.019 -2.509,1.019l-7.941,0c-0.988,0 -1.827,-0.336 -2.507,-1.019c-0.679,-0.673 -1.022,-1.501 -1.022,-2.49l0,-25.546Z"
     style="fill:#333333;fill-rule:nonzero;fill-opacity:1"
     id="path13220" /><path
     d="M56.501,86.782c0,-0.988 0.343,-1.823 1.022,-2.493c0.68,-0.681 1.519,-1.022 2.507,-1.022l7.941,0c0.987,0 1.829,0.353 2.509,1.043c0.681,0.698 1.021,1.518 1.021,2.473l0,7.523c0,0.989 -0.341,1.818 -1.021,2.497c-0.68,0.68 -1.521,1.014 -2.509,1.014l-7.941,0c-0.988,0 -1.827,-0.334 -2.507,-1.014c-0.679,-0.679 -1.022,-1.508 -1.022,-2.497l0,-7.524Z"
     style="fill:#333333;fill-rule:nonzero;fill-opacity:1"
     id="path13222" /></svg>