<?xml version="1.0" encoding="UTF-8" standalone="no"?>
<svg
   xmlns:dc="http://purl.org/dc/elements/1.1/"
   xmlns:cc="http://creativecommons.org/ns#"
   xmlns:rdf="http://www.w3.org/1999/02/22-rdf-syntax-ns#"
   xmlns:svg="http://www.w3.org/2000/svg"
   xmlns="http://www.w3.org/2000/svg"
   xmlns:sodipodi="http://sodipodi.sourceforge.net/DTD/sodipodi-0.dtd"
   xmlns:inkscape="http://www.inkscape.org/namespaces/inkscape"
   width="100%"
   height="100%"
   viewBox="0 0 128 128"
   version="1.1"
   xml:space="preserve"
   style="fill-rule:evenodd;clip-rule:evenodd;stroke-linejoin:round;stroke-miterlimit:1.41421;"
   id="svg22094"
   inkscape:version="0.92.2 (5c3e80d, 2017-08-06)"
   sodipodi:docname="warning_external_link.svg"><metadata
     id="metadata22135"><rdf:RDF><cc:Work
         rdf:about=""><dc:format>image/svg+xml</dc:format><dc:type
           rdf:resource="http://purl.org/dc/dcmitype/StillImage" /></cc:Work></rdf:RDF></metadata><sodipodi:namedview
     pagecolor="#ffffff"
     bordercolor="#666666"
     borderopacity="1"
     objecttolerance="10"
     gridtolerance="10"
     guidetolerance="10"
     inkscape:pageopacity="0"
     inkscape:pageshadow="2"
     inkscape:window-width="1920"
     inkscape:window-height="1017"
     id="namedview22133"
     showgrid="false"
     inkscape:zoom="5.2149125"
     inkscape:cx="49.434143"
     inkscape:cy="47.726877"
     inkscape:window-x="-8"
     inkscape:window-y="-8"
     inkscape:window-maximized="1"
     inkscape:current-layer="svg22094" /><path
     id="path19290"
     style="display:inline;fill:#ffffff;fill-opacity:1;fill-rule:nonzero;stroke-width:0.91982687"
     d="M 64,8.1774598 C 33.060714,8.1774598 7.6021865,33.376304 7.6021865,64 7.6021865,94.623696 33.060714,119.82254 64,119.82254 94.939286,119.82254 120.39781,94.623696 120.39781,64 120.39781,33.376304 94.939286,8.1774598 64,8.1774598 Z"
     inkscape:connector-curvature="0"
     sodipodi:nodetypes="sssss" /><rect
     id="warning_external_link"
     x="0"
     y="0"
     width="128"
     height="128"
     style="fill:none;" /><path
     d="M64,3c-33.464,0 -61,27.536 -61,61c0,33.464 27.536,61 61,61c33.464,0 61,-27.536 61,-61c0,-33.464 -27.536,-61 -61,-61Zm1.11,108.12c-13.67,0 -14,-0.35 -14,-14.14c0,-1.68 0,-3.36 0.09,-5c0.3,-3.53 2.24,-5.51 5.82,-5.64c2.34,-0.09 4.69,0 7,0c12.77,0 12.77,0 12.8,12.93c0.09,10.54 -1.19,11.83 -11.71,11.85Zm11.54,-44.12c-0.05,3.72 -2.26,5.86 -6.13,5.91c-4,0 -8.06,0.12 -12.09,0c-5.52,-0.13 -7.24,-1.81 -7.31,-7.28c-0.12,-6.83 -0.26,-13.72 -0.26,-20.63c0,-7.05 -0.08,-14.11 0,-21.16c0.14,-5.24 2.14,-7.2 7.41,-7.36c3.86,-0.11 7.72,0 11.59,0c4.55,0 7,2.4 7.05,6.76c0.06,14.587 -0.027,29.173 -0.26,43.76Z"
     style="fill:#c9070a;fill-rule:nonzero;"
     id="path22097" /><path
     d="M65,111.12c10.53,0 11.8,-1.31 11.77,-11.9c0,-13 0,-13 -12.8,-12.93c-2.35,0 -4.7,-0.07 -7,0c-3.59,0.13 -5.53,2.11 -5.82,5.64c-0.14,1.67 -0.09,3.35 -0.09,5c-0.06,13.84 0.31,14.21 13.94,14.19Z"
     style="fill:#fff;fill-rule:nonzero;"
     id="path22099" /><rect
     x="0"
     y="0"
     width="0.44"
     height="0.44"
     style="fill:none;"
     id="rect22105" /><rect
     x="127.56"
     y="0"
     width="0.44"
     height="0.44"
     style="fill:none;"
     id="rect22107" /><rect
     x="127.56"
     y="127.56"
     width="0.44"
     height="0.44"
     style="fill:none;"
     id="rect22109" /><rect
     x="0"
     y="127.56"
     width="0.44"
     height="0.44"
     style="fill:none;"
     id="rect22111" /><defs
     id="defs22113"><linearGradient
       id="_Linear1"
       x1="0"
       y1="0"
       x2="1"
       y2="0"
       gradientUnits="userSpaceOnUse"
       gradientTransform="matrix(4.52936e-15,73.97,-73.97,4.52936e-15,64,73.27)"><stop
         offset="0"
         style="stop-color:#fff;stop-opacity:0"
         id="stop22116" /><stop
         offset="0.24"
         style="stop-color:#fff;stop-opacity:0"
         id="stop22118" /><stop
         offset="1"
         style="stop-color:#fff;stop-opacity:0.6"
         id="stop22120" /></linearGradient><linearGradient
       id="_Linear2"
       x1="0"
       y1="0"
       x2="1"
       y2="0"
       gradientUnits="userSpaceOnUse"
       gradientTransform="matrix(4.59732e-15,-75.08,75.08,4.59732e-15,64,71.13)"><stop
         offset="0"
         style="stop-color:#fff;stop-opacity:0"
         id="stop22123" /><stop
         offset="0.06"
         style="stop-color:#fff;stop-opacity:0"
         id="stop22125" /><stop
         offset="0.67"
         style="stop-color:#fff;stop-opacity:0.678431"
         id="stop22127" /><stop
         offset="0.9"
         style="stop-color:#fff;stop-opacity:1"
         id="stop22129" /><stop
         offset="1"
         style="stop-color:#fff;stop-opacity:1"
         id="stop22131" /></linearGradient></defs></svg>