<?xml version="1.0" encoding="UTF-8" standalone="no"?>
<svg
   xmlns:dc="http://purl.org/dc/elements/1.1/"
   xmlns:cc="http://creativecommons.org/ns#"
   xmlns:rdf="http://www.w3.org/1999/02/22-rdf-syntax-ns#"
   xmlns:svg="http://www.w3.org/2000/svg"
   xmlns="http://www.w3.org/2000/svg"
   xmlns:sodipodi="http://sodipodi.sourceforge.net/DTD/sodipodi-0.dtd"
   xmlns:inkscape="http://www.inkscape.org/namespaces/inkscape"
   width="100%"
   height="100%"
   viewBox="0 0 128 128"
   version="1.1"
   xml:space="preserve"
   style="fill-rule:evenodd;clip-rule:evenodd;stroke-linejoin:round;stroke-miterlimit:1.41421;"
   id="svg15332"
   inkscape:version="0.92.2 (5c3e80d, 2017-08-06)"
   sodipodi:docname="warning_question.svg"><metadata
     id="metadata15355"><rdf:RDF><cc:Work
         rdf:about=""><dc:format>image/svg+xml</dc:format><dc:type
           rdf:resource="http://purl.org/dc/dcmitype/StillImage" /><dc:title></dc:title></cc:Work></rdf:RDF></metadata><defs
     id="defs15353" /><sodipodi:namedview
     pagecolor="#ffffff"
     bordercolor="#666666"
     borderopacity="1"
     objecttolerance="10"
     gridtolerance="10"
     guidetolerance="10"
     inkscape:pageopacity="0"
     inkscape:pageshadow="2"
     inkscape:window-width="1920"
     inkscape:window-height="1017"
     id="namedview15351"
     showgrid="false"
     inkscape:zoom="5.2149125"
     inkscape:cx="93.755982"
     inkscape:cy="59.223187"
     inkscape:window-x="-8"
     inkscape:window-y="-8"
     inkscape:window-maximized="1"
     inkscape:current-layer="message_info" /><g
     transform="matrix(1,0,0,1,-2688,-800)"
     id="g15334"><g
       id="message_info"
       transform="matrix(1,0,0,1.09402,2688,362.393)"><rect
         x="0"
         y="400"
         width="128"
         height="117"
         style="fill:none;"
         id="rect15337" /><g
         transform="matrix(1.3225685,0,0,1.2089096,-20.644381,362.61633)"
         id="g15339"><path
           d="M 64.003,32 C 37.768,32 16.5,53.268 16.5,79.499 16.5,105.733 37.768,127 64.003,127 90.233,127 111.5,105.733 111.5,79.499 111.5,53.268 90.233,32 64.003,32 Z"
           style="fill:#7289da;fill-opacity:1;fill-rule:nonzero"
           id="path15341"
           inkscape:connector-curvature="0" /></g><g
         transform="matrix(1.3225685,0,0,1.2089096,-20.644381,339.56343)"
         id="g15343" /><g
         transform="matrix(1.0463966,0,0,0.95647128,-2.9693566,461.16282)"
         id="g15347"><path
           d="m 75.642368,41.831867 c 0,1.490223 -0.506136,2.740246 -1.488997,3.747617 -1.000018,1.025754 -2.209599,1.539244 -3.647125,1.539244 H 57.487627 c -1.443654,0 -2.659362,-0.526971 -3.644674,-1.571107 -0.990214,-1.05149 -1.485321,-2.288032 -1.485321,-3.715754 V 29.003202 c 0,-1.481644 0.495107,-2.731667 1.485321,-3.74394 0.985312,-1.025754 2.20102,-1.525763 3.644674,-1.525763 h 13.019844 c 1.437526,0 2.645882,0.500009 3.647125,1.525763 0.982861,1.013499 1.488998,2.262296 1.488998,3.74394 v 12.828665 z"
           style="fill:#ffffff;fill-rule:nonzero;stroke-width:1.2255125"
           id="path15349"
           inkscape:connector-curvature="0" /></g><g
         aria-label="?"
         transform="matrix(1.0352869,0,0,0.92123351,3.7526851,-3.5379966)"
         style="font-style:normal;font-weight:normal;font-size:129.23661804px;line-height:125%;font-family:Sans;letter-spacing:0px;word-spacing:0px;fill:#000000;fill-opacity:1;stroke:none;stroke-width:3.23091531px;stroke-linecap:butt;stroke-linejoin:miter;stroke-opacity:1"
         id="text7582"><path
           d="M 64.812705,520.45786 H 50.872089 c -3.461485,0.26837 -3.83622,-1.57083 -4.080792,-3.09208 0,-3.44968 0.694142,-6.4997 2.082426,-9.15006 1.388284,-2.69243 4.312094,-6.10003 8.771431,-10.22282 l 4.038644,-3.66002 c 2.397945,-2.1876 4.143818,-4.24899 5.237617,-6.18417 1.135869,-1.93519 1.703803,-3.87037 1.703803,-5.80555 0,-2.94485 -1.009661,-5.23762 -3.028983,-6.87832 -2.019322,-1.68277 -4.837959,-2.52415 -8.455912,-2.52415 -3.407606,0 -7.088662,0.71518 -11.043168,2.14553 -2.763879,0.9703 -5.60996,2.27967 -8.538242,3.92813 -8.136273,2.27173 -8.46063,-15.60584 0.738421,-18.99352 3.337725,-1.0268 6.463531,-1.83159 9.377417,-2.41437 4.206921,-0.84139 8.2666,-1.26208 12.179037,-1.26208 10.264887,0 18.089761,2.10346 23.47462,6.31039 5.384859,4.16485 8.077288,10.26488 8.077288,18.3001 0,4.12279 -0.82035,7.82488 -2.461049,11.10627 -1.640699,3.23933 -4.438301,6.73108 -8.392807,10.47524 l -4.038645,3.59692 c -2.860706,2.60829 -4.732786,4.71175 -5.616239,6.31038 -0.883453,1.55656 -1.32518,3.2814 -1.32518,5.17451 0.09792,2.75436 -1.352231,2.85191 -4.759071,2.83967 z"
           style="font-style:normal;font-variant:normal;font-weight:bold;font-stretch:normal;font-family:Sans;-inkscape-font-specification:'Sans Bold';fill:#ffffff;stroke-width:3.23091531px"
           id="path7584"
           inkscape:connector-curvature="0"
           sodipodi:nodetypes="cccccccscscccsscscccccc" /></g></g></g></svg>