<?xml version="1.0" encoding="UTF-8" standalone="no"?>
<svg
   xmlns:dc="http://purl.org/dc/elements/1.1/"
   xmlns:cc="http://creativecommons.org/ns#"
   xmlns:rdf="http://www.w3.org/1999/02/22-rdf-syntax-ns#"
   xmlns:svg="http://www.w3.org/2000/svg"
   xmlns="http://www.w3.org/2000/svg"
   xmlns:sodipodi="http://sodipodi.sourceforge.net/DTD/sodipodi-0.dtd"
   xmlns:inkscape="http://www.inkscape.org/namespaces/inkscape"
   width="100%"
   height="100%"
   viewBox="0 0 128 128"
   version="1.1"
   xml:space="preserve"
   style="fill-rule:evenodd;clip-rule:evenodd;stroke-linejoin:round;stroke-miterlimit:1.41421;"
   id="svg15332"
   inkscape:version="0.92.2 (5c3e80d, 2017-08-06)"
   sodipodi:docname="warning_info.svg"><metadata
     id="metadata15355"><rdf:RDF><cc:Work
         rdf:about=""><dc:format>image/svg+xml</dc:format><dc:type
           rdf:resource="http://purl.org/dc/dcmitype/StillImage" /><dc:title /></cc:Work></rdf:RDF></metadata><defs
     id="defs15353" /><sodipodi:namedview
     pagecolor="#ffffff"
     bordercolor="#666666"
     borderopacity="1"
     objecttolerance="10"
     gridtolerance="10"
     guidetolerance="10"
     inkscape:pageopacity="0"
     inkscape:pageshadow="2"
     inkscape:window-width="1920"
     inkscape:window-height="1017"
     id="namedview15351"
     showgrid="false"
     inkscape:zoom="3.6875"
     inkscape:cx="130.06331"
     inkscape:cy="23.954723"
     inkscape:window-x="-8"
     inkscape:window-y="-8"
     inkscape:window-maximized="1"
     inkscape:current-layer="message_info" /><g
     transform="matrix(1,0,0,1,-2688,-800)"
     id="g15334"><g
       id="message_info"
       transform="matrix(1,0,0,1.09402,2688,362.393)"><rect
         x="0"
         y="400"
         width="128"
         height="117"
         style="fill:none;"
         id="rect15337" /><g
         transform="matrix(1.3225685,0,0,1.2089096,-20.644381,362.61633)"
         id="g15339"><path
           d="M 64.003,32 C 37.768,32 16.5,53.268 16.5,79.499 16.5,105.733 37.768,127 64.003,127 90.233,127 111.5,105.733 111.5,79.499 111.5,53.268 90.233,32 64.003,32 Z"
           style="fill:#7289da;fill-opacity:1;fill-rule:nonzero"
           id="path15341"
           inkscape:connector-curvature="0" /></g><g
         transform="matrix(1.3225685,0,0,1.2089096,-20.644381,362.61633)"
         id="g15343"><path
           d="m 73.5,108.784 c 0,1.188 -0.412,2.189 -1.215,2.987 C 71.47,112.594 70.482,113 69.31,113 H 58.686 c -1.179,0 -2.17,-0.427 -2.974,-1.251 -0.808,-0.833 -1.212,-1.814 -1.212,-2.965 V 81.171 c 0,-1.187 0.404,-2.183 1.212,-2.993 0.804,-0.81 1.795,-1.217 2.974,-1.217 H 69.31 c 1.173,0 2.16,0.407 2.976,1.217 0.803,0.811 1.215,1.807 1.215,2.993 v 27.613 z"
           style="fill:#ffffff;fill-rule:nonzero"
           id="path15345"
           inkscape:connector-curvature="0" /></g><g
         transform="matrix(1.0791963,0,0,0.98645228,-5.0685603,394.81421)"
         id="g15347"><path
           d="m 75.642368,41.831867 c 0,1.490223 -0.506136,2.740246 -1.488997,3.747617 -1.000018,1.025754 -2.209599,1.539244 -3.647125,1.539244 H 57.487627 c -1.443654,0 -2.659362,-0.526971 -3.644674,-1.571107 -0.990214,-1.05149 -1.485321,-2.288032 -1.485321,-3.715754 V 29.003202 c 0,-1.481644 0.495107,-2.731667 1.485321,-3.74394 0.985312,-1.025754 2.20102,-1.525763 3.644674,-1.525763 h 13.019844 c 1.437526,0 2.645882,0.500009 3.647125,1.525763 0.982861,1.013499 1.488998,2.262296 1.488998,3.74394 v 12.828665 z"
           style="fill:#ffffff;fill-rule:nonzero;stroke-width:1.2255125"
           id="path15349"
           inkscape:connector-curvature="0" /></g></g></g></svg>