<?xml version="1.0" encoding="UTF-8" standalone="no"?>
<!-- Created with Inkscape (http://www.inkscape.org/) -->

<svg
   xmlns:dc="http://purl.org/dc/elements/1.1/"
   xmlns:cc="http://creativecommons.org/ns#"
   xmlns:rdf="http://www.w3.org/1999/02/22-rdf-syntax-ns#"
   xmlns:svg="http://www.w3.org/2000/svg"
   xmlns="http://www.w3.org/2000/svg"
   xmlns:sodipodi="http://sodipodi.sourceforge.net/DTD/sodipodi-0.dtd"
   xmlns:inkscape="http://www.inkscape.org/namespaces/inkscape"
   width="200"
   height="100"
   viewBox="0 0 52.916665 26.458335"
   version="1.1"
   id="svg8"
   inkscape:version="0.92.2 (5c3e80d, 2017-08-06)"
   sodipodi:docname="chat.svg">
  <defs
     id="defs2" />
  <sodipodi:namedview
     id="base"
     pagecolor="#ffffff"
     bordercolor="#666666"
     borderopacity="1.0"
     inkscape:pageopacity="0.0"
     inkscape:pageshadow="2"
     inkscape:zoom="5.6"
     inkscape:cx="86.103943"
     inkscape:cy="-0.0095799519"
     inkscape:document-units="mm"
     inkscape:current-layer="svg8"
     showgrid="false"
     fit-margin-top="0"
     fit-margin-left="0"
     fit-margin-right="0"
     fit-margin-bottom="0"
     inkscape:window-width="1920"
     inkscape:window-height="1017"
     inkscape:window-x="-8"
     inkscape:window-y="-8"
     inkscape:window-maximized="1"
     units="px"
     inkscape:snap-page="true"
     inkscape:snap-bbox="true"
     inkscape:bbox-nodes="true" />
  <metadata
     id="metadata5">
    <rdf:RDF>
      <cc:Work
         rdf:about="">
        <dc:format>image/svg+xml</dc:format>
        <dc:type
           rdf:resource="http://purl.org/dc/dcmitype/StillImage" />
        <dc:title />
      </cc:Work>
    </rdf:RDF>
  </metadata>
  <path
     d="m 47.624777,10.452063 q 0,2.518225 -2.542185,4.125091 -0.0599,0.419705 -0.0599,0.77945 0,1.067247 0.647537,1.798732 0.0719,0.08394 1.355034,1.151189 -2.122488,0.04797 -3.297652,-0.755468 -0.887364,-0.599578 -1.426991,-1.894664 -0.851387,0.167882 -1.726761,0.167882 -0.971304,0 -2.050538,-0.299789 -0.4197,-1.570893 -1.786731,-2.841996 -1.462961,-1.367036 -3.105792,-1.486951 -0.10792,-0.467672 -0.10792,-0.743477 0,-2.1824593 2.062538,-3.633435 2.026548,-1.403011 4.988443,-1.403011 2.961892,0 4.98844,1.403011 2.062538,1.4509757 2.062538,3.633436 z m -9.581173,5.815898 q 0,2.218436 -2.074528,3.789329 -2.062531,1.570891 -4.988443,1.570891 -1.414981,0 -2.698065,-0.407712 -0.395717,2.434276 -2.758045,2.434276 -0.803434,0 -1.906648,-0.647538 0.995294,-0.107926 1.618851,-0.839405 0.623557,-0.743476 0.623557,-1.882673 0,-0.167882 -0.012,-0.347754 -1.918641,-1.54691 -1.918641,-3.669414 0,-2.206442 2.062538,-3.705386 2.026561,-1.474961 4.976453,-1.474961 2.937902,0 5.000433,1.486953 2.074528,1.486952 2.074528,3.693394 z"
     style="font-style:normal;font-variant:normal;font-weight:normal;font-stretch:normal;font-size:144.85324097px;font-family:Webdings;-inkscape-font-specification:Webdings;display:inline;fill:#35393d;fill-opacity:0.86666667;stroke-width:0.26458332px"
     id="path827"
     inkscape:connector-curvature="0"
     inkscape:label="chat" />
  <g
     aria-label="Chat"
     style="font-style:normal;font-weight:normal;font-size:5.2511735px;line-height:125%;font-family:Sans;letter-spacing:0px;word-spacing:0px;fill:#35393d;fill-opacity:0.86666667;stroke:none;stroke-width:0.26458332px;stroke-linecap:butt;stroke-linejoin:miter;stroke-opacity:1"
     id="text17">
    <path
       d="m 2.4070718,20.379754 v -2.356875 q 0,-1.003056 0.098459,-1.470738 0.09846,-0.473837 0.393838,-0.873828 0.2707636,-0.375377 0.7322925,-0.57845 0.4615289,-0.203073 1.0461322,-0.203073 1.0953619,0 1.6861189,0.695371 0.5907569,0.69537 0.5907569,1.981497 0,0.08 -0.055383,0.141535 -0.055384,0.05538 -0.1292281,0.05538 H 5.8470005 q -0.073845,0 -0.1353818,-0.05538 -0.055383,-0.06154 -0.055383,-0.141535 v -0.02461 q 0,-0.69537 -0.2523024,-1.05844 Q 5.157784,16.12138 4.677794,16.12138 q -0.196919,0 -0.350762,0.05538 -0.1538429,0.05538 -0.2584562,0.141535 -0.098459,0.08615 -0.1723041,0.227688 -0.067691,0.141535 -0.1046132,0.270764 -0.036922,0.123074 -0.061537,0.313839 -0.018461,0.184612 -0.024615,0.31384 0,0.123074 0,0.313839 v 2.799942 q 0,0.849214 0.1415356,1.249205 0.092306,0.252303 0.3199933,0.399992 0.2276876,0.141536 0.5230661,0.141536 0.2523025,0 0.436914,-0.104614 0.1846116,-0.104613 0.2830711,-0.246148 0.098459,-0.14769 0.1599967,-0.381531 0.061537,-0.239995 0.079998,-0.412299 0.018461,-0.178458 0.024615,-0.43076 0.00615,-0.123075 0.086152,-0.196919 0.086152,-0.08 0.2030728,-0.08 h 0.8430594 q 0.073845,0 0.1292281,0.05538 0.061537,0.04923 0.061537,0.129228 v 0.09231 q 0,1.378433 -0.5846033,2.08611 -0.5846033,0.707678 -1.7230412,0.707678 -0.633833,0 -1.1199768,-0.239995 Q 3.0839809,23.08739 2.8132172,22.638168 2.5793759,22.250484 2.4932239,21.782801 2.4070718,21.315119 2.4070718,20.379754 Z"
       style="font-style:normal;font-variant:normal;font-weight:normal;font-stretch:normal;font-size:12.60281563px;font-family:'TeamSpeak Gothic';-inkscape-font-specification:'TeamSpeak Gothic';fill:#35393d;fill-opacity:0.86666667;stroke-width:0.26458332px"
       id="path4496"
       inkscape:connector-curvature="0" />
    <path
       d="m 7.9823408,23.167388 v -7.839837 q 0,-0.123075 0.079998,-0.203073 0.086152,-0.08615 0.2092264,-0.08615 h 0.590757 q 0.1230744,0 0.2092265,0.08615 0.086152,0.08 0.086152,0.203073 v 1.981497 q 0,0.123074 0.086152,0.203073 0.086152,0.07384 0.2030727,0.07384 0.1046132,0 0.1723041,-0.06769 0.5353735,-0.424606 1.0953625,-0.424606 0.523066,0 0.769215,0.356916 0.252302,0.356915 0.252302,1.101515 v 4.615289 q 0,0.123074 -0.08,0.209227 -0.08,0.08 -0.196919,0.08 h -0.603065 q -0.123074,0 -0.209226,-0.08 -0.08,-0.08615 -0.08,-0.209227 v -4.307603 q 0,-0.406145 -0.09846,-0.566142 -0.09846,-0.16615 -0.344608,-0.16615 -0.2461493,0 -0.6092187,0.252302 -0.3569157,0.252302 -0.3569157,0.47999 v 4.307603 q 0,0.123074 -0.086152,0.209227 -0.086152,0.08 -0.2092265,0.08 h -0.590757 q -0.1230743,0 -0.2092264,-0.08 -0.079998,-0.08615 -0.079998,-0.209227 z"
       style="font-style:normal;font-variant:normal;font-weight:normal;font-stretch:normal;font-size:12.60281563px;font-family:'TeamSpeak Gothic';-inkscape-font-specification:'TeamSpeak Gothic';fill:#35393d;fill-opacity:0.86666667;stroke-width:0.26458332px"
       id="path4498"
       inkscape:connector-curvature="0" />
    <path
       d="m 12.757626,21.868953 q 0,-0.603064 0.246149,-1.009209 0.252303,-0.406146 0.836906,-0.756908 0.363069,-0.227687 1.421509,-0.676909 0.178458,-0.08 0.178458,-0.26461 v -0.141535 q 0,-0.47999 -0.141536,-0.683063 -0.141535,-0.209226 -0.473836,-0.209226 -0.283071,0 -0.449222,0.153843 -0.159996,0.147689 -0.221534,0.486143 -0.0062,0.104614 -0.0923,0.178458 -0.08,0.07384 -0.184612,0.07384 h -0.652294 q -0.135382,0 -0.221534,-0.09846 -0.08615,-0.104613 -0.06154,-0.239995 0.141535,-0.781522 0.658448,-1.187667 0.523066,-0.4123 1.384586,-0.4123 0.867675,0 1.286128,0.492298 0.196919,0.246149 0.26461,0.52922 0.07384,0.283071 0.07384,0.855367 v 2.787634 q 0,0.953826 0.08,1.359972 0.01846,0.135382 -0.06769,0.239995 -0.08615,0.09846 -0.221534,0.09846 H 15.69295 q -0.06769,0 -0.129228,-0.04308 -0.05538,-0.04923 -0.06154,-0.110767 -0.02462,-0.110766 -0.110767,-0.172304 -0.08,-0.06154 -0.178458,-0.06154 -0.116921,0 -0.178458,0.06154 -0.26461,0.227688 -0.492297,0.319994 -0.227688,0.0923 -0.510759,0.0923 -0.596911,0 -0.935365,-0.443067 -0.338455,-0.443068 -0.338455,-1.218437 z m 1.230744,-0.07384 q 0,0.307686 0.16615,0.504605 0.172305,0.196919 0.430761,0.196919 0.486143,0 0.806137,-0.486144 0.04923,-0.06769 0.04923,-0.16615 v -1.132285 q 0,-0.123074 -0.08615,-0.209226 -0.08615,-0.08615 -0.203073,-0.08615 -0.08,0 -0.153843,0.05538 -0.535374,0.332301 -0.775369,0.646141 -0.233841,0.307686 -0.233841,0.676909 z"
       style="font-style:normal;font-variant:normal;font-weight:normal;font-stretch:normal;font-size:12.60281563px;font-family:'TeamSpeak Gothic';-inkscape-font-specification:'TeamSpeak Gothic';fill:#35393d;fill-opacity:0.86666667;stroke-width:0.26458332px"
       id="path4500"
       inkscape:connector-curvature="0" />
    <path
       d="m 17.428299,17.936727 v -0.467682 q 0,-0.123075 0.08,-0.203073 0.08615,-0.08615 0.209226,-0.08615 h 0.326148 q 0.123074,0 0.203072,-0.08 0.08615,-0.08615 0.08615,-0.209227 v -1.144592 q 0,-0.11692 0.08,-0.196919 0.08615,-0.08 0.209226,-0.08 h 0.590757 q 0.123074,0 0.203073,0.08 0.08615,0.08 0.08615,0.196919 v 1.144592 q 0,0.123075 0.08615,0.209227 0.08615,0.08 0.209226,0.08 h 0.498452 q 0.11692,0 0.196919,0.08615 0.08615,0.08 0.08615,0.203073 v 0.467682 q 0,0.123075 -0.08615,0.209227 -0.08,0.08 -0.196919,0.08 H 19.79748 q -0.123074,0 -0.209226,0.08615 -0.08615,0.08 -0.08615,0.203073 v 3.052244 q 0,0.523066 0.190765,0.707678 0.190765,0.184611 0.719985,0.184611 0.116921,0 0.196919,0.08 0.08,0.07384 0.08,0.196919 v 0.467682 q 0,0.104614 -0.06769,0.190766 -0.06769,0.08 -0.172304,0.09846 -0.301533,0.03692 -0.566143,0.03692 -0.892289,0 -1.261512,-0.461528 -0.172304,-0.209227 -0.233841,-0.492298 -0.05538,-0.289225 -0.05538,-0.886135 v -3.175319 q 0,-0.123075 -0.08615,-0.203073 -0.08,-0.08615 -0.203072,-0.08615 h -0.326148 q -0.123074,0 -0.209226,-0.08 -0.08,-0.08615 -0.08,-0.209227 z"
       style="font-style:normal;font-variant:normal;font-weight:normal;font-stretch:normal;font-size:12.60281563px;font-family:'TeamSpeak Gothic';-inkscape-font-specification:'TeamSpeak Gothic';fill:#35393d;fill-opacity:0.86666667;stroke-width:0.26458332px"
       id="path4502"
       inkscape:connector-curvature="0" />
  </g>
</svg>
