<?xml version="1.0" encoding="UTF-8" standalone="no"?>
<!-- Created with Inkscape (http://www.inkscape.org/) -->

<svg
   xmlns:dc="http://purl.org/dc/elements/1.1/"
   xmlns:cc="http://creativecommons.org/ns#"
   xmlns:rdf="http://www.w3.org/1999/02/22-rdf-syntax-ns#"
   xmlns:svg="http://www.w3.org/2000/svg"
   xmlns="http://www.w3.org/2000/svg"
   xmlns:sodipodi="http://sodipodi.sourceforge.net/DTD/sodipodi-0.dtd"
   xmlns:inkscape="http://www.inkscape.org/namespaces/inkscape"
   width="44.100666mm"
   height="44.100151mm"
   viewBox="0 0 44.100666 44.100151"
   version="1.1"
   id="svg8"
   inkscape:version="0.92.2 (5c3e80d, 2017-08-06)"
   sodipodi:docname="checkbox_tree_inacitve_enabled.svg">
  <defs
     id="defs2" />
  <sodipodi:namedview
     id="base"
     pagecolor="#ffffff"
     bordercolor="#666666"
     borderopacity="1.0"
     inkscape:pageopacity="0.0"
     inkscape:pageshadow="2"
     inkscape:zoom="1.4"
     inkscape:cx="59.396921"
     inkscape:cy="46.583501"
     inkscape:document-units="mm"
     inkscape:current-layer="layer1"
     showgrid="false"
     inkscape:window-width="1920"
     inkscape:window-height="1017"
     inkscape:window-x="-8"
     inkscape:window-y="-8"
     inkscape:window-maximized="1"
     fit-margin-top="0"
     fit-margin-left="0"
     fit-margin-right="0"
     fit-margin-bottom="0" />
  <metadata
     id="metadata5">
    <rdf:RDF>
      <cc:Work
         rdf:about="">
        <dc:format>image/svg+xml</dc:format>
        <dc:type
           rdf:resource="http://purl.org/dc/dcmitype/StillImage" />
        <dc:title />
      </cc:Work>
    </rdf:RDF>
  </metadata>
  <g
     inkscape:label="Ebene 1"
     inkscape:groupmode="layer"
     id="layer1"
     transform="translate(-94.426277,-174.66375)">
    <path
       style="display:inline;opacity:1;fill:#707276;fill-opacity:1;fill-rule:evenodd;stroke:none;stroke-width:3.77952766;stroke-linecap:butt;stroke-linejoin:round;stroke-miterlimit:4;stroke-dasharray:none;stroke-dashoffset:0;stroke-opacity:1"
       d="m 375.78516,660.14648 c -10.4693,0 -18.89844,8.4272 -18.89844,18.89649 v 128.88281 c 0,10.46929 8.42914,18.89844 18.89844,18.89844 h 128.88281 c 10.46929,0 18.89844,-8.42915 18.89844,-18.89844 V 679.04297 c 0,-10.46929 -8.42915,-18.89649 -18.89844,-18.89649 z m 110.5957,42.88672 c 1.861,0.0113 3.45868,0.66278 4.80469,2.00977 l 3.66406,3.66601 c 1.35402,1.34998 2.002,2.95613 2,4.82813 -0.0491,1.85703 -0.70889,3.44527 -2.00391,4.73828 0,0 -59.3695,59.37142 -60.27148,60.27344 -0.90202,0.90198 -2.81749,2.8125 -5.8125,2.8125 -2.99501,0 -4.9726,-1.9726 -5.8086,-2.8086 -0.83599,-0.83599 -22.80468,-22.80859 -22.80468,-22.80859 -1.342,-1.33999 -2.01193,-2.93381 -2.00196,-4.75781 -0.034,-1.85001 0.6539,-3.44491 2.00391,-4.79492 l 3.66406,-3.66602 c 1.35001,-1.34801 2.9479,-2.03695 4.79688,-2.00195 1.82698,-0.0113 3.41386,0.658 4.75586,2 l 15.39258,15.39648 52.86523,-52.86523 c 1.342,-1.34298 2.92986,-2.00648 4.75586,-2.02149 z"
       transform="scale(0.26458333)"
       id="rect1029"
       inkscape:connector-curvature="0"
       inkscape:label="active" />
  </g>
</svg>
