<?xml version="1.0" encoding="UTF-8" standalone="no"?>
<svg
   xmlns:dc="http://purl.org/dc/elements/1.1/"
   xmlns:cc="http://creativecommons.org/ns#"
   xmlns:rdf="http://www.w3.org/1999/02/22-rdf-syntax-ns#"
   xmlns:svg="http://www.w3.org/2000/svg"
   xmlns="http://www.w3.org/2000/svg"
   xmlns:sodipodi="http://sodipodi.sourceforge.net/DTD/sodipodi-0.dtd"
   xmlns:inkscape="http://www.inkscape.org/namespaces/inkscape"
   width="100%"
   height="100%"
   viewBox="0 0 128 128"
   version="1.1"
   xml:space="preserve"
   style="fill-rule:evenodd;clip-rule:evenodd;stroke-linejoin:round;stroke-miterlimit:1.41421;"
   id="svg3385"
   inkscape:version="0.91 r13725"
   sodipodi:docname="3d_sound_user.svg"><metadata
     id="metadata3408"><rdf:RDF><cc:Work
         rdf:about=""><dc:format>image/svg+xml</dc:format><dc:type
           rdf:resource="http://purl.org/dc/dcmitype/StillImage" /></cc:Work></rdf:RDF></metadata><defs
     id="defs3406" /><sodipodi:namedview
     pagecolor="#ffffff"
     bordercolor="#666666"
     borderopacity="1"
     objecttolerance="10"
     gridtolerance="10"
     guidetolerance="10"
     inkscape:pageopacity="0"
     inkscape:pageshadow="2"
     inkscape:window-width="1280"
     inkscape:window-height="961"
     id="namedview3404"
     showgrid="false"
     inkscape:zoom="1.84375"
     inkscape:cx="-31.186441"
     inkscape:cy="64"
     inkscape:window-x="1912"
     inkscape:window-y="-8"
     inkscape:window-maximized="1"
     inkscape:current-layer="svg3385" /><g
     transform="matrix(1,0,0,1,0,-161)"
     id="g3387"><g
       id="_3d_sound_user"
       transform="matrix(1,0,0,1.37634,0,-24.8065)"><rect
         x="0"
         y="135"
         width="128"
         height="93"
         style="fill:none;"
         id="rect3390" /><g
         transform="matrix(1,0,0,0.726562,0,135)"
         id="g3392"
         style="fill:#a9aaac;fill-opacity:1"><path
           d="M58.789,104.282L58.789,76.155C58.789,72.689 60.586,69.472 63.535,67.65C63.695,67.551 63.857,67.457 64.021,67.368L65.048,66.788C65.014,66.771 64.979,66.759 64.945,66.742C63.15,65.836 57.424,61.617 58.239,60.737C62.392,56.238 63.994,55.059 66.072,49.959L66.726,48.345L68.187,47.583C69.41,46.947 71.04,44.523 71.916,40.531C72.419,38.252 72.524,35.95 72.202,34.217C71.966,32.978 71.589,32.321 71.307,32.124L69.604,30.91L69.34,28.699C68.022,17.027 61.342,9 49.424,9C37.497,9 30.819,17.023 29.484,28.687L29.227,30.913L27.499,32.124C27.222,32.32 26.84,32.971 26.607,34.216C26.287,35.952 26.388,38.254 26.892,40.533C27.78,44.533 29.404,46.956 30.625,47.586L32.102,48.345L32.765,49.968C34.838,55.068 36.61,56.418 40.59,60.734C41.657,61.891 35.689,65.83 33.889,66.741C32.52,67.428 31.133,67.817 29.67,68.232C25.6,69.371 20.986,70.671 15.383,79.204C11.176,85.627 9.241,107.667 9,119L74.124,119L63.732,112.909C60.67,111.114 58.789,107.831 58.789,104.282Z"
           style="fill:#a9aaac;fill-rule:nonzero;fill-opacity:1"
           id="path3394" /></g><g
         transform="matrix(1,0,0,0.726562,0,135)"
         id="g3396"><path
           d="M68.794,76.166L93.891,90.828L93.891,119L68.794,104.351L68.794,76.166Z"
           style="fill:#a9aaac;fill-rule:nonzero;fill-opacity:1"
           id="path3398" /><path
           d="M119,76.166L93.891,90.828L93.891,119L119,104.351L119,76.166Z"
           style="fill:#808080;fill-rule:nonzero;fill-opacity:1"
           id="path3400" /><path
           d="M119,76.17L93.889,61.99L68.794,76.157L93.918,90.845L119,76.17Z"
           style="fill:#999999;fill-rule:nonzero;fill-opacity:1"
           id="path3402" /></g></g></g></svg>