<?xml version="1.0" encoding="UTF-8" standalone="no"?>
<svg
   xmlns:dc="http://purl.org/dc/elements/1.1/"
   xmlns:cc="http://creativecommons.org/ns#"
   xmlns:rdf="http://www.w3.org/1999/02/22-rdf-syntax-ns#"
   xmlns:svg="http://www.w3.org/2000/svg"
   xmlns="http://www.w3.org/2000/svg"
   xmlns:sodipodi="http://sodipodi.sourceforge.net/DTD/sodipodi-0.dtd"
   xmlns:inkscape="http://www.inkscape.org/namespaces/inkscape"
   width="100%"
   height="100%"
   viewBox="0 0 128 128"
   version="1.1"
   xml:space="preserve"
   style="fill-rule:evenodd;clip-rule:evenodd;stroke-linejoin:round;stroke-miterlimit:1.41421;"
   id="svg13297"
   inkscape:version="0.91 r13725"
   sodipodi:docname="broken_image.svg"><metadata
     id="metadata13308"><rdf:RDF><cc:Work
         rdf:about=""><dc:format>image/svg+xml</dc:format><dc:type
           rdf:resource="http://purl.org/dc/dcmitype/StillImage" /></cc:Work></rdf:RDF></metadata><defs
     id="defs13306" /><sodipodi:namedview
     pagecolor="#ffffff"
     bordercolor="#666666"
     borderopacity="1"
     objecttolerance="10"
     gridtolerance="10"
     guidetolerance="10"
     inkscape:pageopacity="0"
     inkscape:pageshadow="2"
     inkscape:window-width="1920"
     inkscape:window-height="1017"
     id="namedview13304"
     showgrid="false"
     inkscape:zoom="2.6074563"
     inkscape:cx="71.942867"
     inkscape:cy="80.997735"
     inkscape:window-x="-8"
     inkscape:window-y="-8"
     inkscape:window-maximized="1"
     inkscape:current-layer="svg13297" /><rect
     id="broken_image"
     x="0"
     y="0"
     width="128"
     height="128"
     style="fill:none;" /><path
     d="M64.012,18.988c24.813,0 45,20.194 45,45.016c0,24.821 -20.187,45.016 -45,45.016c-24.813,0 -45,-20.194 -45,-45.016c0,-24.822 20.187,-45.016 45,-45.016m0,-10c-30.376,0 -55,24.631 -55,55.016c0,30.385 24.624,55.016 55,55.016c30.376,0 55,-24.631 55,-55.016c0,-30.385 -24.624,-55.016 -55,-55.016Z"
     style="fill:#a9aaac;fill-rule:nonzero;fill-opacity:1"
     id="path13300" /><path
     d="M105.036,30.036l-75,75l-7.072,-7.072l75,-75l7.072,7.072Z"
     style="fill:#a9aaac;fill-opacity:1"
     id="path13302" /></svg>