<?xml version="1.0" encoding="UTF-8" standalone="no"?>
<svg
   xmlns:dc="http://purl.org/dc/elements/1.1/"
   xmlns:cc="http://creativecommons.org/ns#"
   xmlns:rdf="http://www.w3.org/1999/02/22-rdf-syntax-ns#"
   xmlns:svg="http://www.w3.org/2000/svg"
   xmlns="http://www.w3.org/2000/svg"
   xmlns:sodipodi="http://sodipodi.sourceforge.net/DTD/sodipodi-0.dtd"
   xmlns:inkscape="http://www.inkscape.org/namespaces/inkscape"
   width="100%"
   height="100%"
   viewBox="0 0 128 128"
   version="1.1"
   xml:space="preserve"
   style="fill-rule:evenodd;clip-rule:evenodd;stroke-linejoin:round;stroke-miterlimit:1.41421;"
   id="svg9762"
   inkscape:version="0.91 r13725"
   sodipodi:docname="channel_green_subscribed.svg"><metadata
     id="metadata9773"><rdf:RDF><cc:Work
         rdf:about=""><dc:format>image/svg+xml</dc:format><dc:type
           rdf:resource="http://purl.org/dc/dcmitype/StillImage" /></cc:Work></rdf:RDF></metadata><defs
     id="defs9771" /><sodipodi:namedview
     pagecolor="#ffffff"
     bordercolor="#666666"
     borderopacity="1"
     objecttolerance="10"
     gridtolerance="10"
     guidetolerance="10"
     inkscape:pageopacity="0"
     inkscape:pageshadow="2"
     inkscape:window-width="1920"
     inkscape:window-height="1017"
     id="namedview9769"
     showgrid="false"
     inkscape:zoom="1.84375"
     inkscape:cx="-126.37288"
     inkscape:cy="64"
     inkscape:window-x="-8"
     inkscape:window-y="-8"
     inkscape:window-maximized="1"
     inkscape:current-layer="svg9762" /><rect
     id="channel_green_subscribed"
     x="0"
     y="0"
     width="128"
     height="128"
     style="fill:none;" /><path
     d="M95.651,12.505l-63.304,0c-12.893,0 -23.347,10.454 -23.347,23.348l0,30.299c0,12.897 10.454,23.348 23.347,23.348l34.539,0c2.035,5.361 4.119,16.285 -6.902,25.995c20.145,-3.741 29.606,-19.512 32.702,-25.995l2.966,0c12.893,0 23.348,-10.451 23.348,-23.348l0,-30.299c0,-12.894 -10.455,-23.348 -23.349,-23.348Z"
     style="fill:#7289da;fill-rule:nonzero;fill-opacity:1"
     id="path9765" /><path
     d="M88.875,40.91l-31.169,31.118c-0.604,0.604 -1.494,0.891 -2.668,0.856c-1.075,-0.033 -1.897,-0.318 -2.467,-0.856l-13.446,-13.444c-0.604,-0.604 -0.906,-1.342 -0.906,-2.216c0,-0.872 0.302,-1.611 0.906,-2.215l4.481,-4.481c0.604,-0.604 1.342,-0.906 2.216,-0.906c0.873,0 1.611,0.302 2.215,0.906l7.1,7.1l24.825,-24.774c0.604,-0.604 1.342,-0.906 2.216,-0.906c0.872,0 1.611,0.302 2.215,0.906l4.481,4.432c0.604,0.638 0.906,1.385 0.906,2.24c0.001,0.855 -0.301,1.602 -0.905,2.24Z"
     style="fill:#f2f2f2;fill-rule:nonzero"
     id="path9767" /></svg>