<?xml version="1.0" encoding="UTF-8" standalone="no"?>
<svg
   xmlns:dc="http://purl.org/dc/elements/1.1/"
   xmlns:cc="http://creativecommons.org/ns#"
   xmlns:rdf="http://www.w3.org/1999/02/22-rdf-syntax-ns#"
   xmlns:svg="http://www.w3.org/2000/svg"
   xmlns="http://www.w3.org/2000/svg"
   xmlns:sodipodi="http://sodipodi.sourceforge.net/DTD/sodipodi-0.dtd"
   xmlns:inkscape="http://www.inkscape.org/namespaces/inkscape"
   width="100%"
   height="100%"
   viewBox="0 0 128 128"
   version="1.1"
   xml:space="preserve"
   style="fill-rule:evenodd;clip-rule:evenodd;stroke-linejoin:round;stroke-miterlimit:1.41421;"
   id="svg8657"
   inkscape:version="0.91 r13725"
   sodipodi:docname="channel_expand_all.svg"><metadata
     id="metadata8670"><rdf:RDF><cc:Work
         rdf:about=""><dc:format>image/svg+xml</dc:format><dc:type
           rdf:resource="http://purl.org/dc/dcmitype/StillImage" /></cc:Work></rdf:RDF></metadata><defs
     id="defs8668" /><sodipodi:namedview
     pagecolor="#ffffff"
     bordercolor="#666666"
     borderopacity="1"
     objecttolerance="10"
     gridtolerance="10"
     guidetolerance="10"
     inkscape:pageopacity="0"
     inkscape:pageshadow="2"
     inkscape:window-width="1920"
     inkscape:window-height="1017"
     id="namedview8666"
     showgrid="false"
     inkscape:zoom="1.84375"
     inkscape:cx="-31.186441"
     inkscape:cy="64"
     inkscape:window-x="-8"
     inkscape:window-y="-8"
     inkscape:window-maximized="1"
     inkscape:current-layer="svg8657" /><rect
     id="channel_expand_all"
     x="0"
     y="0"
     width="128"
     height="128"
     style="fill:none;" /><path
     d="M58.592,54.015l-36.23,0c-7.379,0 -13.362,5.983 -13.362,13.361l0,17.342c0,7.383 5.982,13.363 13.361,13.363l19.768,0c1.164,3.068 2.357,9.32 -3.951,14.877c11.529,-2.141 16.945,-11.166 18.717,-14.877l1.697,0c7.378,0 13.363,-5.98 13.363,-13.363l0,-17.342c0,-7.378 -5.984,-13.361 -13.363,-13.361Z"
     style="fill:#7289da;fill-rule:nonzero;fill-opacity:1"
     id="path8660" /><path
     d="M100.473,15.043l-50.234,0c-10.23,0 -18.525,8.295 -18.525,18.525l0,11.853l26.879,0c12.107,0 21.957,9.85 21.957,21.955l0,17.342c0,3.801 -0.988,7.369 -2.695,10.49c12.122,-4.471 18.118,-14.576 20.264,-19.069l2.354,0c10.23,0 18.527,-8.293 18.527,-18.527l0,-24.043c0,-10.231 -8.297,-18.526 -18.527,-18.526Z"
     style="fill:#a9aaac;fill-rule:nonzero;fill-opacity:1"
     id="path8662" /><path
     d="M40.501,88.22c-0.699,0 -1.396,-0.35 -2.095,-1.049l-14.008,-14.203c-0.458,-0.459 -0.688,-1.016 -0.688,-1.67c0,-0.654 0.229,-1.211 0.688,-1.67l1.669,-1.668c0.458,-0.459 1.015,-0.688 1.669,-0.688c0.654,0 1.211,0.229 1.669,0.688l11.063,11.062l11.063,-11.063c0.458,-0.459 1.015,-0.688 1.669,-0.688c0.655,0 1.211,0.229 1.669,0.688l1.669,1.668c0.458,0.459 0.688,1.016 0.688,1.67c0,0.654 -0.229,1.211 -0.688,1.67l-13.942,14.204c-0.699,0.699 -1.397,1.049 -2.095,1.049Z"
     style="fill:#fff;fill-rule:nonzero;"
     id="path8664" /></svg>