<?xml version="1.0" encoding="UTF-8" standalone="no"?>
<svg
   xmlns:dc="http://purl.org/dc/elements/1.1/"
   xmlns:cc="http://creativecommons.org/ns#"
   xmlns:rdf="http://www.w3.org/1999/02/22-rdf-syntax-ns#"
   xmlns:svg="http://www.w3.org/2000/svg"
   xmlns="http://www.w3.org/2000/svg"
   xmlns:sodipodi="http://sodipodi.sourceforge.net/DTD/sodipodi-0.dtd"
   xmlns:inkscape="http://www.inkscape.org/namespaces/inkscape"
   width="100%"
   height="100%"
   viewBox="0 0 128 128"
   version="1.1"
   xml:space="preserve"
   style="fill-rule:evenodd;clip-rule:evenodd;stroke-linejoin:round;stroke-miterlimit:1.41421;"
   id="svg18671"
   inkscape:version="0.91 r13725"
   sodipodi:docname="client_hide.svg"><metadata
     id="metadata18688"><rdf:RDF><cc:Work
         rdf:about=""><dc:format>image/svg+xml</dc:format><dc:type
           rdf:resource="http://purl.org/dc/dcmitype/StillImage" /></cc:Work></rdf:RDF></metadata><defs
     id="defs18686" /><sodipodi:namedview
     pagecolor="#ffffff"
     bordercolor="#666666"
     borderopacity="1"
     objecttolerance="10"
     gridtolerance="10"
     guidetolerance="10"
     inkscape:pageopacity="0"
     inkscape:pageshadow="2"
     inkscape:window-width="1920"
     inkscape:window-height="1017"
     id="namedview18684"
     showgrid="false"
     inkscape:zoom="1.84375"
     inkscape:cx="64"
     inkscape:cy="64"
     inkscape:window-x="-8"
     inkscape:window-y="-8"
     inkscape:window-maximized="1"
     inkscape:current-layer="svg18671" /><rect
     id="client_hide"
     x="0"
     y="0"
     width="128"
     height="128"
     style="fill:none;" /><path
     d="M55.516,10.331c-16.247,0 -24.188,2.921 -26.971,4.174c-2.782,1.249 -4.169,2.503 -4.726,5.141c-0.458,2.187 -3.588,17.65 -4.652,22.917c-5.674,2.364 -9.667,7.968 -9.667,14.503c0,8.682 7.035,15.715 15.711,15.715c8.675,0 15.713,-7.033 15.713,-15.715c0,-5.667 -3.009,-10.637 -7.51,-13.398l0,-29.163c0,0 5.141,-1.778 18.212,-1.778c19.66,0 58.944,13.923 58.944,51.223c0,35.646 -38.511,49.96 -60.892,49.96c-16.681,0 -23.076,-3.613 -23.076,-3.613l-2.783,1.534c0,0 10.707,5.838 29.888,5.838c30.719,0 64.792,-19.936 64.792,-53.719c0.001,-34.429 -36.43,-53.619 -62.983,-53.619Z"
     style="fill:#a9aaac;fill-rule:nonzero;fill-opacity:1"
     id="path18674" /><path
     d="M58.482,49.376c0.395,2.486 -2.742,3.846 -2.742,5.714c0,1.6 6.802,11.247 8.7,14.284c1.79,2.88 0.608,4.109 -2.883,4.954c-3.492,0.846 -3.075,2.486 -3.075,3.823c0,1.337 1.34,2.517 1.34,3.443c0,0.914 -2.317,2.043 -2.317,2.868c0,0.824 1.676,1.67 1.676,2.334c0,0.665 -2.132,1.539 -2.273,3.204c-0.149,1.806 2.915,5.346 -0.283,9.236c-3.2,3.888 -17.374,1.047 -17.374,1.047c0,0 12.375,-11.816 12.375,-29.746c0,-17.94 -13.902,-26.976 -13.902,-26.976c0,0 0,-20.305 0,-24.19c7.668,0.002 18.479,15.727 20.758,30.005Z"
     style="fill:#a9aaac;fill-rule:nonzero;fill-opacity:1"
     id="path18676" /><path
     d="M60.533,100.582c0,0 2.124,-3.035 1.592,-5.155c-0.532,-2.124 -1.265,-4.68 -0.755,-5.507c0.517,-0.82 1.965,-0.915 1.965,-2.698c0,-0.975 -0.333,-1.433 -0.635,-1.71c0.503,-0.324 0.941,-0.433 0.941,-0.605c0,-0.088 -0.297,-0.422 -1.19,-0.283c0.482,-0.565 1.558,-1.546 1.558,-2.707c0,-1.497 -1.258,-2.176 -1.258,-3.768c0,-1.593 1.645,-1.689 2.999,-2.071c1.348,-0.394 4.052,-1.265 4.052,-3.957c0,-2.708 -9.606,-14.769 -9.606,-16.266c0,-1.497 2.91,-2.82 2.459,-6.322c-0.063,-0.496 -0.168,-1.093 -0.315,-1.773c2.318,-0.399 12.701,-5.016 11.417,-8.238c-1.965,-4.93 -17.505,-13.787 -22.969,-15.233c-2.163,-2.488 -4.636,-4.682 -7.429,-6.313c21.759,-2.792 58.59,11.992 58.59,41.308c-0.002,29.305 -30.248,39.82 -41.416,41.298Z"
     style="fill:#a9aaac;fill-rule:nonzero;fill-opacity:1"
     id="path18678" /><path
     d="M62.703,85.51c-0.152,-0.166 -0.471,-0.308 -0.471,-0.451c0,-0.143 0.047,-0.248 0.216,-0.436c7.182,-3.208 13.397,-9.818 13.397,-18.271c0,-8.45 -7.128,-15.787 -13.508,-18.591c-1.148,-5.329 -4.877,-15.794 -11.55,-23.472c10.898,-1.214 38.494,9.987 38.494,29.945c0,21.789 -21.997,30.087 -26.578,31.276Z"
     style="fill:#fff;fill-rule:nonzero;"
     id="path18680" /><path
     d="M33.37,58.577c0,5.886 -4.776,10.67 -10.667,10.67c-5.888,0 -10.67,-4.784 -10.67,-10.67c0,-5.891 4.783,-10.673 10.67,-10.673c5.891,-0.001 10.667,4.782 10.667,10.673Z"
     style="fill:#fff;fill-rule:nonzero;"
     id="path18682" /></svg>