<?xml version="1.0" encoding="UTF-8" standalone="no"?>
<svg
   xmlns:dc="http://purl.org/dc/elements/1.1/"
   xmlns:cc="http://creativecommons.org/ns#"
   xmlns:rdf="http://www.w3.org/1999/02/22-rdf-syntax-ns#"
   xmlns:svg="http://www.w3.org/2000/svg"
   xmlns="http://www.w3.org/2000/svg"
   xmlns:sodipodi="http://sodipodi.sourceforge.net/DTD/sodipodi-0.dtd"
   xmlns:inkscape="http://www.inkscape.org/namespaces/inkscape"
   width="100%"
   height="100%"
   viewBox="0 0 128 128"
   version="1.1"
   xml:space="preserve"
   style="fill-rule:evenodd;clip-rule:evenodd;stroke-linejoin:round;stroke-miterlimit:1.41421;"
   id="svg19789"
   inkscape:version="0.91 r13725"
   sodipodi:docname="close_button.svg"><metadata
     id="metadata19797"><rdf:RDF><cc:Work
         rdf:about=""><dc:format>image/svg+xml</dc:format><dc:type
           rdf:resource="http://purl.org/dc/dcmitype/StillImage" /></cc:Work></rdf:RDF></metadata><defs
     id="defs19795" /><sodipodi:namedview
     pagecolor="#ffffff"
     bordercolor="#666666"
     borderopacity="1"
     objecttolerance="10"
     gridtolerance="10"
     guidetolerance="10"
     inkscape:pageopacity="0"
     inkscape:pageshadow="2"
     inkscape:window-width="1920"
     inkscape:window-height="1017"
     id="namedview19793"
     showgrid="false"
     inkscape:zoom="1.84375"
     inkscape:cx="64"
     inkscape:cy="64"
     inkscape:window-x="-8"
     inkscape:window-y="-8"
     inkscape:window-maximized="1"
     inkscape:current-layer="svg19789" /><rect
     id="close_button"
     x="0"
     y="0"
     width="128"
     height="128"
     style="fill:none;" /><path
     id="Ebene_4"
     d="M106.881,25.002c1.418,1.416 2.145,3.099 2.11,5.045c0.011,1.923 -0.696,3.595 -2.108,5.006l-28.959,28.96l28.949,28.953c1.412,1.411 2.111,3.084 2.127,4.996c-0.009,1.969 -0.697,3.647 -2.115,5.065l-3.859,3.86c-1.42,1.421 -3.112,2.104 -5.084,2.104c-1.954,-0.053 -3.625,-0.75 -4.988,-2.109l-28.946,-28.953l-28.941,28.952c-1.416,1.413 -3.099,2.132 -5.02,2.118c-1.948,0.035 -3.631,-0.69 -5.051,-2.108l-3.855,-3.86c-1.423,-1.421 -2.121,-3.135 -2.09,-5.069c0.034,-1.966 0.716,-3.619 2.098,-4.995l28.945,-28.952l-28.954,-28.959c-1.418,-1.414 -2.122,-3.091 -2.14,-5.015c0.012,-1.957 0.721,-3.623 2.144,-5.041l3.862,-3.86c1.415,-1.422 3.077,-2.128 5.034,-2.14c1.924,0.023 3.601,0.726 5.015,2.14l28.955,28.957l28.958,-28.957c1.411,-1.411 3.086,-2.117 5.008,-2.107c1.946,-0.039 3.625,0.686 5.046,2.109l3.859,3.86Z"
     style="fill:#a9aaac;fill-rule:nonzero;fill-opacity:1" /></svg>