<?xml version="1.0" encoding="UTF-8" standalone="no"?>
<svg
   xmlns:dc="http://purl.org/dc/elements/1.1/"
   xmlns:cc="http://creativecommons.org/ns#"
   xmlns:rdf="http://www.w3.org/1999/02/22-rdf-syntax-ns#"
   xmlns:svg="http://www.w3.org/2000/svg"
   xmlns="http://www.w3.org/2000/svg"
   xmlns:sodipodi="http://sodipodi.sourceforge.net/DTD/sodipodi-0.dtd"
   xmlns:inkscape="http://www.inkscape.org/namespaces/inkscape"
   width="100%"
   height="100%"
   viewBox="0 0 128 128"
   version="1.1"
   xml:space="preserve"
   style="fill-rule:evenodd;clip-rule:evenodd;stroke-linejoin:round;stroke-miterlimit:1.41421;"
   id="svg22584"
   inkscape:version="0.91 r13725"
   sodipodi:docname="copy.svg"><metadata
     id="metadata22609"><rdf:RDF><cc:Work
         rdf:about=""><dc:format>image/svg+xml</dc:format><dc:type
           rdf:resource="http://purl.org/dc/dcmitype/StillImage" /></cc:Work></rdf:RDF></metadata><defs
     id="defs22607" /><sodipodi:namedview
     pagecolor="#ffffff"
     bordercolor="#666666"
     borderopacity="1"
     objecttolerance="10"
     gridtolerance="10"
     guidetolerance="10"
     inkscape:pageopacity="0"
     inkscape:pageshadow="2"
     inkscape:window-width="1920"
     inkscape:window-height="1017"
     id="namedview22605"
     showgrid="false"
     inkscape:zoom="3.6875"
     inkscape:cx="68.843945"
     inkscape:cy="75.359033"
     inkscape:window-x="-8"
     inkscape:window-y="-8"
     inkscape:window-maximized="1"
     inkscape:current-layer="svg22584" /><g
     transform="matrix(1,0,0,1,-1536,-160)"
     id="g22586"><g
       id="copy"
       transform="matrix(1,0,0,1,1536,160)"><rect
         x="0"
         y="0"
         width="128"
         height="128"
         style="fill:none;"
         id="rect22589" /><g
         transform="matrix(1,0,0,1,0,0.5)"
         id="g22591"><path
           d="M66.601,39.28C69.247,39.28 71.402,41.434 71.402,44.081L71.402,103.601C71.402,106.247 69.247,108.402 66.601,108.402L23.399,108.402C20.753,108.402 18.6,106.247 18.6,103.601L18.6,44.081C18.6,41.434 20.754,39.28 23.399,39.28L66.601,39.28M66.601,29.68L23.399,29.68C15.448,29.68 9,36.127 9,44.081L9,103.601C9,111.554 15.448,118 23.399,118L66.6,118C74.555,118 81,111.554 81,103.601L81,44.081C81,36.127 74.555,29.68 66.601,29.68Z"
           style="fill:#a9aaac;fill-rule:nonzero;fill-opacity:1"
           id="path22593" /><path
           d="M60.119,98.55L30.358,98.55C27.708,98.55 25.559,96.4 25.559,93.749C25.559,91.098 27.708,88.948 30.358,88.948L60.119,88.948C62.771,88.948 64.919,91.098 64.919,93.749C64.919,96.4 62.771,98.55 60.119,98.55Z"
           style="fill:#a9aaac;fill-rule:nonzero;fill-opacity:1"
           id="path22595" /><path
           d="M60.119,78.409L30.358,78.409C27.708,78.409 25.559,76.262 25.559,73.608C25.559,70.958 27.708,68.81 30.358,68.81L60.119,68.81C62.771,68.81 64.919,70.957 64.919,73.608C64.919,76.262 62.771,78.409 60.119,78.409Z"
           style="fill:#a9aaac;fill-rule:nonzero;fill-opacity:1"
           id="path22597" /><path
           d="M60.119,58.271L30.358,58.271C27.708,58.271 25.559,56.122 25.559,53.471C25.559,50.821 27.708,48.671 30.358,48.671L60.119,48.671C62.771,48.671 64.919,50.82 64.919,53.471C64.919,56.122 62.771,58.271 60.119,58.271Z"
           style="fill:#a9aaac;fill-rule:nonzero;fill-opacity:1"
           id="path22599" /></g><g
         transform="matrix(1,0,0,1,0,0.5)"
         id="g22601"><path
           d="M104.601,9L61.399,9C54.736,9 49.145,13.533 47.503,19.68L66.601,19.68C80.055,19.68 91,30.626 91,44.081L91,97.321L104.601,97.321C112.555,97.321 119,90.875 119,82.922L119,23.402C119,15.448 112.555,9 104.601,9Z"
           style="fill:#7289da;fill-rule:nonzero;fill-opacity:0.94117647"
           id="path22603" /></g></g></g></svg>