<?xml version="1.0" encoding="UTF-8" standalone="no"?>
<svg
   xmlns:dc="http://purl.org/dc/elements/1.1/"
   xmlns:cc="http://creativecommons.org/ns#"
   xmlns:rdf="http://www.w3.org/1999/02/22-rdf-syntax-ns#"
   xmlns:svg="http://www.w3.org/2000/svg"
   xmlns="http://www.w3.org/2000/svg"
   xmlns:sodipodi="http://sodipodi.sourceforge.net/DTD/sodipodi-0.dtd"
   xmlns:inkscape="http://www.inkscape.org/namespaces/inkscape"
   width="100%"
   height="100%"
   viewBox="0 0 128 128"
   version="1.1"
   xml:space="preserve"
   style="fill-rule:evenodd;clip-rule:evenodd;stroke-linejoin:round;stroke-miterlimit:1.41421;"
   id="svg12495"
   inkscape:version="0.91 r13725"
   sodipodi:docname="file_refresh.svg"><metadata
     id="metadata12514"><rdf:RDF><cc:Work
         rdf:about=""><dc:format>image/svg+xml</dc:format><dc:type
           rdf:resource="http://purl.org/dc/dcmitype/StillImage" /></cc:Work></rdf:RDF></metadata><defs
     id="defs12512" /><sodipodi:namedview
     pagecolor="#ffffff"
     bordercolor="#666666"
     borderopacity="1"
     objecttolerance="10"
     gridtolerance="10"
     guidetolerance="10"
     inkscape:pageopacity="0"
     inkscape:pageshadow="2"
     inkscape:window-width="1920"
     inkscape:window-height="1017"
     id="namedview12510"
     showgrid="false"
     inkscape:zoom="1.84375"
     inkscape:cx="-31.186441"
     inkscape:cy="64"
     inkscape:window-x="-8"
     inkscape:window-y="-8"
     inkscape:window-maximized="1"
     inkscape:current-layer="svg12495" /><g
     transform="matrix(1,0,0,1,-1920,-160)"
     id="g12497"><g
       id="file_refresh"
       transform="matrix(1,0,0,1,1920,160)"><rect
         x="0"
         y="0"
         width="128"
         height="128"
         style="fill:none;"
         id="rect12500" /><g
         transform="matrix(1,0,0,1,-0.0005,0.001)"
         id="g12502"><path
           d="M110.406,30.914L64.859,30.914L64.859,24.898C64.859,20.152 61.012,16.304 56.265,16.304L17.594,16.304C12.848,16.305 9,20.152 9,24.898L9,103.1C9,107.846 12.848,111.694 17.594,111.694L110.407,111.694C115.154,111.694 119.001,107.846 119.001,103.1L119.001,45.523L119.001,44.664L119.001,39.508C119,34.762 115.153,30.914 110.406,30.914Z"
           style="fill:#7289da;fill-rule:nonzero;fill-opacity:1"
           id="path12504" /></g><g
         transform="matrix(1,0,0,1,-0.0005,0.001)"
         id="g12506"><path
           d="M64.21,92.993C52.765,92.993 43.448,83.677 43.448,72.227C43.448,60.781 52.764,51.463 64.21,51.463C69.127,51.463 73.639,53.182 77.175,56.043L66.895,64.948L94,68.959L93.945,41.548L84.42,49.787C79.087,44.961 71.998,42.002 64.21,42.002C47.521,42.002 34,55.538 34,72.228C34,88.904 47.521,102.427 64.21,102.427C77.295,102.427 88.445,94.107 92.623,82.482L82.977,81.041C79.668,88.082 72.502,92.993 64.21,92.993Z"
           style="fill:#f2f2f2;fill-rule:nonzero"
           id="path12508" /></g></g></g></svg>