<?xml version="1.0" encoding="UTF-8" standalone="no"?>
<svg
   xmlns:dc="http://purl.org/dc/elements/1.1/"
   xmlns:cc="http://creativecommons.org/ns#"
   xmlns:rdf="http://www.w3.org/1999/02/22-rdf-syntax-ns#"
   xmlns:svg="http://www.w3.org/2000/svg"
   xmlns="http://www.w3.org/2000/svg"
   xmlns:sodipodi="http://sodipodi.sourceforge.net/DTD/sodipodi-0.dtd"
   xmlns:inkscape="http://www.inkscape.org/namespaces/inkscape"
   width="100%"
   height="100%"
   viewBox="0 0 128 128"
   version="1.1"
   xml:space="preserve"
   style="fill-rule:evenodd;clip-rule:evenodd;stroke-linejoin:round;stroke-miterlimit:1.41421;"
   id="svg16382"
   inkscape:version="0.91 r13725"
   sodipodi:docname="find.svg"><metadata
     id="metadata16401"><rdf:RDF><cc:Work
         rdf:about=""><dc:format>image/svg+xml</dc:format><dc:type
           rdf:resource="http://purl.org/dc/dcmitype/StillImage" /></cc:Work></rdf:RDF></metadata><defs
     id="defs16399" /><sodipodi:namedview
     pagecolor="#ffffff"
     bordercolor="#666666"
     borderopacity="1"
     objecttolerance="10"
     gridtolerance="10"
     guidetolerance="10"
     inkscape:pageopacity="0"
     inkscape:pageshadow="2"
     inkscape:window-width="1920"
     inkscape:window-height="1017"
     id="namedview16397"
     showgrid="false"
     inkscape:zoom="1.84375"
     inkscape:cx="64"
     inkscape:cy="64"
     inkscape:window-x="-8"
     inkscape:window-y="-8"
     inkscape:window-maximized="1"
     inkscape:current-layer="svg16382" /><g
     transform="matrix(1,0,0,1,-1920,-480)"
     id="g16384"><g
       id="find"
       transform="matrix(1,0,0,1.37634,1920,294.194)"><rect
         x="0"
         y="135"
         width="128"
         height="93"
         style="fill:none;"
         id="rect16387" /><g
         transform="matrix(1,0,0,0.726562,3.03768e-05,135)"
         id="g16389"><path
           d="M80.346,20.889C95.104,20.889 107.112,32.895 107.112,47.651C107.112,62.4 95.104,74.408 80.346,74.408C65.599,74.408 53.593,62.4 53.593,47.651C53.593,32.895 65.599,20.889 80.346,20.889M80.346,9C59.015,9 41.696,26.306 41.696,47.65C41.696,68.976 59.015,86.304 80.346,86.304C101.693,86.305 119,68.977 119,47.65C119,26.306 101.693,9 80.346,9Z"
           style="fill:#7289da;fill-rule:nonzero;fill-opacity:1"
           id="path16391" /></g><g
         transform="matrix(1,0,0,0.726562,3.03768e-05,135)"
         id="g16393"><path
           d="M39.405,73.889L11.216,102.078C9.757,103.528 9.037,105.274 9.001,107.348C8.968,109.395 9.705,111.201 11.208,112.7L15.277,116.774C16.778,118.27 18.554,119.036 20.609,119C22.637,119.014 24.413,118.256 25.907,116.765L54.088,88.58C48.205,84.792 43.19,79.774 39.405,73.889Z"
           style="fill:#a9aaac;fill-rule:nonzero;fill-opacity:1"
           id="path16395" /></g></g></g></svg>