<?xml version="1.0" encoding="UTF-8" standalone="no"?>
<svg
   xmlns:dc="http://purl.org/dc/elements/1.1/"
   xmlns:cc="http://creativecommons.org/ns#"
   xmlns:rdf="http://www.w3.org/1999/02/22-rdf-syntax-ns#"
   xmlns:svg="http://www.w3.org/2000/svg"
   xmlns="http://www.w3.org/2000/svg"
   xmlns:sodipodi="http://sodipodi.sourceforge.net/DTD/sodipodi-0.dtd"
   xmlns:inkscape="http://www.inkscape.org/namespaces/inkscape"
   width="100%"
   height="100%"
   viewBox="0 0 128 128"
   version="1.1"
   xml:space="preserve"
   style="fill-rule:evenodd;clip-rule:evenodd;stroke-linejoin:round;stroke-miterlimit:1.41421;"
   id="svg15332"
   inkscape:version="0.91 r13725"
   sodipodi:docname="message_info.svg"><metadata
     id="metadata15355"><rdf:RDF><cc:Work
         rdf:about=""><dc:format>image/svg+xml</dc:format><dc:type
           rdf:resource="http://purl.org/dc/dcmitype/StillImage" /></cc:Work></rdf:RDF></metadata><defs
     id="defs15353" /><sodipodi:namedview
     pagecolor="#ffffff"
     bordercolor="#666666"
     borderopacity="1"
     objecttolerance="10"
     gridtolerance="10"
     guidetolerance="10"
     inkscape:pageopacity="0"
     inkscape:pageshadow="2"
     inkscape:window-width="1920"
     inkscape:window-height="1017"
     id="namedview15351"
     showgrid="false"
     inkscape:zoom="1.84375"
     inkscape:cx="64"
     inkscape:cy="20.610169"
     inkscape:window-x="-8"
     inkscape:window-y="-8"
     inkscape:window-maximized="1"
     inkscape:current-layer="svg15332" /><g
     transform="matrix(1,0,0,1,-2688,-800)"
     id="g15334"><g
       id="message_info"
       transform="matrix(1,0,0,1.09402,2688,362.393)"><rect
         x="0"
         y="400"
         width="128"
         height="117"
         style="fill:none;"
         id="rect15337" /><g
         transform="matrix(1,0,0,0.914062,0,400)"
         id="g15339"><path
           d="M64.003,32C37.768,32 16.5,53.268 16.5,79.499C16.5,105.733 37.768,127 64.003,127C90.233,127 111.5,105.733 111.5,79.499C111.5,53.268 90.233,32 64.003,32Z"
           style="fill:#7289da;fill-rule:nonzero;fill-opacity:1"
           id="path15341" /></g><g
         transform="matrix(1,0,0,0.914062,0,400)"
         id="g15343"><path
           d="M73.5,108.784C73.5,109.972 73.088,110.973 72.285,111.771C71.47,112.594 70.482,113 69.31,113L58.686,113C57.507,113 56.516,112.573 55.712,111.749C54.904,110.916 54.5,109.935 54.5,108.784L54.5,81.171C54.5,79.984 54.904,78.988 55.712,78.178C56.516,77.368 57.507,76.961 58.686,76.961L69.31,76.961C70.483,76.961 71.47,77.368 72.286,78.178C73.089,78.989 73.501,79.985 73.501,81.171L73.501,108.784L73.5,108.784Z"
           style="fill:white;fill-rule:nonzero;"
           id="path15345" /></g><g
         transform="matrix(1,0,0,0.914062,0,400)"
         id="g15347"><path
           d="M73.5,60.768C73.5,61.984 73.087,63.004 72.285,63.826C71.469,64.663 70.482,65.082 69.309,65.082L58.686,65.082C57.508,65.082 56.516,64.652 55.712,63.8C54.904,62.942 54.5,61.933 54.5,60.768L54.5,50.3C54.5,49.091 54.904,48.071 55.712,47.245C56.516,46.408 57.508,46 58.686,46L69.31,46C70.483,46 71.469,46.408 72.286,47.245C73.088,48.072 73.501,49.091 73.501,50.3L73.501,60.768L73.5,60.768Z"
           style="fill:white;fill-rule:nonzero;"
           id="path15349" /></g></g></g></svg>