<?xml version="1.0" encoding="UTF-8" standalone="no"?>
<svg
   xmlns:dc="http://purl.org/dc/elements/1.1/"
   xmlns:cc="http://creativecommons.org/ns#"
   xmlns:rdf="http://www.w3.org/1999/02/22-rdf-syntax-ns#"
   xmlns:svg="http://www.w3.org/2000/svg"
   xmlns="http://www.w3.org/2000/svg"
   xmlns:sodipodi="http://sodipodi.sourceforge.net/DTD/sodipodi-0.dtd"
   xmlns:inkscape="http://www.inkscape.org/namespaces/inkscape"
   width="100%"
   height="100%"
   viewBox="0 0 128 128"
   version="1.1"
   xml:space="preserve"
   style="fill-rule:evenodd;clip-rule:evenodd;stroke-linejoin:round;stroke-miterlimit:1.41421;"
   id="svg22035"
   inkscape:version="0.91 r13725"
   sodipodi:docname="permission_channel.svg"><metadata
     id="metadata22054"><rdf:RDF><cc:Work
         rdf:about=""><dc:format>image/svg+xml</dc:format><dc:type
           rdf:resource="http://purl.org/dc/dcmitype/StillImage" /></cc:Work></rdf:RDF></metadata><defs
     id="defs22052" /><sodipodi:namedview
     pagecolor="#ffffff"
     bordercolor="#666666"
     borderopacity="1"
     objecttolerance="10"
     gridtolerance="10"
     guidetolerance="10"
     inkscape:pageopacity="0"
     inkscape:pageshadow="2"
     inkscape:window-width="1920"
     inkscape:window-height="1017"
     id="namedview22050"
     showgrid="false"
     inkscape:zoom="1.84375"
     inkscape:cx="64"
     inkscape:cy="64"
     inkscape:window-x="-8"
     inkscape:window-y="-8"
     inkscape:window-maximized="1"
     inkscape:current-layer="svg22035" /><g
     transform="matrix(1,0,0,1,-3072,-320)"
     id="g22037"><g
       id="permission_channel"
       transform="matrix(1,0,0,1,3072,320)"><rect
         x="0"
         y="0"
         width="128"
         height="128"
         style="fill:none;"
         id="rect22040" /><g
         transform="matrix(1,0,0,1,0,0.079)"
         id="g22042"><path
           d="M95.651,12.426L32.347,12.426C19.454,12.426 9,22.88 9,35.774L9,66.073C9,78.97 19.454,89.421 32.347,89.421L66.886,89.421C68.92,94.782 71.005,105.707 59.984,115.416C80.129,111.675 89.591,95.903 92.687,89.421L95.652,89.421C108.545,89.421 119,78.97 119,66.073L119,35.774C119,22.88 108.545,12.426 95.651,12.426Z"
           style="fill:#7289da;fill-rule:nonzero;fill-opacity:1"
           id="path22044" /></g><g
         transform="matrix(1,0,0,1,0,0.079)"
         id="g22046"><path
           d="M75.274,32.817C72.678,31.715 68.957,30.932 65.496,30.932C62.706,30.932 59.514,32.17 59.514,34.77C59.514,37.562 62.641,38.666 68.687,40.811C76.477,43.536 79,46.592 79,51.723C79,55.17 77.134,58.35 74.142,60.102C76.871,61.987 78.067,64.65 78.067,67.575C78.067,75.111 71.416,79.528 62.641,79.528C58.314,79.528 53.659,78.748 49.798,77.515C49.998,74.721 50.2,71.994 50.464,69.262C53.523,70.628 58.379,71.728 61.637,71.728C65.298,71.728 68.222,70.821 68.222,68.028C68.222,65.239 64.966,64.327 58.846,61.987C51.662,59.325 49,56.27 49,51.202C49,47.888 50.666,44.841 53.923,42.821C51.13,40.81 49.798,38.342 49.798,35.158C49.798,27.621 56.85,23.528 65.166,23.528C68.89,23.528 72.944,24.113 76.273,24.892L75.274,32.817ZM59.448,45.878C58.113,46.916 57.382,48.477 57.382,49.837C57.382,53.41 62.506,54.842 68.487,57.048C69.825,56.14 70.554,54.776 70.554,53.284C70.554,50.812 69.283,49.649 63.703,47.499C62.304,46.982 60.841,46.458 59.448,45.878Z"
           style="fill:white;fill-rule:nonzero;"
           id="path22048" /></g></g></g></svg>