<?xml version="1.0" encoding="UTF-8" standalone="no"?>
<svg
   xmlns:dc="http://purl.org/dc/elements/1.1/"
   xmlns:cc="http://creativecommons.org/ns#"
   xmlns:rdf="http://www.w3.org/1999/02/22-rdf-syntax-ns#"
   xmlns:svg="http://www.w3.org/2000/svg"
   xmlns="http://www.w3.org/2000/svg"
   xmlns:sodipodi="http://sodipodi.sourceforge.net/DTD/sodipodi-0.dtd"
   xmlns:inkscape="http://www.inkscape.org/namespaces/inkscape"
   width="100%"
   height="100%"
   viewBox="0 0 128 128"
   version="1.1"
   xml:space="preserve"
   style="fill-rule:evenodd;clip-rule:evenodd;stroke-linejoin:round;stroke-miterlimit:1.41421;"
   id="svg23157"
   inkscape:version="0.91 r13725"
   sodipodi:docname="permission_overview.svg"><metadata
     id="metadata23176"><rdf:RDF><cc:Work
         rdf:about=""><dc:format>image/svg+xml</dc:format><dc:type
           rdf:resource="http://purl.org/dc/dcmitype/StillImage" /></cc:Work></rdf:RDF></metadata><defs
     id="defs23174" /><sodipodi:namedview
     pagecolor="#ffffff"
     bordercolor="#666666"
     borderopacity="1"
     objecttolerance="10"
     gridtolerance="10"
     guidetolerance="10"
     inkscape:pageopacity="0"
     inkscape:pageshadow="2"
     inkscape:window-width="1920"
     inkscape:window-height="1017"
     id="namedview23172"
     showgrid="false"
     inkscape:zoom="1.84375"
     inkscape:cx="64"
     inkscape:cy="64"
     inkscape:window-x="-8"
     inkscape:window-y="-8"
     inkscape:window-maximized="1"
     inkscape:current-layer="svg23157" /><g
     transform="matrix(1,0,0,1,-3072,-640)"
     id="g23159"><g
       id="permission_overview"
       transform="matrix(1,0,0,1.37634,3072,454.194)"><rect
         x="0"
         y="135"
         width="128"
         height="93"
         style="fill:none;"
         id="rect23162" /><g
         transform="matrix(1,0,0,0.726562,0,135)"
         id="g23164"><path
           d="M119,104C119,112.284 112.284,119 104,119L24,119C15.716,119 9,112.284 9,104L9,24C9,15.716 15.716,9 24,9L104,9C112.284,9 119,15.716 119,24L119,104Z"
           style="fill:#7289da;fill-rule:nonzero;fill-opacity:1"
           id="path23166" /></g><g
         transform="matrix(1,0,0,0.726562,0,135)"
         id="g23168"><path
           d="M80.538,36.938C76.737,35.28 71.269,34.105 66.198,34.105C62.099,34.105 57.416,35.961 57.416,39.857C57.416,44.05 62.002,45.705 70.88,48.921C82.291,53.013 86,57.598 86,65.291C86,70.46 83.27,75.234 78.881,77.863C82.882,80.686 84.638,84.681 84.638,89.066C84.638,100.379 74.88,107 62.003,107C55.658,107 48.832,105.838 43.17,103.987C43.467,99.79 43.759,95.702 44.149,91.603C48.637,93.649 55.76,95.31 60.536,95.31C65.906,95.31 70.202,93.953 70.202,89.747C70.202,85.564 65.414,84.201 56.444,80.686C45.903,76.694 42,72.114 42,64.516C42,59.543 44.439,54.966 49.222,51.94C45.124,48.922 43.17,45.219 43.17,40.444C43.17,29.143 53.515,23 65.705,23C71.174,23 77.129,23.875 81.999,25.049L80.538,36.938ZM57.32,56.526C55.371,58.083 54.294,60.42 54.294,62.468C54.294,67.827 61.808,69.968 70.589,73.283C72.527,71.927 73.608,69.87 73.608,67.637C73.608,63.929 71.754,62.178 63.562,58.957C61.516,58.181 59.369,57.401 57.32,56.526Z"
           style="fill:white;fill-rule:nonzero;"
           id="path23170" /></g></g></g></svg>