<?xml version="1.0" encoding="UTF-8" standalone="no"?>
<svg
   xmlns:dc="http://purl.org/dc/elements/1.1/"
   xmlns:cc="http://creativecommons.org/ns#"
   xmlns:rdf="http://www.w3.org/1999/02/22-rdf-syntax-ns#"
   xmlns:svg="http://www.w3.org/2000/svg"
   xmlns="http://www.w3.org/2000/svg"
   xmlns:sodipodi="http://sodipodi.sourceforge.net/DTD/sodipodi-0.dtd"
   xmlns:inkscape="http://www.inkscape.org/namespaces/inkscape"
   width="100%"
   height="100%"
   viewBox="0 0 128 128"
   version="1.1"
   xml:space="preserve"
   style="fill-rule:evenodd;clip-rule:evenodd;stroke-linejoin:round;stroke-miterlimit:1.41421;"
   id="svg5803"
   inkscape:version="0.91 r13725"
   sodipodi:docname="player_chat.svg"><metadata
     id="metadata5822"><rdf:RDF><cc:Work
         rdf:about=""><dc:format>image/svg+xml</dc:format><dc:type
           rdf:resource="http://purl.org/dc/dcmitype/StillImage" /></cc:Work></rdf:RDF></metadata><defs
     id="defs5820" /><sodipodi:namedview
     pagecolor="#ffffff"
     bordercolor="#666666"
     borderopacity="1"
     objecttolerance="10"
     gridtolerance="10"
     guidetolerance="10"
     inkscape:pageopacity="0"
     inkscape:pageshadow="2"
     inkscape:window-width="1920"
     inkscape:window-height="1017"
     id="namedview5818"
     showgrid="false"
     inkscape:zoom="1.84375"
     inkscape:cx="64"
     inkscape:cy="64"
     inkscape:window-x="-8"
     inkscape:window-y="-8"
     inkscape:window-maximized="1"
     inkscape:current-layer="svg5803" /><g
     transform="matrix(1,0,0,1,-3456,0)"
     id="g5805"><g
       id="player_chat"
       transform="matrix(1,0,0,1,3456,0)"><rect
         x="0"
         y="0"
         width="128"
         height="128"
         style="fill:none;"
         id="rect5808" /><g
         transform="matrix(1,0,0,1,-0.0005,0)"
         id="g5810"><path
           d="M9,46.358L9,76.657C9,89.553 19.455,100.005 32.349,100.005L35.315,100.005C38.411,106.488 47.873,122.259 68.017,126C56.996,116.29 59.079,105.366 61.115,100.005L95.654,100.005C108.547,100.005 119.001,89.554 119.001,76.657L119.001,46.358C119.001,33.464 108.547,23.01 95.654,23.01L32.349,23.01C19.455,23.01 9,33.464 9,46.358Z"
           style="fill:#7289da;fill-rule:nonzero;fill-opacity:1"
           id="path5812" /></g><g
         transform="matrix(1,0,0,1,-0.0005,0)"
         id="g5814"><path
           d="M78.24,89.084L73.952,76.397L53.486,76.397L49.198,89.084L39,89.084L58.266,34.084L69.449,34.084L89,89.084L78.24,89.084ZM66.29,52.244C65.957,51.116 65.642,49.957 65.338,48.775C65.032,47.595 64.737,46.478 64.461,45.428C64.176,44.376 63.969,43.486 63.823,42.748L63.685,42.748C63.498,43.486 63.263,44.375 62.987,45.428C62.701,46.478 62.387,47.595 62.033,48.775C61.679,49.958 61.344,51.116 61.011,52.244C60.686,53.375 60.381,54.36 60.096,55.194L56.023,68.048L71.278,68.048L67.205,55.194C66.921,54.36 66.615,53.375 66.29,52.244Z"
           style="fill:white;fill-rule:nonzero;"
           id="path5816" /></g></g></g></svg>