<?xml version="1.0" encoding="UTF-8" standalone="no"?>
<svg
   xmlns:dc="http://purl.org/dc/elements/1.1/"
   xmlns:cc="http://creativecommons.org/ns#"
   xmlns:rdf="http://www.w3.org/1999/02/22-rdf-syntax-ns#"
   xmlns:svg="http://www.w3.org/2000/svg"
   xmlns="http://www.w3.org/2000/svg"
   xmlns:sodipodi="http://sodipodi.sourceforge.net/DTD/sodipodi-0.dtd"
   xmlns:inkscape="http://www.inkscape.org/namespaces/inkscape"
   width="100%"
   height="100%"
   viewBox="0 0 128 128"
   version="1.1"
   xml:space="preserve"
   style="fill-rule:evenodd;clip-rule:evenodd;stroke-linejoin:round;stroke-miterlimit:1.41421;"
   id="svg14288"
   inkscape:version="0.91 r13725"
   sodipodi:docname="send.svg"><metadata
     id="metadata14319"><rdf:RDF><cc:Work
         rdf:about=""><dc:format>image/svg+xml</dc:format><dc:type
           rdf:resource="http://purl.org/dc/dcmitype/StillImage" /></cc:Work></rdf:RDF></metadata><defs
     id="defs14317" /><sodipodi:namedview
     pagecolor="#ffffff"
     bordercolor="#666666"
     borderopacity="1"
     objecttolerance="10"
     gridtolerance="10"
     guidetolerance="10"
     inkscape:pageopacity="0"
     inkscape:pageshadow="2"
     inkscape:window-width="1920"
     inkscape:window-height="1017"
     id="namedview14315"
     showgrid="false"
     inkscape:zoom="1.84375"
     inkscape:cx="64"
     inkscape:cy="64"
     inkscape:window-x="-8"
     inkscape:window-y="-8"
     inkscape:window-maximized="1"
     inkscape:current-layer="svg14288" /><g
     transform="matrix(1,0,0,1,-3840,-800)"
     id="g14290"><g
       id="send"
       transform="matrix(1,0,0,1.09402,3840,362.393)"><rect
         x="0"
         y="400"
         width="128"
         height="117"
         style="fill:none;"
         id="rect14293" /><g
         transform="matrix(1,0,0,0.914062,0,400)"
         id="g14295"><path
           d="M116.234,30.96L58.775,30.96C52.835,30.96 48,35.785 48,41.726L48,86.258C48,92.197 52.835,97.039 58.775,97.039L116.234,97.039C122.174,97.039 127,92.197 127,86.258L127,41.726C127,35.785 122.175,30.96 116.234,30.96Z"
           style="fill:white;fill-rule:nonzero;"
           id="path14297" /></g><g
         transform="matrix(1,0,0,0.914062,0,400)"
         id="g14299"><rect
           x="1"
           y="38.184"
           width="37"
           height="10"
           style="fill:#7289da;fill-opacity:1"
           id="rect14301" /></g><g
         transform="matrix(1,0,0,0.914062,0,400)"
         id="g14303"><rect
           x="9"
           y="59.008"
           width="29"
           height="10"
           style="fill:#7289da;fill-opacity:1"
           id="rect14305" /></g><g
         transform="matrix(1,0,0,0.914062,0,400)"
         id="g14307"><rect
           x="17"
           y="79.747"
           width="21"
           height="10"
           style="fill:#7289da;fill-opacity:1"
           id="rect14309" /></g><g
         transform="matrix(1,0,0,0.914062,0,400)"
         id="g14311"><path
           d="M116.228,30.961L58.773,30.961C52.833,30.961 48,35.793 48,41.733L48,86.266C48,92.206 52.833,97.038 58.773,97.038L116.228,97.038C122.168,97.038 127,92.206 127,86.266L127,41.733C127,35.793 122.168,30.961 116.228,30.961ZM112.166,38.143L87.5,59.414L62.834,38.143L112.166,38.143ZM119.818,86.267C119.818,88.25 118.211,89.858 116.227,89.858L58.773,89.858C56.79,89.858 55.182,88.251 55.182,86.267L55.182,41.733C55.182,41.577 55.209,41.427 55.228,41.276L87.5,68.58L119.771,41.277C119.792,41.429 119.818,41.577 119.818,41.734C119.818,41.741 119.818,86.267 119.818,86.267Z"
           style="fill:#a9aaac;fill-rule:nonzero;fill-opacity:1"
           id="path14313" /></g></g></g></svg>