<?xml version="1.0" encoding="UTF-8" standalone="no"?>
<svg
   xmlns:dc="http://purl.org/dc/elements/1.1/"
   xmlns:cc="http://creativecommons.org/ns#"
   xmlns:rdf="http://www.w3.org/1999/02/22-rdf-syntax-ns#"
   xmlns:svg="http://www.w3.org/2000/svg"
   xmlns="http://www.w3.org/2000/svg"
   xmlns:sodipodi="http://sodipodi.sourceforge.net/DTD/sodipodi-0.dtd"
   xmlns:inkscape="http://www.inkscape.org/namespaces/inkscape"
   width="100%"
   height="100%"
   viewBox="0 0 128 128"
   version="1.1"
   xml:space="preserve"
   style="fill-rule:evenodd;clip-rule:evenodd;stroke-linejoin:round;stroke-miterlimit:1.41421;"
   id="svg16005"
   inkscape:version="0.91 r13725"
   sodipodi:docname="server_log.svg"><metadata
     id="metadata16032"><rdf:RDF><cc:Work
         rdf:about=""><dc:format>image/svg+xml</dc:format><dc:type
           rdf:resource="http://purl.org/dc/dcmitype/StillImage" /></cc:Work></rdf:RDF></metadata><defs
     id="defs16030" /><sodipodi:namedview
     pagecolor="#ffffff"
     bordercolor="#666666"
     borderopacity="1"
     objecttolerance="10"
     gridtolerance="10"
     guidetolerance="10"
     inkscape:pageopacity="0"
     inkscape:pageshadow="2"
     inkscape:window-width="1920"
     inkscape:window-height="1017"
     id="namedview16028"
     showgrid="false"
     inkscape:zoom="3.6875"
     inkscape:cx="75.696021"
     inkscape:cy="77.04397"
     inkscape:window-x="-8"
     inkscape:window-y="-8"
     inkscape:window-maximized="1"
     inkscape:current-layer="svg16005" /><rect
     id="server_log"
     x="0"
     y="0"
     width="128"
     height="128"
     style="fill:none;" /><path
     d="M88.33,41.504l-58.17,0c-2.761,0 -5,-2.239 -5,-5c0,-2.761 2.239,-5 5,-5l58.17,0c2.762,0 5,2.239 5,5c0,2.761 -2.238,5 -5,5Z"
     style="fill:#a9aaac;fill-rule:nonzero;fill-opacity:1"
     id="path16008" /><path
     d="M22.999,112.004c-2.762,0 -5,-2.238 -5,-5l0,-86.008c0,-2.761 2.238,-5 5,-5l72.475,0c2.762,0 5,2.239 5,5l0,20.686l10,0l0,-20.686c0,-8.271 -6.729,-15 -15,-15l-72.475,0c-8.271,0 -15,6.729 -15,15l0,86.008c0,8.271 6.729,15 15,15l17,0l0,-10l-17,0Z"
     style="fill:#a9aaac;fill-rule:nonzero;fill-opacity:1"
     id="path16010" /><path
     d="M39.999,59.004l-9.839,0c-2.761,0 -5,2.239 -5,5c0,2.762 2.239,5 5,5l9.861,0c-0.005,-0.165 -0.022,-0.327 -0.022,-0.493l0,-9.507Z"
     style="fill:#a9aaac;fill-rule:nonzero;fill-opacity:1"
     id="path16012" /><path
     d="M40.187,86.504l-10.027,0c-2.761,0 -5,2.238 -5,5c0,2.762 2.239,5 5,5l9.839,0l0,-7.643c0,-0.801 0.073,-1.586 0.188,-2.357Z"
     style="fill:#a9aaac;fill-rule:nonzero;fill-opacity:1"
     id="path16014" /><rect
     x="79.999"
     y="86.891"
     width="10"
     height="34.516"
     style="fill:#e6e6e6"
     id="rect16016" /><path
     d="M119.999,66.983c0,3.005 -2.449,5.44 -5.469,5.44l-59.062,0c-3.02,0 -5.469,-2.436 -5.469,-5.44l0,-9.792c0,-3.006 2.449,-5.44 5.469,-5.44l59.063,0c3.02,0 5.469,2.435 5.469,5.44l0,9.792l-0.001,0Z"
     style="fill:#7289da;fill-rule:nonzero;fill-opacity:1"
     id="path16018" /><path
     d="M119.999,96.183c0,3.005 -2.449,5.439 -5.469,5.439l-59.062,0c-3.02,0 -5.469,-2.435 -5.469,-5.439l0,-9.793c0,-3.004 2.449,-5.439 5.469,-5.439l59.063,0c3.02,0 5.469,2.436 5.469,5.439l0,9.793l-0.001,0Z"
     style="fill:#7289da;fill-rule:nonzero;fill-opacity:1"
     id="path16020" /><rect
     x="49.999"
     y="112.004"
     width="70"
     height="10"
     style="fill:#e6e6e6"
     id="rect16022" /><path
     d="M113.437,94.884c0,0.721 -0.581,1.299 -1.305,1.299l-18.172,0c-0.724,0 -1.305,-0.578 -1.305,-1.299l0,-7.196c0,-0.72 0.581,-1.298 1.305,-1.298l18.172,0c0.724,0 1.305,0.578 1.305,1.298l0,7.196Z"
     style="fill:#fff;fill-rule:nonzero;"
     id="path16024" /><path
     d="M113.437,65.685c0,0.717 -0.583,1.298 -1.305,1.298l-18.172,0c-0.722,0 -1.305,-0.581 -1.305,-1.298l0,-7.197c0,-0.716 0.583,-1.297 1.305,-1.297l18.172,0c0.722,0 1.305,0.581 1.305,1.297l0,7.197Z"
     style="fill:#fff;fill-rule:nonzero;"
     id="path16026" /></svg>