<?xml version="1.0" encoding="UTF-8" standalone="no"?>
<svg
   xmlns:dc="http://purl.org/dc/elements/1.1/"
   xmlns:cc="http://creativecommons.org/ns#"
   xmlns:rdf="http://www.w3.org/1999/02/22-rdf-syntax-ns#"
   xmlns:svg="http://www.w3.org/2000/svg"
   xmlns="http://www.w3.org/2000/svg"
   xmlns:sodipodi="http://sodipodi.sourceforge.net/DTD/sodipodi-0.dtd"
   xmlns:inkscape="http://www.inkscape.org/namespaces/inkscape"
   width="100%"
   height="100%"
   viewBox="0 0 128 128"
   version="1.1"
   xml:space="preserve"
   style="fill-rule:evenodd;clip-rule:evenodd;stroke-linejoin:round;stroke-miterlimit:1.41421;"
   id="svg18243"
   inkscape:version="0.91 r13725"
   sodipodi:docname="soundpack.svg"><metadata
     id="metadata18254"><rdf:RDF><cc:Work
         rdf:about=""><dc:format>image/svg+xml</dc:format><dc:type
           rdf:resource="http://purl.org/dc/dcmitype/StillImage" /></cc:Work></rdf:RDF></metadata><defs
     id="defs18252" /><sodipodi:namedview
     pagecolor="#ffffff"
     bordercolor="#666666"
     borderopacity="1"
     objecttolerance="10"
     gridtolerance="10"
     guidetolerance="10"
     inkscape:pageopacity="0"
     inkscape:pageshadow="2"
     inkscape:window-width="1920"
     inkscape:window-height="1017"
     id="namedview18250"
     showgrid="false"
     inkscape:zoom="1.84375"
     inkscape:cx="64"
     inkscape:cy="64"
     inkscape:window-x="-8"
     inkscape:window-y="-8"
     inkscape:window-maximized="1"
     inkscape:current-layer="svg18243" /><rect
     id="soundpack"
     x="0"
     y="0"
     width="128"
     height="128"
     style="fill:none;" /><path
     d="M104,9l-80,0c-8.284,0 -15,6.716 -15,15l0,80c0,8.284 6.716,15 15,15l80,0c8.284,0 15,-6.716 15,-15l0,-80c0,-8.284 -6.716,-15 -15,-15Z"
     style="fill:#7289da;fill-rule:nonzero;fill-opacity:1"
     id="path18246" /><path
     d="M90.31,43.797c-16.907,1.849 -19.273,-9.344 -26.63,-6.485l0,56.1l-0.004,0c-0.093,6.414 -8.151,11.587 -18.084,11.587c-9.99,0 -18.09,-5.234 -18.09,-11.701c0,-6.455 8.1,-11.696 18.09,-11.696c3.833,0 7.385,0.768 10.311,2.09c0,0 0,-37.914 0,-40.457c0,-13.39 -0.201,-18.899 8.095,-20.105c12.388,-1.802 18.617,15.945 37.855,3.464c-0.001,-0.001 4.766,15.417 -11.543,17.203Z"
     style="fill:#f2f2f2;fill-rule:nonzero"
     id="path18248" /></svg>