<?xml version="1.0" encoding="UTF-8" standalone="no"?>
<svg
   xmlns:dc="http://purl.org/dc/elements/1.1/"
   xmlns:cc="http://creativecommons.org/ns#"
   xmlns:rdf="http://www.w3.org/1999/02/22-rdf-syntax-ns#"
   xmlns:svg="http://www.w3.org/2000/svg"
   xmlns="http://www.w3.org/2000/svg"
   xmlns:sodipodi="http://sodipodi.sourceforge.net/DTD/sodipodi-0.dtd"
   xmlns:inkscape="http://www.inkscape.org/namespaces/inkscape"
   width="100%"
   height="100%"
   viewBox="0 0 128 128"
   version="1.1"
   xml:space="preserve"
   style="fill-rule:evenodd;clip-rule:evenodd;stroke-linejoin:round;stroke-miterlimit:1.41421;"
   id="svg19941"
   inkscape:version="0.91 r13725"
   sodipodi:docname="subscribe_to_all_channels.svg"><metadata
     id="metadata19964"><rdf:RDF><cc:Work
         rdf:about=""><dc:format>image/svg+xml</dc:format><dc:type
           rdf:resource="http://purl.org/dc/dcmitype/StillImage" /></cc:Work></rdf:RDF></metadata><defs
     id="defs19962" /><sodipodi:namedview
     pagecolor="#ffffff"
     bordercolor="#666666"
     borderopacity="1"
     objecttolerance="10"
     gridtolerance="10"
     guidetolerance="10"
     inkscape:pageopacity="0"
     inkscape:pageshadow="2"
     inkscape:window-width="1920"
     inkscape:window-height="1017"
     id="namedview19960"
     showgrid="false"
     inkscape:zoom="3.6875"
     inkscape:cx="85.468652"
     inkscape:cy="55.364453"
     inkscape:window-x="-8"
     inkscape:window-y="-8"
     inkscape:window-maximized="1"
     inkscape:current-layer="svg19941" /><g
     transform="matrix(1,0,0,1,-4224,-160)"
     id="g19943"><g
       id="subscribe_to_all_channels"
       transform="matrix(1,0,0,1,4224,160)"><rect
         x="0"
         y="0"
         width="128"
         height="128"
         style="fill:none;"
         id="rect19946" /><g
         transform="matrix(1,0,0,1,8.085,8.0675)"
         id="g19948"><path
           d="M89.62,45.71C89.304,35.967 81.297,28.08 71.55,27.91C54.077,27.697 36.6,27.697 19.12,27.91C8.67,28.05 1,36.12 0.94,46.53C0.87,54.35 0.89,62.18 0.88,70C0.88,82.29 8.28,89.85 20.67,90C28.33,90.1 35.99,90.19 43.67,89.94C46.94,89.83 48.08,91.22 48.5,94.1C49.44,100.6 46.62,105.68 41.67,111.1C53.28,108.76 61.01,102.79 66.48,93.8C68,91.3 69.48,90.04 72.6,89.8C81.926,89.175 89.359,81.52 89.71,72.18C90,63.36 89.94,54.53 89.62,45.71ZM68.19,50.36C58.857,59.587 49.523,68.823 40.19,78.07C37.82,80.41 35.79,81.38 33.04,78.14C29.605,74.251 25.917,70.593 22,67.19C19.37,64.81 19.51,62.8 21.89,60.52C24.27,58.24 26.53,54.69 30.58,57.96C32.63,59.61 34.58,62.96 36.44,62.96C39.44,62.8 41.19,59.16 43.44,56.96C48.55,51.96 53.54,46.81 58.6,41.75C60.12,40.23 61.76,38.17 64.12,39.62C66.615,41.156 68.679,43.299 70.12,45.85C70.233,47.574 69.515,49.251 68.19,50.36Z"
           style="fill:#7289da;fill-rule:nonzero;fill-opacity:1"
           id="path19950" /></g><g
         transform="matrix(1,0,0,1,8.085,8.0675)"
         id="g19952"><path
           d="M70.21,45.81C70.319,47.559 69.573,49.257 68.21,50.36C58.877,59.587 49.543,68.823 40.21,78.07C37.84,80.41 35.81,81.38 33.06,78.14C29.619,74.25 25.924,70.592 22,67.19C19.37,64.81 19.51,62.8 21.89,60.52C24.27,58.24 26.53,54.69 30.58,57.96C32.63,59.61 34.58,62.96 36.44,62.96C39.44,62.8 41.19,59.16 43.44,56.96C48.55,51.96 53.54,46.81 58.6,41.75C60.12,40.23 61.76,38.17 64.12,39.62C66.643,41.133 68.739,43.263 70.21,45.81L70.21,45.81Z"
           style="fill:white;fill-rule:nonzero;"
           id="path19954" /></g><g
         transform="matrix(1,0,0,1,8.085,8.0675)"
         id="g19956"><path
           d="M98.73,59.58C98.73,55.35 98.73,51.22 98.73,47.1C98.66,30.75 86.64,18.66 70.38,18.63C56.55,18.63 42.71,18.51 28.88,18.7C25.07,18.75 24.25,17.58 25.27,14.1C27.409,6.314 34.516,0.861 42.59,0.81C59.423,0.75 76.257,0.75 93.09,0.81C93.143,0.81 93.197,0.809 93.25,0.809C102.922,0.809 110.88,8.768 110.88,18.439C110.88,18.473 110.88,18.506 110.88,18.54C110.973,26.873 110.973,35.207 110.88,43.54C110.898,50.988 105.904,57.58 98.73,59.58L98.73,59.58Z"
           style="fill:#a9aaac;fill-rule:nonzero;fill-opacity:1"
           id="path19958" /></g></g></g></svg>