<?xml version="1.0" encoding="UTF-8" standalone="no"?>
<svg
   xmlns:dc="http://purl.org/dc/elements/1.1/"
   xmlns:cc="http://creativecommons.org/ns#"
   xmlns:rdf="http://www.w3.org/1999/02/22-rdf-syntax-ns#"
   xmlns:svg="http://www.w3.org/2000/svg"
   xmlns="http://www.w3.org/2000/svg"
   xmlns:sodipodi="http://sodipodi.sourceforge.net/DTD/sodipodi-0.dtd"
   xmlns:inkscape="http://www.inkscape.org/namespaces/inkscape"
   width="100%"
   height="100%"
   viewBox="0 0 128 128"
   version="1.1"
   xml:space="preserve"
   style="fill-rule:evenodd;clip-rule:evenodd;stroke-linejoin:round;stroke-miterlimit:1.41421;"
   id="svg21067"
   inkscape:version="0.91 r13725"
   sodipodi:docname="subscribe_to_channel_family.svg"><metadata
     id="metadata21090"><rdf:RDF><cc:Work
         rdf:about=""><dc:format>image/svg+xml</dc:format><dc:type
           rdf:resource="http://purl.org/dc/dcmitype/StillImage" /></cc:Work></rdf:RDF></metadata><defs
     id="defs21088" /><sodipodi:namedview
     pagecolor="#ffffff"
     bordercolor="#666666"
     borderopacity="1"
     objecttolerance="10"
     gridtolerance="10"
     guidetolerance="10"
     inkscape:pageopacity="0"
     inkscape:pageshadow="2"
     inkscape:window-width="1920"
     inkscape:window-height="1017"
     id="namedview21086"
     showgrid="false"
     inkscape:zoom="3.6875"
     inkscape:cx="73.000122"
     inkscape:cy="54.802808"
     inkscape:window-x="-8"
     inkscape:window-y="-8"
     inkscape:window-maximized="1"
     inkscape:current-layer="svg21067" /><g
     transform="matrix(1,0,0,1,-4224,-320)"
     id="g21069"><g
       id="subscribe_to_channel_family"
       transform="matrix(1,0,0,1,4224,320)"><rect
         x="0"
         y="0"
         width="128"
         height="128"
         style="fill:none;"
         id="rect21072" /><g
         transform="matrix(1,0,0,1,0,0.0005)"
         id="g21074"><path
           d="M100.715,9L51.155,9C41.321,9 33.328,16.775 32.92,26.507L78.851,26.507C94.358,26.507 106.97,39.118 106.97,54.621L106.97,68.156C113.982,65.598 119,58.888 119,50.994L119,27.28C119,17.187 110.811,9 100.715,9Z"
           style="fill:#a9aaac;fill-rule:nonzero;fill-opacity:1"
           id="path21076" /></g><g
         transform="matrix(1,0,0,1,0,0.0005)"
         id="g21078"><path
           d="M78.852,35.971L27.819,35.971C17.425,35.971 9,44.4 9,54.794L9,79.213C9,89.614 17.425,98.042 27.819,98.042L55.664,98.042C57.304,102.361 58.992,111.163 50.104,118.999C66.345,115.982 73.977,103.277 76.471,98.042L78.852,98.042C89.248,98.042 97.681,89.614 97.681,79.213L97.681,54.794C97.681,44.4 89.248,35.971 78.852,35.971Z"
           style="fill:#7289da;fill-rule:nonzero;fill-opacity:1"
           id="path21080" /></g><g
         transform="matrix(1,0,0,1,0,0.0005)"
         id="g21082"><path
           d="M77.458,57.062L47.236,87.243C46.648,87.817 45.791,88.084 44.652,88.067C43.609,88.031 42.812,87.767 42.259,87.243L29.218,74.199C28.63,73.603 28.341,72.893 28.341,72.044C28.341,71.208 28.631,70.487 29.218,69.899L33.569,65.555C34.148,64.972 34.868,64.671 35.71,64.671C36.561,64.671 37.274,64.972 37.859,65.555L44.747,72.44L68.813,48.419C69.412,47.831 70.125,47.535 70.975,47.535C71.829,47.535 72.533,47.831 73.115,48.419L77.458,52.71C78.054,53.328 78.341,54.052 78.341,54.881C78.341,55.712 78.054,56.442 77.458,57.062Z"
           style="fill:white;fill-rule:nonzero;"
           id="path21084" /></g></g></g></svg>