<?xml version="1.0" encoding="UTF-8" standalone="no"?>
<svg
   xmlns:dc="http://purl.org/dc/elements/1.1/"
   xmlns:cc="http://creativecommons.org/ns#"
   xmlns:rdf="http://www.w3.org/1999/02/22-rdf-syntax-ns#"
   xmlns:svg="http://www.w3.org/2000/svg"
   xmlns="http://www.w3.org/2000/svg"
   xmlns:sodipodi="http://sodipodi.sourceforge.net/DTD/sodipodi-0.dtd"
   xmlns:inkscape="http://www.inkscape.org/namespaces/inkscape"
   width="100%"
   height="100%"
   viewBox="0 0 128 128"
   version="1.1"
   xml:space="preserve"
   style="fill-rule:evenodd;clip-rule:evenodd;stroke-linejoin:round;stroke-miterlimit:1.41421;"
   id="svg22193"
   inkscape:version="0.91 r13725"
   sodipodi:docname="switch_standard.svg"><metadata
     id="metadata22212"><rdf:RDF><cc:Work
         rdf:about=""><dc:format>image/svg+xml</dc:format><dc:type
           rdf:resource="http://purl.org/dc/dcmitype/StillImage" /></cc:Work></rdf:RDF></metadata><defs
     id="defs22210" /><sodipodi:namedview
     pagecolor="#ffffff"
     bordercolor="#666666"
     borderopacity="1"
     objecttolerance="10"
     gridtolerance="10"
     guidetolerance="10"
     inkscape:pageopacity="0"
     inkscape:pageshadow="2"
     inkscape:window-width="1920"
     inkscape:window-height="1017"
     id="namedview22208"
     showgrid="false"
     inkscape:zoom="1.84375"
     inkscape:cx="64"
     inkscape:cy="64"
     inkscape:window-x="-8"
     inkscape:window-y="-8"
     inkscape:window-maximized="1"
     inkscape:current-layer="svg22193" /><g
     transform="matrix(1,0,0,1,-4224,-800)"
     id="g22195"><g
       id="switch_standard"
       transform="matrix(1,0,0,1.09402,4224,362.393)"><rect
         x="0"
         y="400"
         width="128"
         height="117"
         style="fill:none;"
         id="rect22198" /><g
         transform="matrix(1,0,0,0.914062,0.000278033,400)"
         id="g22200"><path
           d="M87.705,53.908C96.762,58.588 107.064,57.73 114.524,50.207C119.717,44.967 118.961,25.012 118.961,25.012L114.116,23.404L109.128,37.706C109.128,37.706 104.254,46.972 92.549,35.175C80.848,23.375 90.815,19.24 90.815,19.24L104.908,14.116L103.381,9.303C103.381,9.303 83.172,7.431 77.634,13.018C70.175,20.533 69.467,31.071 74.116,40.202L54.861,59.457L68.51,73.103L87.705,53.908Z"
           style="fill:#a9aaac;fill-rule:nonzero;fill-opacity:1"
           id="path22202" /></g><g
         transform="matrix(1,0,0,0.914062,0.000278033,400)"
         id="g22204"><path
           d="M13.905,70.755L9,118.999L57.228,114.101L42.375,99.238L61.439,80.174L47.791,66.526L28.729,85.587L13.905,70.755Z"
           style="fill:#7289da;fill-rule:nonzero;fill-opacity:1"
           id="path22206" /></g></g></g></svg>