<?xml version="1.0" encoding="UTF-8" standalone="no"?>
<svg
   xmlns:dc="http://purl.org/dc/elements/1.1/"
   xmlns:cc="http://creativecommons.org/ns#"
   xmlns:rdf="http://www.w3.org/1999/02/22-rdf-syntax-ns#"
   xmlns:svg="http://www.w3.org/2000/svg"
   xmlns="http://www.w3.org/2000/svg"
   xmlns:sodipodi="http://sodipodi.sourceforge.net/DTD/sodipodi-0.dtd"
   xmlns:inkscape="http://www.inkscape.org/namespaces/inkscape"
   width="100%"
   height="100%"
   viewBox="0 0 128 128"
   version="1.1"
   xml:space="preserve"
   style="fill-rule:evenodd;clip-rule:evenodd;stroke-linejoin:round;stroke-miterlimit:1.41421;"
   id="svg13094"
   inkscape:version="0.91 r13725"
   sodipodi:docname="textformat_underline.svg"><metadata
     id="metadata13105"><rdf:RDF><cc:Work
         rdf:about=""><dc:format>image/svg+xml</dc:format><dc:type
           rdf:resource="http://purl.org/dc/dcmitype/StillImage" /></cc:Work></rdf:RDF></metadata><defs
     id="defs13103" /><sodipodi:namedview
     pagecolor="#ffffff"
     bordercolor="#666666"
     borderopacity="1"
     objecttolerance="10"
     gridtolerance="10"
     guidetolerance="10"
     inkscape:pageopacity="0"
     inkscape:pageshadow="2"
     inkscape:window-width="1920"
     inkscape:window-height="1017"
     id="namedview13101"
     showgrid="false"
     inkscape:zoom="1.84375"
     inkscape:cx="64"
     inkscape:cy="64"
     inkscape:window-x="-8"
     inkscape:window-y="-8"
     inkscape:window-maximized="1"
     inkscape:current-layer="svg13094" /><rect
     id="textformat_underline"
     x="0"
     y="0"
     width="128"
     height="128"
     style="fill:none;" /><path
     d="M43.729,9l0,58.461c0,9.297 1.638,16.029 4.925,20.195c3.28,4.181 8.343,6.262 15.202,6.262c7.423,0 12.851,-2.081 16.276,-6.262c3.431,-4.166 5.141,-10.898 5.141,-20.195l0,-58.461l19.273,0l0,59.88c0,13.661 -3.426,23.924 -10.272,30.789c-6.848,6.88 -17.049,10.322 -30.561,10.322c-14.28,0 -24.564,-3.464 -30.835,-10.383c-6.288,-6.919 -9.425,-17.162 -9.425,-30.729l0,-59.879l20.276,0Z"
     style="fill:#a9aaac;fill-rule:nonzero;fill-opacity:1"
     id="path13097" /><rect
     x="23.453"
     y="118"
     width="81.094"
     height="10"
     style="fill:#a9aaac;fill-opacity:1"
     id="rect13099" /></svg>