<?xml version="1.0" encoding="UTF-8" standalone="no"?>
<svg
   xmlns:dc="http://purl.org/dc/elements/1.1/"
   xmlns:cc="http://creativecommons.org/ns#"
   xmlns:rdf="http://www.w3.org/1999/02/22-rdf-syntax-ns#"
   xmlns:svg="http://www.w3.org/2000/svg"
   xmlns="http://www.w3.org/2000/svg"
   xmlns:sodipodi="http://sodipodi.sourceforge.net/DTD/sodipodi-0.dtd"
   xmlns:inkscape="http://www.inkscape.org/namespaces/inkscape"
   width="100%"
   height="100%"
   viewBox="0 0 128 128"
   version="1.1"
   xml:space="preserve"
   style="fill-rule:evenodd;clip-rule:evenodd;stroke-linejoin:round;stroke-miterlimit:1.41421;"
   id="svg10876"
   inkscape:version="0.91 r13725"
   sodipodi:docname="textformat.svg"><metadata
     id="metadata10887"><rdf:RDF><cc:Work
         rdf:about=""><dc:format>image/svg+xml</dc:format><dc:type
           rdf:resource="http://purl.org/dc/dcmitype/StillImage" /></cc:Work></rdf:RDF></metadata><defs
     id="defs10885" /><sodipodi:namedview
     pagecolor="#ffffff"
     bordercolor="#666666"
     borderopacity="1"
     objecttolerance="10"
     gridtolerance="10"
     guidetolerance="10"
     inkscape:pageopacity="0"
     inkscape:pageshadow="2"
     inkscape:window-width="1920"
     inkscape:window-height="1017"
     id="namedview10883"
     showgrid="false"
     inkscape:zoom="1.84375"
     inkscape:cx="64"
     inkscape:cy="64"
     inkscape:window-x="-8"
     inkscape:window-y="-8"
     inkscape:window-maximized="1"
     inkscape:current-layer="svg10876" /><rect
     id="textformat"
     x="0"
     y="0"
     width="128"
     height="128"
     style="fill:none;" /><path
     d="M104,19c2.757,0 5,2.243 5,5l0,80c0,2.757 -2.243,5 -5,5l-80,0c-2.757,0 -5,-2.243 -5,-5l0,-80c0,-2.757 2.243,-5 5,-5l80,0m0,-10l-80,0c-8.284,0 -15,6.716 -15,15l0,80c0,8.284 6.716,15 15,15l80,0c8.284,0 15,-6.716 15,-15l0,-80c0,-8.284 -6.716,-15 -15,-15Z"
     style="fill:#a9aaac;fill-rule:nonzero;fill-opacity:1"
     id="path10879" /><path
     d="M97,97.775l-9.185,0l-7.275,-17.625l-33.475,0l-7.157,17.625l-8.908,0l28.546,-67.551l8.611,0l28.843,67.551Zm-28.545,-47.616c-0.323,-0.709 -0.686,-1.611 -1.119,-2.707c-0.405,-1.096 -0.854,-2.256 -1.306,-3.48c-0.452,-1.224 -0.888,-2.42 -1.305,-3.583c-0.42,-1.157 -0.759,-2.189 -1.015,-3.096l-0.192,0c-0.323,0.907 -0.678,1.939 -1.063,3.096c-0.392,1.162 -0.808,2.325 -1.262,3.486c-0.454,1.16 -0.884,2.303 -1.303,3.434c-0.419,1.125 -0.792,2.077 -1.115,2.851l-9.101,23.219l28.079,0l-9.298,-23.22Z"
     style="fill:#a9aaac;fill-rule:nonzero;fill-opacity:1"
     id="path10881" /></svg>