<?xml version="1.0" encoding="UTF-8" standalone="no"?>
<svg
   xmlns:dc="http://purl.org/dc/elements/1.1/"
   xmlns:cc="http://creativecommons.org/ns#"
   xmlns:rdf="http://www.w3.org/1999/02/22-rdf-syntax-ns#"
   xmlns:svg="http://www.w3.org/2000/svg"
   xmlns="http://www.w3.org/2000/svg"
   xmlns:sodipodi="http://sodipodi.sourceforge.net/DTD/sodipodi-0.dtd"
   xmlns:inkscape="http://www.inkscape.org/namespaces/inkscape"
   width="100%"
   height="100%"
   viewBox="0 0 128 128"
   version="1.1"
   xml:space="preserve"
   style="fill-rule:evenodd;clip-rule:evenodd;stroke-linejoin:round;stroke-miterlimit:1.41421;"
   id="svg14798"
   inkscape:version="0.91 r13725"
   sodipodi:docname="toggle_whisper.svg"><metadata
     id="metadata14815"><rdf:RDF><cc:Work
         rdf:about=""><dc:format>image/svg+xml</dc:format><dc:type
           rdf:resource="http://purl.org/dc/dcmitype/StillImage" /></cc:Work></rdf:RDF></metadata><defs
     id="defs14813" /><sodipodi:namedview
     pagecolor="#ffffff"
     bordercolor="#666666"
     borderopacity="1"
     objecttolerance="10"
     gridtolerance="10"
     guidetolerance="10"
     inkscape:pageopacity="0"
     inkscape:pageshadow="2"
     inkscape:window-width="1920"
     inkscape:window-height="1017"
     id="namedview14811"
     showgrid="false"
     inkscape:zoom="1.84375"
     inkscape:cx="64"
     inkscape:cy="64"
     inkscape:window-x="-8"
     inkscape:window-y="-8"
     inkscape:window-maximized="1"
     inkscape:current-layer="svg14798" /><rect
     id="toggle_whisper"
     x="0"
     y="0"
     width="128"
     height="128"
     style="fill:none;" /><path
     d="M90.876,72.75c9.993,0 18.124,8.131 18.124,18.124c0,9.995 -8.131,18.126 -18.124,18.126c-9.995,0 -18.126,-8.131 -18.126,-18.126c0,-9.993 8.131,-18.124 18.126,-18.124m0,-10c-15.533,0 -28.126,12.593 -28.126,28.124c0,15.534 12.593,28.126 28.126,28.126c15.532,0 28.124,-12.592 28.124,-28.126c0,-15.531 -12.592,-28.124 -28.124,-28.124Z"
     style="fill:#c90709;fill-rule:nonzero;"
     id="path14801" /><path
     d="M111.513,77.308l-34.204,34.204l-7.072,-7.071l34.204,-34.204l7.072,7.071Z"
     style="fill:#c90709;"
     id="path14803" /><path
     d="M74.613,56.401l-0.002,-47.401l-27.973,29.429l0,50.259l6.393,6.729c-0.178,-1.491 -0.28,-3.005 -0.28,-4.543c-0.001,-15.207 8.952,-28.358 21.862,-34.473Z"
     style="fill:#a9aaac;fill-rule:nonzero;fill-opacity:1"
     id="path14805" /><path
     d="M106.752,49.736c-1.832,-4.412 -4.477,-8.329 -7.867,-11.642c-1.313,-1.279 -3.039,-1.983 -4.861,-1.983c-1.898,0 -3.668,0.746 -4.975,2.093c-1.307,1.327 -2.014,3.084 -1.992,4.952c0.027,1.858 0.766,3.594 2.086,4.894c1.434,1.396 2.638,2.992 3.623,4.748c5.84,0.287 11.338,1.893 16.202,4.526c-0.457,-2.611 -1.19,-5.15 -2.216,-7.588Z"
     style="fill:#e6e6e6;fill-rule:nonzero"
     id="path14807" /><path
     d="M20.397,40.924c-1.625,1.661 -2.431,3.631 -2.431,5.908l0,33.456c0,2.269 0.806,4.249 2.431,5.896c1.615,1.669 3.602,2.504 5.969,2.504l13.065,0l0,-50.259l-13.064,0c-2.368,0 -4.355,0.836 -5.97,2.495Z"
     style="fill:#a9aaac;fill-rule:nonzero;fill-opacity:1"
     id="path14809" /></svg>