<?xml version="1.0" encoding="UTF-8" standalone="no"?>
<svg
   xmlns:dc="http://purl.org/dc/elements/1.1/"
   xmlns:cc="http://creativecommons.org/ns#"
   xmlns:rdf="http://www.w3.org/1999/02/22-rdf-syntax-ns#"
   xmlns:svg="http://www.w3.org/2000/svg"
   xmlns="http://www.w3.org/2000/svg"
   xmlns:sodipodi="http://sodipodi.sourceforge.net/DTD/sodipodi-0.dtd"
   xmlns:inkscape="http://www.inkscape.org/namespaces/inkscape"
   width="100%"
   height="100%"
   viewBox="0 0 128 128"
   version="1.1"
   xml:space="preserve"
   style="fill-rule:evenodd;clip-rule:evenodd;stroke-linejoin:round;stroke-miterlimit:1.41421;"
   id="svg4136"
   inkscape:version="0.91 r13725"
   sodipodi:docname="angry.svg"><metadata
     id="metadata4161"><rdf:RDF><cc:Work
         rdf:about=""><dc:format>image/svg+xml</dc:format><dc:type
           rdf:resource="http://purl.org/dc/dcmitype/StillImage" /></cc:Work></rdf:RDF></metadata><defs
     id="defs4159" /><sodipodi:namedview
     pagecolor="#ffffff"
     bordercolor="#666666"
     borderopacity="1"
     objecttolerance="10"
     gridtolerance="10"
     guidetolerance="10"
     inkscape:pageopacity="0"
     inkscape:pageshadow="2"
     inkscape:window-width="1920"
     inkscape:window-height="1017"
     id="namedview4157"
     showgrid="false"
     inkscape:zoom="6.640625"
     inkscape:cx="64"
     inkscape:cy="64"
     inkscape:window-x="-8"
     inkscape:window-y="-8"
     inkscape:window-maximized="1"
     inkscape:current-layer="svg4136" /><g
     transform="matrix(1,0,0,1,-1,0)"
     id="g4138"><g
       id="angry"
       transform="matrix(1,0,0,1,1,0)"><rect
         x="0"
         y="0"
         width="128"
         height="128"
         style="fill:none;"
         id="rect4141" /><path
         d="M64,9C33.615,9 9,33.615 9,64C9,94.385 33.615,119 64,119C94.384,119 119,94.385 119,64C119,33.615 94.384,9 64,9Z"
         style="fill:#a9aaac;fill-rule:nonzero;fill-opacity:1"
         id="path4143" /><g
         transform="matrix(1,0,0,1,-1,0)"
         id="g4145"
         style="fill:#333333"><path
           d="M37.603,38.2L37.782,38.211L37.959,38.229L38.136,38.253L38.312,38.284L38.487,38.32L38.66,38.363L38.831,38.413L39.001,38.468L39.169,38.529L39.334,38.596L39.497,38.669L39.657,38.748L39.814,38.833L56.076,47.951L56.23,48.041L56.381,48.136L56.529,48.237L56.672,48.343L56.812,48.454L56.947,48.57L57.079,48.691L57.206,48.816L57.328,48.946L57.446,49.08L57.559,49.219L57.667,49.361L57.77,49.507L57.867,49.656L57.959,49.809L58.046,49.965L58.127,50.124L58.202,50.286L58.272,50.451L58.335,50.617L58.393,50.786L58.444,50.957L58.489,51.13L58.528,51.304L58.561,51.479L58.588,51.656L58.608,51.833L58.622,52.011L58.63,52.19L58.631,52.368L58.626,52.546L58.614,52.725L58.596,52.902L58.572,53.079L58.541,53.255L58.505,53.43L58.462,53.603L58.412,53.774L58.357,53.944L58.296,54.112L58.229,54.277L58.156,54.44L58.077,54.6L57.992,54.757L57.902,54.911L57.807,55.062L57.706,55.21L57.6,55.353L57.489,55.493L57.373,55.628L57.252,55.76L57.127,55.887L56.997,56.009L56.863,56.127L56.724,56.24L56.582,56.348L56.436,56.451L56.287,56.548L56.134,56.64L55.978,56.727L55.819,56.808L55.657,56.883L55.492,56.953L55.326,57.016L55.157,57.074L54.986,57.125L54.813,57.17L54.639,57.209L54.464,57.242L54.287,57.269L54.11,57.289L53.932,57.303L53.753,57.311L53.575,57.312L53.397,57.306L53.218,57.295L53.041,57.277L52.864,57.253L52.688,57.222L52.513,57.186L52.34,57.143L52.169,57.093L51.999,57.038L51.831,56.977L51.666,56.91L51.503,56.837L51.343,56.758L51.186,56.673L34.924,47.555L34.77,47.465L34.619,47.37L34.471,47.269L34.328,47.163L34.188,47.052L34.053,46.936L33.921,46.815L33.794,46.69L33.672,46.56L33.554,46.426L33.441,46.287L33.333,46.145L33.23,45.999L33.133,45.85L33.041,45.697L32.954,45.541L32.873,45.382L32.798,45.22L32.728,45.055L32.665,44.889L32.607,44.72L32.556,44.549L32.511,44.376L32.472,44.202L32.439,44.027L32.412,43.85L32.392,43.673L32.378,43.495L32.37,43.316L32.369,43.138L32.375,42.96L32.386,42.781L32.404,42.604L32.428,42.427L32.459,42.251L32.495,42.076L32.538,41.903L32.588,41.732L32.643,41.562L32.704,41.394L32.771,41.229L32.844,41.066L32.923,40.906L33.008,40.749L33.098,40.595L33.193,40.444L33.294,40.296L33.4,40.153L33.511,40.013L33.627,39.878L33.748,39.746L33.873,39.619L34.003,39.497L34.137,39.379L34.276,39.266L34.418,39.158L34.564,39.055L34.713,38.958L34.866,38.866L35.022,38.779L35.181,38.698L35.343,38.623L35.508,38.553L35.674,38.49L35.843,38.432L36.014,38.381L36.187,38.336L36.361,38.297L36.536,38.264L36.713,38.237L36.89,38.217L37.068,38.203L37.247,38.195L37.425,38.194L37.603,38.2Z"
           style="fill:#333333"
           id="path4147" /></g><g
         transform="matrix(1,0,0,1,-1,0)"
         id="g4149"
         style="fill:#333333"><path
           d="M90.753,38.195L90.932,38.203L91.11,38.217L91.287,38.237L91.464,38.264L91.639,38.297L91.813,38.336L91.986,38.381L92.157,38.432L92.326,38.49L92.492,38.553L92.657,38.623L92.819,38.698L92.978,38.779L93.134,38.866L93.287,38.958L93.436,39.055L93.582,39.158L93.724,39.266L93.863,39.379L93.997,39.497L94.127,39.619L94.252,39.746L94.373,39.878L94.489,40.013L94.6,40.153L94.706,40.296L94.807,40.444L94.902,40.595L94.992,40.749L95.077,40.906L95.156,41.066L95.229,41.229L95.296,41.394L95.357,41.562L95.412,41.732L95.462,41.903L95.505,42.076L95.541,42.251L95.572,42.427L95.596,42.604L95.614,42.781L95.625,42.959L95.631,43.138L95.629,43.316L95.622,43.495L95.608,43.673L95.588,43.85L95.561,44.027L95.528,44.202L95.489,44.376L95.444,44.549L95.393,44.72L95.335,44.889L95.272,45.055L95.202,45.22L95.127,45.382L95.046,45.541L94.959,45.697L94.867,45.85L94.77,45.999L94.667,46.145L94.559,46.287L94.446,46.426L94.328,46.56L94.206,46.69L94.079,46.815L93.947,46.936L93.812,47.052L93.672,47.163L93.529,47.269L93.381,47.37L93.23,47.465L93.076,47.555L76.814,56.673L76.657,56.758L76.497,56.837L76.334,56.91L76.169,56.977L76.001,57.038L75.831,57.093L75.66,57.143L75.487,57.186L75.312,57.222L75.136,57.253L74.959,57.277L74.782,57.295L74.603,57.306L74.425,57.312L74.247,57.311L74.068,57.303L73.89,57.289L73.713,57.269L73.536,57.242L73.361,57.209L73.187,57.17L73.014,57.125L72.843,57.074L72.674,57.016L72.508,56.953L72.343,56.883L72.181,56.808L72.022,56.727L71.866,56.64L71.713,56.548L71.564,56.451L71.418,56.348L71.276,56.24L71.137,56.127L71.003,56.009L70.873,55.887L70.748,55.76L70.627,55.628L70.511,55.493L70.4,55.353L70.294,55.21L70.193,55.062L70.098,54.911L70.008,54.757L69.923,54.6L69.844,54.44L69.771,54.277L69.704,54.112L69.643,53.944L69.588,53.774L69.538,53.603L69.495,53.43L69.459,53.255L69.428,53.079L69.404,52.902L69.386,52.725L69.374,52.546L69.369,52.368L69.37,52.19L69.378,52.011L69.392,51.833L69.412,51.656L69.439,51.479L69.472,51.304L69.511,51.13L69.556,50.957L69.607,50.786L69.665,50.617L69.728,50.451L69.798,50.286L69.873,50.124L69.954,49.965L70.041,49.809L70.133,49.656L70.23,49.507L70.333,49.361L70.441,49.219L70.554,49.08L70.672,48.946L70.794,48.816L70.921,48.691L71.053,48.57L71.188,48.454L71.328,48.343L71.471,48.237L71.619,48.136L71.77,48.041L71.924,47.951L88.186,38.833L88.343,38.748L88.503,38.669L88.666,38.596L88.831,38.529L88.999,38.468L89.169,38.413L89.34,38.363L89.513,38.32L89.688,38.284L89.864,38.253L90.041,38.229L90.218,38.211L90.396,38.2L90.575,38.194L90.753,38.195Z"
           style="fill:#333333"
           id="path4151" /></g><g
         transform="matrix(1,0,0,1,-1,0)"
         id="g4153"
         style="fill:#333333"><path
           d="M63.503,70.082L63.747,70.084L63.991,70.088L64.235,70.093L64.48,70.1L64.724,70.109L64.968,70.119L65.212,70.13L65.456,70.143L65.7,70.158L65.944,70.174L66.188,70.192L66.432,70.212L66.675,70.233L66.919,70.255L67.162,70.279L67.406,70.305L67.649,70.332L67.892,70.361L68.135,70.391L68.378,70.423L68.621,70.457L68.863,70.492L69.105,70.529L69.347,70.567L69.589,70.607L69.831,70.648L70.073,70.691L70.314,70.736L70.555,70.782L70.796,70.829L71.037,70.879L71.278,70.93L71.518,70.982L71.758,71.036L71.998,71.091L72.237,71.149L72.476,71.207L72.715,71.267L72.954,71.329L73.192,71.393L73.43,71.458L73.668,71.524L73.905,71.592L74.142,71.662L74.379,71.733L74.616,71.806L74.852,71.88L75.088,71.956L75.323,72.033L75.558,72.112L75.793,72.193L76.027,72.275L76.261,72.359L76.494,72.444L76.727,72.531L76.96,72.619L77.192,72.709L77.424,72.801L77.655,72.894L77.886,72.989L78.116,73.085L78.346,73.183L78.576,73.282L78.805,73.383L79.034,73.485L79.262,73.589L79.489,73.695L79.716,73.802L79.943,73.911L80.169,74.021L80.394,74.133L80.619,74.246L80.844,74.361L81.068,74.478L81.291,74.596L81.514,74.715L81.736,74.836L81.957,74.959L82.178,75.083L82.399,75.209L82.619,75.336L82.838,75.465L83.056,75.596L83.274,75.728L83.492,75.861L83.708,75.996L83.924,76.133L84.14,76.271L84.354,76.41L84.568,76.552L84.782,76.694L84.994,76.839L85.206,76.985L85.417,77.132L85.628,77.281L85.838,77.431L86.047,77.583L86.255,77.737L86.463,77.892L86.67,78.048L86.876,78.206L87.081,78.366L87.285,78.527L87.489,78.689L87.692,78.854L87.894,79.019L88.096,79.186L88.296,79.355L88.496,79.525L88.695,79.697L88.893,79.871L89.09,80.045L89.287,80.221L89.482,80.399L89.677,80.579L89.871,80.759L90.064,80.942L90.256,81.125L90.447,81.311L90.638,81.498L90.827,81.686L91.015,81.876L91.203,82.067L91.39,82.26L91.575,82.454L91.76,82.65L91.933,82.835L92.14,83.072L92.331,83.321L92.507,83.581L92.666,83.852L92.807,84.133L92.931,84.421L93.036,84.717L93.123,85.019L93.19,85.326L93.238,85.636L93.266,85.949L93.275,86.263L93.264,86.577L93.233,86.89L93.183,87.2L93.113,87.506L93.024,87.807L92.917,88.103L92.791,88.39L92.647,88.67L92.486,88.939L92.309,89.199L92.115,89.446L91.907,89.681L91.684,89.902L91.447,90.109L91.198,90.3L90.938,90.476L90.667,90.635L90.386,90.776L90.098,90.9L89.802,91.005L89.5,91.092L89.193,91.159L88.883,91.207L88.57,91.235L88.256,91.244L87.942,91.233L87.629,91.202L87.319,91.152L87.013,91.082L86.712,90.993L86.416,90.886L86.129,90.76L85.849,90.616L85.58,90.455L85.32,90.278L85.073,90.084L84.838,89.876L84.617,89.653L84.466,89.49L84.324,89.341L84.183,89.192L84.04,89.045L83.897,88.899L83.754,88.755L83.609,88.611L83.465,88.469L83.319,88.328L83.173,88.189L83.027,88.05L82.88,87.913L82.732,87.777L82.584,87.643L82.435,87.509L82.286,87.377L82.136,87.246L81.986,87.116L81.835,86.987L81.684,86.86L81.532,86.734L81.379,86.609L81.226,86.485L81.073,86.363L80.919,86.242L80.764,86.122L80.609,86.003L80.454,85.885L80.298,85.769L80.142,85.653L79.985,85.539L79.827,85.427L79.67,85.315L79.511,85.205L79.353,85.095L79.194,84.987L79.034,84.881L78.874,84.775L78.713,84.671L78.552,84.567L78.391,84.465L78.229,84.365L78.067,84.265L77.905,84.167L77.742,84.069L77.578,83.973L77.414,83.878L77.25,83.785L77.086,83.692L76.921,83.601L76.755,83.511L76.59,83.422L76.424,83.334L76.257,83.247L76.09,83.162L75.923,83.078L75.756,82.995L75.588,82.913L75.42,82.832L75.251,82.753L75.082,82.674L74.913,82.597L74.744,82.521L74.574,82.446L74.404,82.373L74.233,82.3L74.063,82.229L73.892,82.159L73.72,82.09L73.549,82.022L73.377,81.956L73.205,81.89L73.032,81.826L72.859,81.763L72.686,81.701L72.513,81.64L72.34,81.58L72.166,81.522L71.992,81.465L71.818,81.409L71.643,81.354L71.469,81.3L71.294,81.247L71.119,81.196L70.943,81.146L70.768,81.097L70.592,81.049L70.416,81.002L70.24,80.956L70.063,80.912L69.887,80.868L69.71,80.826L69.533,80.785L69.356,80.746L69.179,80.707L69.001,80.669L68.824,80.633L68.646,80.598L68.468,80.564L68.29,80.531L68.112,80.499L67.934,80.469L67.755,80.439L67.577,80.411L67.398,80.384L67.219,80.358L67.04,80.334L66.861,80.31L66.682,80.288L66.503,80.266L66.324,80.246L66.144,80.227L65.965,80.209L65.785,80.193L65.606,80.177L65.426,80.163L65.246,80.15L65.067,80.138L64.887,80.127L64.707,80.117L64.527,80.109L64.347,80.102L64.167,80.095L63.987,80.09L63.807,80.086L63.627,80.084L63.447,80.082L63.267,80.082L63.087,80.082L62.907,80.084L62.727,80.087L62.547,80.092L62.367,80.097L62.187,80.103L62.007,80.111L61.827,80.12L61.647,80.13L61.467,80.141L61.288,80.153L61.108,80.167L60.928,80.181L60.749,80.197L60.569,80.214L60.39,80.232L60.21,80.251L60.031,80.272L59.852,80.293L59.673,80.316L59.494,80.34L59.315,80.365L59.136,80.391L58.958,80.419L58.779,80.447L58.601,80.477L58.422,80.508L58.244,80.54L58.066,80.573L57.888,80.607L57.711,80.642L57.533,80.679L57.356,80.717L57.179,80.756L57.002,80.796L56.825,80.837L56.648,80.88L56.471,80.923L56.295,80.968L56.119,81.014L55.943,81.061L55.767,81.109L55.592,81.158L55.416,81.209L55.241,81.261L55.066,81.313L54.892,81.367L54.717,81.423L54.543,81.479L54.369,81.536L54.196,81.595L54.022,81.655L53.849,81.716L53.676,81.778L53.503,81.841L53.331,81.906L53.159,81.971L52.987,82.038L52.816,82.106L52.644,82.175L52.474,82.246L52.303,82.317L52.132,82.39L51.963,82.464L51.793,82.539L51.623,82.615L51.454,82.692L51.286,82.771L51.117,82.85L50.949,82.931L50.781,83.013L50.614,83.096L50.447,83.181L50.28,83.266L50.114,83.353L49.948,83.441L49.783,83.53L49.617,83.62L49.453,83.712L49.288,83.804L49.124,83.898L48.96,83.993L48.797,84.089L48.634,84.186L48.472,84.285L48.31,84.384L48.148,84.485L47.987,84.587L47.826,84.691L47.666,84.795L47.506,84.901L47.347,85.007L47.188,85.115L47.029,85.225L46.871,85.335L46.714,85.447L46.557,85.559L46.4,85.673L46.244,85.789L46.088,85.905L45.933,86.022L45.778,86.141L45.624,86.261L45.47,86.382L45.317,86.505L45.164,86.628L45.012,86.753L44.86,86.879L44.709,87.006L44.559,87.135L44.409,87.264L44.259,87.395L44.11,87.527L43.962,87.66L43.814,87.795L43.666,87.931L43.52,88.068L43.373,88.206L43.228,88.345L43.083,88.486L42.938,88.628L42.794,88.771L42.651,88.915L42.508,89.061L42.366,89.207L42.225,89.355L42.084,89.505L41.933,89.667L41.712,89.89L41.477,90.098L41.229,90.292L40.97,90.469L40.701,90.63L40.421,90.774L40.134,90.9L39.838,91.007L39.537,91.096L39.231,91.166L38.921,91.216L38.608,91.247L38.294,91.258L37.98,91.249L37.667,91.221L37.357,91.173L37.05,91.106L36.748,91.019L36.452,90.914L36.164,90.79L35.883,90.649L35.612,90.49L35.352,90.314L35.103,90.123L34.866,89.916L34.643,89.695L34.435,89.46L34.241,89.212L34.064,88.953L33.903,88.684L33.759,88.404L33.633,88.117L33.526,87.821L33.437,87.52L33.367,87.214L33.317,86.904L33.286,86.591L33.275,86.277L33.284,85.963L33.312,85.65L33.36,85.34L33.427,85.033L33.514,84.731L33.619,84.435L33.743,84.147L33.884,83.866L34.043,83.595L34.219,83.335L34.41,83.086L34.617,82.849L34.79,82.664L34.974,82.469L35.159,82.275L35.345,82.083L35.532,81.892L35.721,81.702L35.909,81.514L36.099,81.328L36.29,81.143L36.482,80.96L36.674,80.778L36.868,80.597L37.062,80.418L37.257,80.241L37.453,80.065L37.65,79.89L37.848,79.717L38.046,79.546L38.246,79.376L38.446,79.207L38.647,79.04L38.849,78.875L39.051,78.711L39.255,78.549L39.459,78.388L39.664,78.228L39.87,78.07L40.076,77.914L40.283,77.759L40.491,77.606L40.7,77.454L40.909,77.304L41.119,77.155L41.33,77.008L41.542,76.862L41.754,76.718L41.967,76.575L42.181,76.434L42.395,76.294L42.61,76.156L42.826,76.02L43.042,75.885L43.259,75.751L43.477,75.619L43.695,75.489L43.914,75.36L44.133,75.232L44.353,75.107L44.574,74.982L44.795,74.86L45.017,74.738L45.239,74.619L45.462,74.501L45.686,74.384L45.91,74.269L46.135,74.156L46.36,74.044L46.585,73.933L46.812,73.825L47.039,73.717L47.266,73.612L47.494,73.507L47.722,73.405L47.951,73.304L48.18,73.204L48.409,73.106L48.64,73.01L48.87,72.915L49.101,72.822L49.333,72.73L49.565,72.64L49.797,72.551L50.03,72.464L50.263,72.378L50.497,72.294L50.731,72.212L50.965,72.131L51.2,72.052L51.435,71.974L51.67,71.898L51.906,71.823L52.143,71.75L52.379,71.679L52.616,71.609L52.853,71.541L53.091,71.474L53.329,71.409L53.567,71.345L53.805,71.283L54.044,71.222L54.283,71.163L54.522,71.106L54.762,71.05L55.002,70.996L55.242,70.943L55.482,70.892L55.723,70.842L55.963,70.794L56.204,70.748L56.446,70.703L56.687,70.659L56.929,70.617L57.171,70.577L57.413,70.539L57.655,70.502L57.897,70.466L58.14,70.432L58.383,70.4L58.625,70.369L58.868,70.34L59.112,70.312L59.355,70.286L59.598,70.261L59.842,70.238L60.085,70.217L60.329,70.197L60.573,70.179L60.817,70.162L61.061,70.147L61.305,70.134L61.549,70.122L61.793,70.111L62.037,70.102L62.281,70.095L62.525,70.089L62.77,70.085L63.014,70.083L63.258,70.082L63.503,70.082Z"
           style="fill:#333333"
           id="path4155" /></g></g></g></svg>