<?xml version="1.0" encoding="UTF-8" standalone="no"?>
<svg
   xmlns:dc="http://purl.org/dc/elements/1.1/"
   xmlns:cc="http://creativecommons.org/ns#"
   xmlns:rdf="http://www.w3.org/1999/02/22-rdf-syntax-ns#"
   xmlns:svg="http://www.w3.org/2000/svg"
   xmlns="http://www.w3.org/2000/svg"
   xmlns:sodipodi="http://sodipodi.sourceforge.net/DTD/sodipodi-0.dtd"
   xmlns:inkscape="http://www.inkscape.org/namespaces/inkscape"
   width="100%"
   height="100%"
   viewBox="0 0 128 128"
   version="1.1"
   xml:space="preserve"
   style="fill-rule:evenodd;clip-rule:evenodd;stroke-linecap:round;stroke-linejoin:round;stroke-miterlimit:10;"
   id="svg7525"
   inkscape:version="0.91 r13725"
   sodipodi:docname="skeptical.svg"><metadata
     id="metadata7550"><rdf:RDF><cc:Work
         rdf:about=""><dc:format>image/svg+xml</dc:format><dc:type
           rdf:resource="http://purl.org/dc/dcmitype/StillImage" /></cc:Work></rdf:RDF></metadata><defs
     id="defs7548" /><sodipodi:namedview
     pagecolor="#ffffff"
     bordercolor="#666666"
     borderopacity="1"
     objecttolerance="10"
     gridtolerance="10"
     guidetolerance="10"
     inkscape:pageopacity="0"
     inkscape:pageshadow="2"
     inkscape:window-width="1920"
     inkscape:window-height="1017"
     id="namedview7546"
     showgrid="false"
     inkscape:zoom="1.84375"
     inkscape:cx="64"
     inkscape:cy="-1.0847458"
     inkscape:window-x="-8"
     inkscape:window-y="-8"
     inkscape:window-maximized="1"
     inkscape:current-layer="svg7525" /><g
     transform="matrix(1,0,0,1,0,-800)"
     id="g7527"><g
       id="skeptical"
       transform="matrix(1,0,0,1.09402,0,362.393)"><rect
         x="0"
         y="400"
         width="128"
         height="117"
         style="fill:none;"
         id="rect7530" /><g
         transform="matrix(1,0,0,0.914062,0,400)"
         id="g7532"><path
           d="M64,9C33.615,9 9,33.615 9,64C9,94.385 33.615,119 64,119C94.384,119 119,94.385 119,64C119,33.615 94.384,9 64,9Z"
           style="fill:#a9aaac;fill-rule:nonzero;fill-opacity:1"
           id="path7534" /></g><g
         transform="matrix(1,0,0,0.914062,0,400)"
         id="g7536"><circle
           cx="81.765"
           cy="50.694"
           r="7.5"
           style="fill:#333333"
           id="circle7538" /><circle
           cx="46.235"
           cy="50.694"
           r="7.5"
           style="fill:#333333"
           id="circle7540" /></g><g
         transform="matrix(1,0,0,0.914062,0,400)"
         id="g7542"
         style=""><path
           d="M39.877,86.785L88.123,73.652"
           style="stroke:#333333;stroke-width:10px;fill:#333333;stroke-opacity:1"
           id="path7544" /></g></g></g></svg>