<?xml version="1.0" encoding="UTF-8" standalone="no"?>
<svg
   xmlns:dc="http://purl.org/dc/elements/1.1/"
   xmlns:cc="http://creativecommons.org/ns#"
   xmlns:rdf="http://www.w3.org/1999/02/22-rdf-syntax-ns#"
   xmlns:svg="http://www.w3.org/2000/svg"
   xmlns="http://www.w3.org/2000/svg"
   xmlns:sodipodi="http://sodipodi.sourceforge.net/DTD/sodipodi-0.dtd"
   xmlns:inkscape="http://www.inkscape.org/namespaces/inkscape"
   width="100%"
   height="100%"
   viewBox="0 0 128 128"
   version="1.1"
   xml:space="preserve"
   style="fill-rule:evenodd;clip-rule:evenodd;stroke-linejoin:round;stroke-miterlimit:1.41421;"
   id="svg8092"
   inkscape:version="0.91 r13725"
   sodipodi:docname="smile.svg"><metadata
     id="metadata8109"><rdf:RDF><cc:Work
         rdf:about=""><dc:format>image/svg+xml</dc:format><dc:type
           rdf:resource="http://purl.org/dc/dcmitype/StillImage" /></cc:Work></rdf:RDF></metadata><defs
     id="defs8107" /><sodipodi:namedview
     pagecolor="#ffffff"
     bordercolor="#666666"
     borderopacity="1"
     objecttolerance="10"
     gridtolerance="10"
     guidetolerance="10"
     inkscape:pageopacity="0"
     inkscape:pageshadow="2"
     inkscape:window-width="1920"
     inkscape:window-height="1017"
     id="namedview8105"
     showgrid="false"
     inkscape:zoom="1.84375"
     inkscape:cx="64"
     inkscape:cy="64"
     inkscape:window-x="-8"
     inkscape:window-y="-8"
     inkscape:window-maximized="1"
     inkscape:current-layer="svg8092" /><rect
     id="smile"
     x="0"
     y="0"
     width="128"
     height="128"
     style="fill:none;" /><path
     d="M64,9c-30.385,0 -55,24.615 -55,55c0,30.385 24.615,55 55,55c30.384,0 55,-24.615 55,-55c0,-30.385 -24.616,-55 -55,-55Z"
     style="fill:#a9aaac;fill-rule:nonzero;fill-opacity:1"
     id="path8095" /><g
     id="g8097"><circle
       cx="81.765"
       cy="50.694"
       r="7.5"
       style="fill:#333333"
       id="circle8099" /><circle
       cx="46.235"
       cy="50.694"
       r="7.5"
       style="fill:#333333"
       id="circle8101" /></g><path
     d="M88.569,73.214l0.313,0.028l0.31,0.048l0.307,0.067l0.302,0.087l0.296,0.105l0.289,0.123l0.28,0.142l0.271,0.159l0.261,0.175l0.249,0.192l0.236,0.207l0.223,0.221l0.209,0.235l0.193,0.247l0.178,0.259l0.161,0.27l0.144,0.279l0.126,0.288l0.107,0.295l0.089,0.301l0.07,0.307l0.05,0.31l0.031,0.312l0.011,0.314l-0.009,0.314l-0.028,0.313l-0.048,0.31l-0.067,0.307l-0.087,0.302l-0.105,0.296l-0.123,0.289l-0.142,0.28l-0.159,0.271l-0.175,0.261l-0.192,0.249l-0.207,0.236l-0.172,0.186l-0.185,0.195l-0.185,0.194l-0.187,0.193l-0.186,0.19l-0.188,0.19l-0.19,0.188l-0.189,0.186l-0.191,0.185l-0.192,0.184l-0.192,0.181l-0.194,0.181l-0.194,0.179l-0.195,0.177l-0.196,0.176l-0.197,0.175l-0.198,0.173l-0.198,0.171l-0.2,0.17l-0.2,0.169l-0.201,0.166l-0.202,0.166l-0.202,0.164l-0.204,0.163l-0.204,0.161l-0.205,0.159l-0.205,0.158l-0.207,0.156l-0.207,0.155l-0.208,0.153l-0.209,0.152l-0.209,0.15l-0.211,0.149l-0.21,0.147l-0.212,0.146l-0.213,0.145l-0.212,0.142l-0.213,0.141l-0.215,0.14l-0.215,0.138l-0.216,0.136l-0.216,0.136l-0.217,0.133l-0.217,0.132l-0.218,0.13l-0.22,0.13l-0.219,0.127l-0.22,0.125l-0.221,0.125l-0.221,0.123l-0.222,0.12l-0.222,0.12l-0.223,0.118l-0.224,0.117l-0.224,0.115l-0.224,0.113l-0.226,0.112l-0.226,0.111l-0.226,0.108l-0.227,0.108l-0.226,0.105l-0.228,0.105l-0.229,0.102l-0.229,0.101l-0.229,0.1l-0.229,0.098l-0.23,0.096l-0.231,0.095l-0.231,0.093l-0.232,0.092l-0.232,0.09l-0.232,0.089l-0.233,0.087l-0.233,0.085l-0.234,0.084l-0.234,0.083l-0.234,0.081l-0.235,0.079l-0.235,0.078l-0.235,0.076l-0.237,0.075l-0.236,0.073l-0.235,0.071l-0.237,0.07l-0.239,0.069l-0.237,0.066l-0.237,0.065l-0.239,0.064l-0.238,0.062l-0.239,0.061l-0.239,0.059l-0.239,0.057l-0.24,0.056l-0.239,0.054l-0.241,0.053l-0.24,0.051l-0.241,0.05l-0.241,0.048l-0.241,0.047l-0.24,0.044l-0.242,0.044l-0.243,0.042l-0.241,0.04l-0.242,0.038l-0.242,0.037l-0.242,0.036l-0.242,0.034l-0.244,0.032l-0.243,0.031l-0.242,0.029l-0.243,0.028l-0.244,0.026l-0.243,0.025l-0.244,0.023l-0.243,0.021l-0.243,0.02l-0.245,0.018l-0.243,0.017l-0.244,0.015l-0.244,0.013l-0.245,0.012l-0.244,0.011l-0.243,0.009l-0.245,0.007l-0.245,0.006l-0.243,0.004l-0.245,0.002l-0.245,0.001l-0.244,0l-0.244,-0.002l-0.244,-0.004l-0.245,-0.005l-0.243,-0.007l-0.244,-0.009l-0.245,-0.01l-0.245,-0.011l-0.243,-0.013l-0.244,-0.015l-0.245,-0.016l-0.244,-0.018l-0.243,-0.02l-0.243,-0.021l-0.244,-0.022l-0.244,-0.024l-0.243,-0.026l-0.242,-0.027l-0.243,-0.029l-0.244,-0.03l-0.243,-0.032l-0.242,-0.034l-0.243,-0.035l-0.243,-0.037l-0.242,-0.038l-0.241,-0.04l-0.242,-0.041l-0.242,-0.043l-0.241,-0.045l-0.241,-0.046l-0.241,-0.048l-0.241,-0.049l-0.24,-0.05l-0.241,-0.053l-0.24,-0.054l-0.239,-0.055l-0.24,-0.058l-0.24,-0.058l-0.238,-0.06l-0.238,-0.062l-0.239,-0.063l-0.238,-0.065l-0.239,-0.067l-0.237,-0.068l-0.236,-0.07l-0.237,-0.071l-0.237,-0.073l-0.236,-0.074l-0.235,-0.076l-0.236,-0.077l-0.235,-0.079l-0.235,-0.081l-0.234,-0.082l-0.234,-0.084l-0.233,-0.085l-0.233,-0.087l-0.233,-0.089l-0.231,-0.089l-0.232,-0.092l-0.232,-0.093l-0.231,-0.095l-0.231,-0.096l-0.23,-0.098l-0.228,-0.099l-0.229,-0.101l-0.23,-0.103l-0.228,-0.104l-0.227,-0.105l-0.228,-0.107l-0.225,-0.109l-0.226,-0.11l-0.227,-0.112l-0.225,-0.113l-0.223,-0.115l-0.224,-0.116l-0.224,-0.119l-0.223,-0.119l-0.221,-0.121l-0.222,-0.123l-0.222,-0.124l-0.22,-0.126l-0.219,-0.127l-0.219,-0.129l-0.22,-0.131l-0.218,-0.132l-0.216,-0.133l-0.217,-0.135l-0.216,-0.137l-0.216,-0.138l-0.214,-0.139l-0.214,-0.142l-0.214,-0.143l-0.212,-0.143l-0.212,-0.147l-0.212,-0.147l-0.209,-0.148l-0.211,-0.151l-0.209,-0.152l-0.208,-0.153l-0.208,-0.156l-0.207,-0.156l-0.206,-0.158l-0.205,-0.16l-0.205,-0.161l-0.203,-0.163l-0.203,-0.164l-0.202,-0.165l-0.202,-0.168l-0.2,-0.168l-0.2,-0.17l-0.199,-0.172l-0.198,-0.173l-0.197,-0.175l-0.197,-0.176l-0.196,-0.179l-0.194,-0.179l-0.194,-0.18l-0.193,-0.182l-0.192,-0.185l-0.191,-0.185l-0.19,-0.186l-0.19,-0.189l-0.188,-0.19l-0.188,-0.191l-0.187,-0.193l-0.185,-0.194l-0.185,-0.196l-0.173,-0.186l-0.207,-0.236l-0.192,-0.249l-0.175,-0.26l-0.159,-0.271l-0.141,-0.281l-0.124,-0.289l-0.105,-0.295l-0.087,-0.302l-0.067,-0.307l-0.048,-0.311l-0.028,-0.313l-0.009,-0.314l0.011,-0.313l0.031,-0.313l0.05,-0.31l0.07,-0.306l0.089,-0.302l0.107,-0.295l0.126,-0.288l0.144,-0.279l0.161,-0.27l0.177,-0.259l0.194,-0.247l0.209,-0.235l0.223,-0.221l0.236,-0.207l0.249,-0.192l0.26,-0.175l0.271,-0.159l0.281,-0.141l0.289,-0.124l0.295,-0.105l0.302,-0.087l0.307,-0.067l0.311,-0.048l0.313,-0.028l0.314,-0.009l0.313,0.011l0.313,0.031l0.31,0.05l0.306,0.07l0.302,0.089l0.295,0.107l0.288,0.126l0.279,0.144l0.27,0.161l0.259,0.177l0.247,0.194l0.235,0.209l0.221,0.222l0.151,0.163l0.142,0.149l0.141,0.149l0.143,0.147l0.143,0.146l0.143,0.144l0.144,0.143l0.145,0.143l0.146,0.141l0.145,0.139l0.147,0.138l0.147,0.138l0.148,0.136l0.148,0.134l0.149,0.134l0.149,0.132l0.15,0.131l0.15,0.13l0.151,0.128l0.151,0.128l0.152,0.126l0.153,0.125l0.153,0.124l0.153,0.122l0.154,0.121l0.155,0.121l0.155,0.118l0.155,0.118l0.156,0.116l0.157,0.116l0.156,0.114l0.157,0.112l0.159,0.112l0.158,0.11l0.158,0.109l0.16,0.109l0.159,0.107l0.16,0.105l0.161,0.105l0.161,0.103l0.161,0.101l0.161,0.101l0.163,0.1l0.163,0.099l0.162,0.097l0.163,0.096l0.165,0.095l0.164,0.094l0.164,0.092l0.165,0.091l0.166,0.09l0.166,0.089l0.165,0.088l0.166,0.086l0.168,0.086l0.167,0.084l0.167,0.083l0.168,0.082l0.169,0.081l0.168,0.079l0.169,0.079l0.169,0.077l0.169,0.076l0.17,0.074l0.17,0.074l0.171,0.073l0.171,0.071l0.171,0.07l0.17,0.069l0.172,0.068l0.172,0.066l0.173,0.066l0.172,0.064l0.173,0.063l0.173,0.062l0.173,0.061l0.173,0.06l0.174,0.058l0.174,0.057l0.174,0.056l0.175,0.055l0.174,0.054l0.175,0.053l0.176,0.051l0.175,0.051l0.175,0.048l0.176,0.048l0.176,0.047l0.176,0.046l0.177,0.044l0.177,0.044l0.176,0.042l0.177,0.041l0.177,0.04l0.177,0.038l0.178,0.038l0.177,0.036l0.178,0.035l0.178,0.034l0.178,0.033l0.178,0.032l0.178,0.03l0.18,0.03l0.178,0.028l0.178,0.027l0.178,0.026l0.18,0.024l0.179,0.024l0.178,0.022l0.179,0.022l0.181,0.02l0.179,0.019l0.179,0.017l0.18,0.017l0.179,0.016l0.181,0.014l0.179,0.013l0.179,0.012l0.18,0.011l0.181,0.01l0.179,0.008l0.179,0.007l0.18,0.007l0.181,0.005l0.18,0.004l0.18,0.002l0.181,0.002l0.18,0l0.179,0l0.18,-0.002l0.181,-0.003l0.179,-0.005l0.179,-0.005l0.181,-0.006l0.18,-0.008l0.18,-0.009l0.18,-0.01l0.179,-0.011l0.181,-0.012l0.179,-0.014l0.179,-0.014l0.18,-0.016l0.18,-0.017l0.179,-0.018l0.179,-0.019l0.18,-0.021l0.18,-0.022l0.179,-0.022l0.178,-0.024l0.178,-0.025l0.18,-0.026l0.178,-0.028l0.179,-0.028l0.179,-0.03l0.177,-0.031l0.178,-0.032l0.179,-0.033l0.178,-0.034l0.177,-0.035l0.178,-0.037l0.177,-0.038l0.177,-0.039l0.177,-0.04l0.177,-0.041l0.177,-0.043l0.177,-0.043l0.176,-0.045l0.176,-0.046l0.176,-0.047l0.176,-0.048l0.176,-0.049l0.174,-0.051l0.175,-0.051l0.176,-0.053l0.175,-0.055l0.173,-0.054l0.174,-0.057l0.175,-0.058l0.174,-0.058l0.173,-0.06l0.173,-0.061l0.173,-0.062l0.172,-0.063l0.173,-0.065l0.172,-0.066l0.172,-0.066l0.171,-0.068l0.171,-0.069l0.171,-0.071l0.171,-0.071l0.171,-0.073l0.17,-0.074l0.169,-0.075l0.169,-0.076l0.169,-0.077l0.17,-0.079l0.168,-0.079l0.168,-0.081l0.168,-0.082l0.167,-0.083l0.167,-0.085l0.167,-0.085l0.166,-0.087l0.166,-0.088l0.165,-0.089l0.166,-0.09l0.165,-0.092l0.163,-0.092l0.165,-0.094l0.164,-0.095l0.163,-0.096l0.162,-0.097l0.163,-0.099l0.162,-0.099l0.161,-0.101l0.162,-0.103l0.161,-0.103l0.159,-0.104l0.161,-0.106l0.16,-0.107l0.158,-0.107l0.158,-0.109l0.159,-0.111l0.157,-0.112l0.157,-0.112l0.157,-0.115l0.156,-0.115l0.156,-0.116l0.155,-0.117l0.155,-0.119l0.154,-0.12l0.154,-0.121l0.153,-0.123l0.153,-0.123l0.152,-0.125l0.152,-0.126l0.151,-0.127l0.15,-0.129l0.151,-0.13l0.149,-0.13l0.149,-0.132l0.148,-0.133l0.148,-0.135l0.147,-0.135l0.148,-0.138l0.146,-0.138l0.145,-0.139l0.145,-0.141l0.145,-0.142l0.144,-0.143l0.143,-0.144l0.143,-0.146l0.142,-0.146l0.141,-0.148l0.141,-0.149l0.151,-0.162l0.221,-0.223l0.235,-0.209l0.247,-0.193l0.259,-0.178l0.27,-0.161l0.279,-0.144l0.288,-0.126l0.295,-0.107l0.301,-0.089l0.307,-0.07l0.31,-0.05l0.312,-0.031l0.314,-0.011l0.314,0.009Z"
     style="fill:#333333"
     id="path8103" /></svg>